<svg xmlns="http://www.w3.org/2000/svg" version="1.1" xmlns:xlink="http://www.w3.org/1999/xlink" viewBox="0 0 20.910261450915804 18.643990173156233"><g transform="matrix(0.849764771092101,0,0,0.849764771092101,10.100588365702569,15.418123656189437)"><g transform="matrix(1,0,0,1,0,0)" clip-path="url(#SvgjsClipPath54880)"><g clip-path="url(#SvgjsClipPath548787a9c6971-6201-434e-86e5-b9ad2baa0bcc)"><path d=" M -8.18463226524784 -14.642622016370252 L 4.766601875350668 -14.642622016370252 L 4.766601875350668 -13.023642865393452 L -8.18463226524784 -13.023642865393452 Z" fill="#51a8db" transform="matrix(1,0,0,1,0,0)" fill-rule="nonzero"></path></g><g clip-path="url(#SvgjsClipPath548787a9c6971-6201-434e-86e5-b9ad2baa0bcc)"><path d=" M 3.9857177594216076 -3.75277816569262 L -8.184632265247823 -3.75277816569262 C -8.297833345420944 -3.752943422919996 -8.389513373712298 -3.8447574863404306 -8.389513253086504 -3.9579586871392642 L -8.389513253086504 -14.642622016370254 C -8.389513373691871 -14.755823217206117 -8.29783334538395 -14.847637280610005 -8.184632265210777 -14.847802537816952 L 4.766601875350677 -14.847802537816952 C 4.821019133032204 -14.847802537816898 4.873207601512812 -14.826185366372751 4.911686413433005 -14.787706554452567 C 4.950165225353198 -14.749227742532385 4.971782396797341 -14.69703927405178 4.971782396797341 -14.642622016370254 L 4.971782396797341 -4.738842803068318 C 4.971782396797341 -4.684425545386793 4.950165225353198 -4.632237076906186 4.911686413433005 -4.593758264986004 C 4.873207601512812 -4.555279453065822 4.821019133032204 -4.533662281621675 4.766601875350704 -4.533662281621675 C 4.712184617669152 -4.533662281621675 4.659996149188544 -4.555279453065822 4.621517337268351 -4.593758264986004 C 4.583038525348158 -4.632237076906186 4.561421353904015 -4.684425545386793 4.561421353904015 -4.738842803068318 L 4.561421353904015 -14.43744149492361 L -7.979451743801185 -14.43744149492361 L -7.979451743801185 -4.163438742193863 L 3.9857177594216076 -4.163438742193863 C 4.040135017103134 -4.163438742193863 4.0923234855837425 -4.141821570749714 4.130802297503935 -4.10334275882953 C 4.169281109424103 -4.064863946909348 4.19089828086827 -4.012675478428747 4.19089828086827 -3.958258220747217 C 4.190977797941221 -3.903789083821417 4.169395735263274 -3.8515236314005854 4.130908301398872 -3.8129800115013293 C 4.092420867534447 -3.7744363916020767 4.040186954389073 -3.752778107650931 3.9857177594216076 -3.75277816569262 Z" fill="#000000" transform="matrix(1,0,0,1,0,0)" fill-rule="nonzero"></path></g><g clip-path="url(#SvgjsClipPath548787a9c6971-6201-434e-86e5-b9ad2baa0bcc)"><path d=" M 4.766302341742723 -12.818462343946809 L -8.184931798855803 -12.818462343946809 C -8.298132879028925 -12.818627601174184 -8.389812907320254 -12.910441664594616 -8.389812786694485 -13.023642865393452 C -8.389812907299852 -13.136844066229315 -8.298132878991929 -13.228658129633203 -8.184931798818758 -13.22882338684015 L 4.766302341742723 -13.22882338684015 C 4.820719599424223 -13.228823386840096 4.872908067904831 -13.20720621539595 4.911386879825024 -13.168727403475765 C 4.949865691745217 -13.130248591555583 4.97148286318936 -13.078060123074978 4.97148286318936 -13.023642865393452 C 4.97148286318936 -12.969225607711927 4.949865691745217 -12.91703713923132 4.911386879825024 -12.878558327311138 C 4.872908067904831 -12.840079515390956 4.820719599424223 -12.818462343946809 4.766302341742723 -12.818462343946809 Z" fill="#000000" transform="matrix(1,0,0,1,0,0)" fill-rule="nonzero"></path></g><g clip-path="url(#SvgjsClipPath548787a9c6971-6201-434e-86e5-b9ad2baa0bcc)"><path d=" M -6.9706225522212035 -11.714081931430346 L -2.859823316697499 -11.714081931430346 L -2.859823316697499 -9.672460859634256 L -6.9706225522212035 -9.672460859634256 Z" fill="#3361e1" transform="matrix(1,0,0,1,0,0)" fill-rule="nonzero"></path></g><g clip-path="url(#SvgjsClipPath548787a9c6971-6201-434e-86e5-b9ad2baa0bcc)"><path d=" M -2.8601228503054434 -8.529440611692078 L -6.9709220858291525 -8.529440611692078 C -7.084123286627993 -8.5294404910663 -7.175937350048427 -8.62112051935765 -7.17610260727579 -8.73432159953077 C -7.176102607275815 -8.788738857212296 -7.154485435831672 -8.8409273256929 -7.116006623911479 -8.879406137613085 C -7.0775278119912866 -8.917884949533267 -7.025339343510703 -8.939502120977414 -6.970922085829177 -8.939502120977414 L -2.8601228503054434 -8.939502120977414 C -2.8057055926239425 -8.939502120977414 -2.7535171241433343 -8.917884949533267 -2.7150383122231423 -8.879406137613085 C -2.6765595003029494 -8.8409273256929 -2.654942328858806 -8.788738857212296 -2.654942328858806 -8.73432159953077 C -2.655107586086195 -8.621120519357655 -2.7469216495066284 -8.529440491066303 -2.8601228503054434 -8.529440611692078 Z" fill="#000000" transform="matrix(1,0,0,1,0,0)" fill-rule="nonzero"></path></g><g clip-path="url(#SvgjsClipPath548787a9c6971-6201-434e-86e5-b9ad2baa0bcc)"><path d=" M -2.8601228503054434 -7.453515891930992 L -6.9709220858291525 -7.453515891930992 C -7.084123286627993 -7.453515771305212 -7.175937350048427 -7.545195799596563 -7.17610260727579 -7.658396879769683 C -7.176102607275815 -7.7128141374512085 -7.154485435831672 -7.765002605931813 -7.116006623911479 -7.803481417851997 C -7.0775278119912866 -7.84196022977218 -7.025339343510703 -7.863577401216327 -6.970922085829177 -7.863577401216327 L -2.8601228503054434 -7.863577401216327 C -2.8057055926239425 -7.863577401216327 -2.7535171241433343 -7.84196022977218 -2.7150383122231423 -7.803481417851997 C -2.6765595003029494 -7.765002605931813 -2.654942328858806 -7.7128141374512085 -2.654942328858806 -7.658396879769683 C -2.655107586086195 -7.545195799596569 -2.7469216495066284 -7.453515771305216 -2.8601228503054434 -7.453515891930992 Z" fill="#000000" transform="matrix(1,0,0,1,0,0)" fill-rule="nonzero"></path></g><g clip-path="url(#SvgjsClipPath548787a9c6971-6201-434e-86e5-b9ad2baa0bcc)"><path d=" M -2.8601228503054434 -6.377591172169906 L -6.9709220858291525 -6.377591172169906 C -7.025339343510703 -6.377591172169906 -7.0775278119912866 -6.3992083436140526 -7.116006623911479 -6.4376871555342365 C -7.154485435831672 -6.476165967454419 -7.176102607275815 -6.528354435935022 -7.176102607275815 -6.582771693616548 C -7.175937350048427 -6.695972773789663 -7.084123286627993 -6.787652802081016 -6.970922085829177 -6.787652681455242 L -2.8601228503054434 -6.787652681455242 C -2.7469216495066284 -6.78765280208102 -2.655107586086195 -6.69597277378967 -2.654942328858832 -6.58277169361655 C -2.654942328858806 -6.528354435935022 -2.6765595003029494 -6.476165967454417 -2.7150383122231423 -6.437687155534235 C -2.7535171241433343 -6.3992083436140526 -2.8057055926239425 -6.377591172169906 -2.8601228503054434 -6.377591172169906 Z" fill="#000000" transform="matrix(1,0,0,1,0,0)" fill-rule="nonzero"></path></g><g clip-path="url(#SvgjsClipPath548787a9c6971-6201-434e-86e5-b9ad2baa0bcc)"><path d=" M 4.60784906313647 -1.4298950360302545 L -5.862048669193419 -1.4298950360302545 C -5.91646592687497 -1.4298950360302545 -5.968654395355578 -1.4515122074744031 -6.00713320727577 -1.4899910193945871 C -6.0456120191959375 -1.528469831314771 -6.067229190640081 -1.5806582997953722 -6.067229190640081 -1.635075557476899 L -6.067229190640081 -3.957958687139268 C -6.067229190640081 -4.012375944820791 -6.0456120191959375 -4.064564413301396 -6.00713320727577 -4.103043225221578 C -5.968654395355578 -4.141522037141762 -5.91646592687497 -4.163139208585909 -5.8620486691934435 -4.163139208585909 C -5.807631411511892 -4.1631392085859105 -5.755442943031284 -4.141522037141762 -5.716964131111092 -4.103043225221578 C -5.678485319190925 -4.064564413301396 -5.656868147746756 -4.0123759448207945 -5.656868147746756 -3.9579586871392642 L -5.656868147746756 -1.8402560789235416 L 4.60784906313647 -1.8402560789235416 C 4.662266320817997 -1.8402560789235451 4.714454789298605 -1.8186389074793965 4.752933601218796 -1.7801600955592125 C 4.791412413138964 -1.7416812836390303 4.813029584583132 -1.6894928151584256 4.813029584583132 -1.635075557476899 C 4.813029584583132 -1.5806582997953722 4.791412413138964 -1.5284698313147675 4.752933601218796 -1.4899910193945836 C 4.714454789298605 -1.4515122074744014 4.662266320817997 -1.4298950360302545 4.60784906313647 -1.4298950360302545 Z" fill="#000000" transform="matrix(1,0,0,1,0,0)" fill-rule="nonzero"></path></g><g clip-path="url(#SvgjsClipPath548787a9c6971-6201-434e-86e5-b9ad2baa0bcc)"><path d=" M 7.089185471405081 -3.9112314442988634 C 7.034768213723556 -3.9112314442988634 6.982579745242948 -3.9328486157430085 6.944100933322755 -3.9713274276631925 C 6.905622121402587 -4.0098062395833765 6.8840049499584435 -4.061994708063981 6.8840049499584435 -4.116411965745506 L 6.8840049499584435 -12.113959298045339 L 4.766302341742723 -12.113959298045339 C 4.711885084061196 -12.113959298045339 4.659696615580588 -12.135576469489486 4.621217803660395 -12.174055281409668 C 4.582738991740227 -12.212534093329852 4.56112182029606 -12.264722561810457 4.56112182029606 -12.319139819491983 C 4.56112182029606 -12.373557077173508 4.582738991740227 -12.425745545654113 4.621217803660395 -12.464224357574297 C 4.659696615580588 -12.50270316949448 4.711885084061196 -12.524320340938626 4.766302341742723 -12.524320340938626 L 7.089185471405081 -12.524320340938626 C 7.202386551578179 -12.524155083711252 7.294066579869556 -12.432341020290819 7.294066459243764 -12.319139819491983 L 7.294066459243764 -4.116411965745506 C 7.294066579872711 -4.003210764952398 7.202386551583912 -3.9113967015294087 7.089185471410813 -3.9112314442988687 Z" fill="#000000" transform="matrix(1,0,0,1,0,0)" fill-rule="nonzero"></path></g><g clip-path="url(#SvgjsClipPath548787a9c6971-6201-434e-86e5-b9ad2baa0bcc)"><path d=" M 8.372686981476424 0.5 C 8.318328560333729 0.5000538676905855 8.266176853378482 0.47850357556032286 8.227712715228002 0.4400932784097389 L 6.244800230590359 -1.5428192062278967 L 5.057149475063433 -0.3548689170930217 C 5.005370734874667 -0.302867277053986 4.929733967399173 -0.2825298984880664 4.858858226599676 -0.3015519348776934 C 4.7880905321375415 -0.32048339123690894 4.732815416710457 -0.3757585066639919 4.713883960351229 -0.4465262011261242 L 3.5016714489723118 -4.971280882838531 C 3.482560315346001 -5.042010292674888 3.502790167339425 -5.117557932040118 3.554688897579691 -5.169272597694345 C 3.606438080714735 -5.221111703651927 3.6818976400310586 -5.241432129610029 3.752680612435542 -5.222589579909677 L 8.277135760539963 -4.010077534922795 C 8.348044215472989 -3.9912043782304174 8.403383264020366 -3.9357509928058967 8.42211002678841 -3.864803735066415 C 8.441221160414695 -3.794074325230058 8.420991308421296 -3.7185266858648287 8.369092578181007 -3.6668120202106014 L 7.181142289046148 -2.479161264683679 L 9.164054773683766 -0.49624878004604156 C 9.202631374770355 -0.4578058937502991 9.224314759560919 -0.4055858308805771 9.224314759560919 -0.35112474699363183 C 9.224314759560919 -0.2966636631066901 9.202631374770355 -0.2444436002369681 9.164054773683766 -0.20600071394122565 L 8.517960781332825 0.4400932784097371 C 8.479404611793534 0.47854910611229506 8.427142640564828 0.5001004344540281 8.372686981476424 0.5 Z M 6.245998365022132 -2.0382477937793553 C 6.300454024110536 -2.0383482282333816 6.352715995339242 -2.0167968998916486 6.391272164878535 -1.978341072189096 L 8.373885115908223 0.004571412448541423 L 8.73003057576232 -0.3518735810135123 L 6.747417624732657 -2.334486532043197 C 6.708961797030085 -2.373042701582486 6.687410468688386 -2.425304672811187 6.687510903142396 -2.4797603318995804 C 6.687457035451779 -2.5341187530422484 6.709007327582025 -2.5862704599974897 6.7474176247326305 -2.624734598147983 L 7.8290334830448245 -3.7063504564601715 L 3.9896116963249817 -4.734649332557 L 5.01821010602977 -0.8964256802689814 L 6.099825964341912 -1.9780415385811434 C 6.138142531617241 -2.016781525993398 6.190312506744284 -2.0386627345694084 6.244800230590359 -2.0388468609952586 Z" fill="#000000" transform="matrix(1,0,0,1,0,0)" fill-rule="nonzero"></path></g></g><g><path d=" M 0.05280000000000001 0.108 Q 0.038700000000000005 0.108 0.028875 0.10327499999999999 Q 0.01905 0.09855 0.01365 0.089475 Q 0.00825 0.0804 0.0076500000000000005 0.06735 Q 0.007500000000000001 0.06119999999999999 0.007500000000000001 0.05414999999999999 Q 0.007500000000000001 0.04709999999999999 0.0076500000000000005 0.04064999999999999 Q 0.00825 0.027749999999999997 0.013725000000000001 0.018674999999999983 Q 0.019200000000000002 0.009599999999999984 0.029100000000000004 0.004799999999999985 Q 0.03900000000000001 -1.3877787807814457e-17 0.05280000000000001 -1.3877787807814457e-17 Q 0.06285 -1.3877787807814457e-17 0.07110000000000001 0.002549999999999983 Q 0.07935 0.005099999999999993 0.08535000000000001 0.009899999999999992 Q 0.09135000000000001 0.01469999999999999 0.09465000000000001 0.021149999999999988 Q 0.09795000000000001 0.027599999999999986 0.09825 0.035549999999999984 Q 0.09825 0.03689999999999999 0.09727500000000001 0.037799999999999986 Q 0.09630000000000001 0.038699999999999984 0.09495 0.038699999999999984 L 0.07785 0.038699999999999984 Q 0.07605 0.038699999999999984 0.07500000000000001 0.037799999999999986 Q 0.07395 0.03689999999999999 0.07335000000000001 0.0348 Q 0.07110000000000001 0.025949999999999987 0.06585 0.02264999999999999 Q 0.06060000000000001 0.019349999999999992 0.05280000000000001 0.019349999999999992 Q 0.043500000000000004 0.019349999999999992 0.0381 0.024449999999999986 Q 0.0327 0.029549999999999993 0.03225 0.04139999999999999 Q 0.0318 0.05369999999999999 0.03225 0.06659999999999999 Q 0.0327 0.07844999999999999 0.0381 0.08355 Q 0.043500000000000004 0.08864999999999999 0.05280000000000001 0.08864999999999999 Q 0.06060000000000001 0.08864999999999999 0.06592500000000001 0.08527499999999999 Q 0.07125000000000001 0.0819 0.07335000000000001 0.07319999999999999 Q 0.07395 0.07094999999999999 0.07500000000000001 0.07012499999999999 Q 0.07605 0.0693 0.07785 0.0693 L 0.09495 0.0693 Q 0.09630000000000001 0.0693 0.09727500000000001 0.07019999999999998 Q 0.09825 0.0711 0.09825 0.07244999999999999 Q 0.09795000000000001 0.0804 0.09465000000000001 0.08685 Q 0.09135000000000001 0.0933 0.08535000000000001 0.09809999999999999 Q 0.07935 0.10289999999999999 0.07110000000000001 0.10545 Q 0.06285 0.108 0.05280000000000001 0.108 M 0.15674897460937504 0.108 Q 0.14309897460937504 0.108 0.13319897460937502 0.1035 Q 0.12329897460937503 0.09899999999999999 0.11774897460937503 0.08992499999999999 Q 0.11219897460937503 0.08084999999999999 0.11174897460937502 0.06705 Q 0.11159897460937503 0.060599999999999994 0.11159897460937503 0.054224999999999995 Q 0.11159897460937503 0.04784999999999999 0.11174897460937502 0.041249999999999995 Q 0.11219897460937503 0.027749999999999997 0.11782397460937502 0.018524999999999986 Q 0.12344897460937503 0.009299999999999989 0.13342397460937502 0.0046499999999999875 Q 0.14339897460937504 -1.3877787807814457e-17 0.15674897460937504 -1.3877787807814457e-17 Q 0.16994897460937503 -1.3877787807814457e-17 0.17992397460937504 0.0046499999999999875 Q 0.18989897460937505 0.009299999999999989 0.19559897460937503 0.018524999999999986 Q 0.20129897460937501 0.027749999999999997 0.20159897460937504 0.041249999999999995 Q 0.20189897460937503 0.04784999999999999 0.20189897460937503 0.054224999999999995 Q 0.20189897460937503 0.060599999999999994 0.20159897460937504 0.06705 Q 0.20114897460937503 0.08084999999999999 0.19559897460937503 0.08992499999999999 Q 0.19004897460937503 0.09899999999999999 0.180148974609375 0.1035 Q 0.17024897460937505 0.108 0.15674897460937504 0.108 M 0.15674897460937504 0.08864999999999999 Q 0.16544897460937502 0.08864999999999999 0.171073974609375 0.083325 Q 0.17669897460937503 0.078 0.17699897460937503 0.0663 Q 0.17729897460937505 0.059699999999999996 0.17729897460937505 0.053924999999999994 Q 0.17729897460937505 0.04814999999999999 0.17699897460937503 0.04169999999999999 Q 0.17684897460937504 0.033899999999999986 0.17414897460937503 0.02894999999999999 Q 0.17144897460937503 0.023999999999999994 0.16702397460937501 0.021674999999999986 Q 0.16259897460937503 0.019349999999999992 0.15674897460937504 0.019349999999999992 Q 0.15089897460937501 0.019349999999999992 0.146398974609375 0.021674999999999986 Q 0.14189897460937503 0.023999999999999994 0.13927397460937502 0.02894999999999999 Q 0.13664897460937503 0.033899999999999986 0.13634897460937503 0.04169999999999999 Q 0.13619897460937502 0.04814999999999999 0.13619897460937502 0.053924999999999994 Q 0.13619897460937502 0.059699999999999996 0.13634897460937503 0.0663 Q 0.136798974609375 0.078 0.142348974609375 0.083325 Q 0.147898974609375 0.08864999999999999 0.15674897460937504 0.08864999999999999 M 0.22424941406250004 0.1065 Q 0.22259941406250003 0.1065 0.22154941406250003 0.10545 Q 0.22049941406250004 0.10439999999999999 0.22049941406250004 0.10275 L 0.22049941406250004 0.005249999999999991 Q 0.22049941406250004 0.003599999999999992 0.22154941406250003 0.002549999999999983 Q 0.22259941406250003 0.0014999999999999875 0.22424941406250004 0.0014999999999999875 L 0.24089941406250004 0.0014999999999999875 Q 0.24254941406250005 0.0014999999999999875 0.24359941406250005 0.002549999999999983 Q 0.24464941406250004 0.003599999999999992 0.24464941406250004 0.005249999999999991 L 0.24464941406250004 0.08639999999999999 L 0.29114941406250006 0.08639999999999999 Q 0.29279941406250004 0.08639999999999999 0.29384941406250004 0.08745 Q 0.29489941406250003 0.0885 0.29489941406250003 0.09015 L 0.29489941406250003 0.10275 Q 0.29489941406250003 0.10439999999999999 0.29384941406250004 0.10545 Q 0.29279941406250004 0.1065 0.29114941406250006 0.1065 L 0.22424941406250004 0.1065 M 0.312451318359375 0.1065 Q 0.310801318359375 0.1065 0.309751318359375 0.10545 Q 0.30870131835937503 0.10439999999999999 0.30870131835937503 0.10275 L 0.30870131835937503 0.005249999999999991 Q 0.30870131835937503 0.003599999999999992 0.309751318359375 0.002549999999999983 Q 0.310801318359375 0.0014999999999999875 0.312451318359375 0.0014999999999999875 L 0.32910131835937506 0.0014999999999999875 Q 0.33075131835937505 0.0014999999999999875 0.33180131835937504 0.002549999999999983 Q 0.33285131835937504 0.003599999999999992 0.33285131835937504 0.005249999999999991 L 0.33285131835937504 0.08639999999999999 L 0.379351318359375 0.08639999999999999 Q 0.381001318359375 0.08639999999999999 0.38205131835937506 0.08745 Q 0.38310131835937505 0.0885 0.38310131835937505 0.09015 L 0.38310131835937505 0.10275 Q 0.38310131835937505 0.10439999999999999 0.38205131835937506 0.10545 Q 0.381001318359375 0.1065 0.379351318359375 0.1065 L 0.312451318359375 0.1065 M 0.39075322265625007 0.1065 Q 0.38940322265625005 0.1065 0.38850322265625004 0.105525 Q 0.3876032226562501 0.10455 0.3876032226562501 0.10335 Q 0.3876032226562501 0.1026 0.38775322265625006 0.102 L 0.4234532226562501 0.0055499999999999855 Q 0.4239032226562501 0.003899999999999987 0.42525322265625004 0.002699999999999994 Q 0.42660322265625006 0.0014999999999999875 0.42900322265625007 0.0014999999999999875 L 0.44820322265625007 0.0014999999999999875 Q 0.4506032226562501 0.0014999999999999875 0.45195322265625004 0.002699999999999994 Q 0.45330322265625006 0.003899999999999987 0.45375322265625007 0.0055499999999999855 L 0.4894532226562501 0.102 Q 0.48960322265625006 0.1026 0.48960322265625006 0.10335 Q 0.48960322265625006 0.10455 0.48870322265625005 0.105525 Q 0.4878032226562501 0.1065 0.4864532226562501 0.1065 L 0.47085322265625007 0.1065 Q 0.4686032226562501 0.1065 0.46755322265625004 0.10545 Q 0.46650322265625005 0.10439999999999999 0.4662032226562501 0.1035 L 0.45975322265625007 0.0867 L 0.41745322265625007 0.0867 L 0.41100322265625006 0.1035 Q 0.41070322265625003 0.10439999999999999 0.40965322265625004 0.10545 Q 0.40860322265625004 0.1065 0.40635322265625007 0.1065 L 0.39075322265625007 0.1065 M 0.42300322265625007 0.06735 L 0.45405322265625003 0.06735 L 0.43860322265625007 0.02414999999999999 L 0.42300322265625007 0.06735 M 0.506250146484375 0.1065 Q 0.5046001464843751 0.1065 0.5035501464843751 0.10545 Q 0.5025001464843751 0.10439999999999999 0.5025001464843751 0.10275 L 0.5025001464843751 0.005249999999999991 Q 0.5025001464843751 0.003599999999999992 0.5035501464843751 0.002549999999999983 Q 0.5046001464843751 0.0014999999999999875 0.506250146484375 0.0014999999999999875 L 0.550800146484375 0.0014999999999999875 Q 0.5632501464843751 0.0014999999999999875 0.5712001464843751 0.005099999999999993 Q 0.5791501464843751 0.008699999999999986 0.5829751464843751 0.015299999999999994 Q 0.5868001464843751 0.02189999999999999 0.5868001464843751 0.030749999999999986 Q 0.5868001464843751 0.036299999999999985 0.5847751464843751 0.040499999999999994 Q 0.5827501464843751 0.04469999999999999 0.5798251464843751 0.04739999999999999 Q 0.576900146484375 0.05009999999999999 0.5742001464843751 0.051449999999999996 Q 0.580050146484375 0.05414999999999999 0.584475146484375 0.06037499999999999 Q 0.588900146484375 0.06659999999999999 0.588900146484375 0.07515 Q 0.588900146484375 0.0846 0.5847001464843751 0.09165 Q 0.5805001464843751 0.0987 0.5722501464843751 0.1026 Q 0.5640001464843751 0.1065 0.5521501464843751 0.1065 L 0.506250146484375 0.1065 M 0.5263501464843751 0.08895 L 0.5493001464843751 0.08895 Q 0.556650146484375 0.08895 0.5604001464843751 0.084825 Q 0.5641501464843751 0.0807 0.5641501464843751 0.075 Q 0.5641501464843751 0.06914999999999999 0.560325146484375 0.065175 Q 0.5565001464843751 0.06119999999999999 0.5493001464843751 0.06119999999999999 L 0.5263501464843751 0.06119999999999999 L 0.5263501464843751 0.08895 M 0.5263501464843751 0.04394999999999999 L 0.5479501464843751 0.04394999999999999 Q 0.5550001464843751 0.04394999999999999 0.5585251464843751 0.04042499999999999 Q 0.5620501464843751 0.03689999999999999 0.5620501464843751 0.03134999999999999 Q 0.5620501464843751 0.02579999999999999 0.5585251464843751 0.022424999999999987 Q 0.5550001464843751 0.019049999999999984 0.5479501464843751 0.019049999999999984 L 0.5263501464843751 0.019049999999999984 L 0.5263501464843751 0.04394999999999999 M 0.6105012451171876 0.1065 Q 0.6088512451171876 0.1065 0.6078012451171876 0.10545 Q 0.6067512451171876 0.10439999999999999 0.6067512451171876 0.10275 L 0.6067512451171876 0.005249999999999991 Q 0.6067512451171876 0.003599999999999992 0.6078012451171876 0.002549999999999983 Q 0.6088512451171876 0.0014999999999999875 0.6105012451171876 0.0014999999999999875 L 0.6274512451171876 0.0014999999999999875 Q 0.6291012451171876 0.0014999999999999875 0.6301512451171876 0.002549999999999983 Q 0.6312012451171876 0.003599999999999992 0.6312012451171876 0.005249999999999991 L 0.6312012451171876 0.10275 Q 0.6312012451171876 0.10439999999999999 0.6301512451171876 0.10545 Q 0.6291012451171876 0.1065 0.6274512451171876 0.1065 L 0.6105012451171876 0.1065 M 0.6571473632812501 0.1065 Q 0.6554973632812501 0.1065 0.6544473632812501 0.10545 Q 0.6533973632812501 0.10439999999999999 0.6533973632812501 0.10275 L 0.6533973632812501 0.005249999999999991 Q 0.6533973632812501 0.003599999999999992 0.6544473632812501 0.002549999999999983 Q 0.6554973632812501 0.0014999999999999875 0.6571473632812501 0.0014999999999999875 L 0.7240473632812501 0.0014999999999999875 Q 0.7256973632812501 0.0014999999999999875 0.7267473632812501 0.002549999999999983 Q 0.7277973632812501 0.003599999999999992 0.7277973632812501 0.005249999999999991 L 0.7277973632812501 0.017999999999999988 Q 0.7277973632812501 0.019649999999999987 0.7267473632812501 0.020699999999999996 Q 0.7256973632812501 0.02174999999999999 0.7240473632812501 0.02174999999999999 L 0.6767973632812501 0.02174999999999999 L 0.6767973632812501 0.04709999999999999 L 0.7210473632812501 0.04709999999999999 Q 0.7226973632812501 0.04709999999999999 0.7237473632812501 0.04814999999999999 Q 0.7247973632812501 0.049199999999999994 0.7247973632812501 0.05084999999999999 L 0.7247973632812501 0.06359999999999999 Q 0.7247973632812501 0.06509999999999999 0.7237473632812501 0.06614999999999999 Q 0.7226973632812501 0.0672 0.7210473632812501 0.0672 L 0.6767973632812501 0.0672 L 0.6767973632812501 0.10275 Q 0.6767973632812501 0.10439999999999999 0.6757473632812501 0.10545 Q 0.6746973632812501 0.1065 0.6730473632812501 0.1065 L 0.6571473632812501 0.1065 M 0.7757986816406252 0.1065 Q 0.7741486816406251 0.1065 0.7730986816406251 0.10545 Q 0.7720486816406251 0.10439999999999999 0.7720486816406251 0.10275 L 0.7720486816406251 0.06974999999999999 L 0.7369486816406251 0.006299999999999986 Q 0.7367986816406251 0.005849999999999994 0.7366486816406251 0.005474999999999994 Q 0.7364986816406252 0.005099999999999993 0.7364986816406252 0.0046499999999999875 Q 0.7364986816406252 0.0034499999999999947 0.7374736816406251 0.002474999999999991 Q 0.7384486816406252 0.0014999999999999875 0.7396486816406251 0.0014999999999999875 L 0.7555486816406252 0.0014999999999999875 Q 0.7576486816406252 0.0014999999999999875 0.7588486816406251 0.002549999999999983 Q 0.7600486816406251 0.003599999999999992 0.7604986816406252 0.00449999999999999 L 0.7840486816406251 0.04574999999999999 L 0.8075986816406251 0.00449999999999999 Q 0.8080486816406252 0.003599999999999992 0.8092486816406251 0.002549999999999983 Q 0.8104486816406251 0.0014999999999999875 0.8125486816406251 0.0014999999999999875 L 0.8284486816406251 0.0014999999999999875 Q 0.8296486816406251 0.0014999999999999875 0.8306236816406252 0.002474999999999991 Q 0.8315986816406251 0.0034499999999999947 0.8315986816406251 0.0046499999999999875 Q 0.8315986816406251 0.005099999999999993 0.8314486816406251 0.005474999999999994 Q 0.8312986816406251 0.005849999999999994 0.8311486816406252 0.006299999999999986 L 0.7960486816406251 0.06974999999999999 L 0.7960486816406251 0.10275 Q 0.7960486816406251 0.10439999999999999 0.7949986816406251 0.10545 Q 0.7939486816406252 0.1065 0.7922986816406251 0.1065 L 0.7757986816406252 0.1065" fill="#000000" fill-rule="nonzero"></path></g><g></g></g><defs><clipPath id="SvgjsClipPath54880"><path d=" M -8.389812786694485 -14.847802537816897 h 17.614073815576468 v 15.347802537816897 h -17.614073815576468 Z"></path></clipPath><clipPath id="SvgjsClipPath548787a9c6971-6201-434e-86e5-b9ad2baa0bcc"><path d=" M -8.389812786694485 -14.847802537816897 L 9.224261028881983 -14.847802537816897 L 9.224261028881983 0.5 L -8.389812786694485 0.5 Z"></path></clipPath></defs></svg>