<svg xmlns="http://www.w3.org/2000/svg" version="1.1" xmlns:xlink="http://www.w3.org/1999/xlink" viewBox="0 0 24.505958172180993 6.701174809252726"><g transform="matrix(0.7204193791106448,0,0,0.7204193791106448,8.040970936071547,2.6464224877569023)"><g transform="matrix(1,0,0,1,0,0)" clip-path="url(#SvgjsClipPath43042)"><g clip-path="url(#SvgjsClipPath430409dd21011-ac1f-4ae0-b413-9ba67abaa93a)"><path d=" M -5.051256513730254 -1.018033173461924 L -1.5909841610002347 -1.018033173461924 L -1.5909841610002347 -0.5854791222452684 L -5.051256513730254 -0.5854791222452684 Z" fill="#51a8db" transform="matrix(1,0,0,1,0,0)" fill-rule="nonzero"></path></g><g clip-path="url(#SvgjsClipPath430409dd21011-ac1f-4ae0-b413-9ba67abaa93a)"><path d=" M -1.799618464704552 1.891483031169479 L -5.051256513730249 1.891483031169479 C -5.081501242824779 1.891438878233259 -5.105996041061776 1.866908268887728 -5.105996008833335 1.836663507564778 L -5.105996008833335 -1.0180331734619241 C -5.105996041056319 -1.048277934794768 -5.081501242814895 -1.0728085441358783 -5.051256513720351 -1.0728526970666399 L -1.590984161000232 -1.0728526970666399 C -1.5764451193751174 -1.0728526970666254 -1.5625015590430031 -1.0670770852692966 -1.5522209041179287 -1.0567964303442243 C -1.5419402491928538 -1.0465157754191523 -1.536164637395526 -1.0325722150870391 -1.536164637395526 -1.0180331734619243 L -1.536164637395526 1.6280292038604625 C -1.536164637395526 1.642568245485577 -1.5419402491928538 1.6565118058176904 -1.5522209041179287 1.6667924607427627 C -1.5625015590430031 1.6770731156678345 -1.5764451193751174 1.6828487274651636 -1.5909841610002253 1.6828487274651636 C -1.605523202625347 1.6828487274651636 -1.6194667629574613 1.6770731156678345 -1.6297474178825357 1.6667924607427627 C -1.6400280728076106 1.6565118058176904 -1.6458036846049384 1.642568245485577 -1.6458036846049384 1.6280292038604625 L -1.6458036846049384 -0.963213649857223 L -4.99643699012555 -0.963213649857223 L -4.99643699012555 1.7817639554584628 L -1.799618464704552 1.7817639554584628 C -1.785079423079437 1.7817639554584628 -1.771135862747323 1.7875395672557923 -1.7608552078222481 1.7978202221808646 C -1.7505745528971803 1.8081008771059368 -1.744798941099846 1.822044437438049 -1.744798941099846 1.8365834790631648 C -1.7447776959639683 1.851136381631005 -1.7505439275051993 1.865100510304102 -1.7608268860157739 1.8753984804329447 C -1.7711098445263551 1.8856964505617864 -1.785065546629312 1.8914830466768855 -1.799618464704552 1.891483031169479 Z" fill="#000000" transform="matrix(1,0,0,1,0,0)" fill-rule="nonzero"></path></g><g clip-path="url(#SvgjsClipPath430409dd21011-ac1f-4ae0-b413-9ba67abaa93a)"><path d=" M -1.591064189501846 -0.5306595986405676 L -5.05133654223187 -0.5306595986405676 C -5.0815812713264 -0.5307037515767871 -5.10607606956339 -0.5552343609223179 -5.106076037334955 -0.5854791222452684 C -5.10607606955794 -0.6157238835781123 -5.081581271316516 -0.6402544929192225 -5.051336542221972 -0.640298645849984 L -1.591064189501846 -0.640298645849984 C -1.5765251478767377 -0.6402986458499695 -1.5625815875446238 -0.6345230340526409 -1.552300932619549 -0.6242423791275686 C -1.5420202776944745 -0.6139617242024964 -1.5362446658971467 -0.6000181638703833 -1.5362446658971467 -0.5854791222452684 C -1.5362446658971467 -0.5709400806201538 -1.5420202776944745 -0.5569965202880406 -1.552300932619549 -0.5467158653629685 C -1.5625815875446238 -0.5364352104378962 -1.5765251478767377 -0.5306595986405676 -1.591064189501846 -0.5306595986405677 Z" fill="#000000" transform="matrix(1,0,0,1,0,0)" fill-rule="nonzero"></path></g><g clip-path="url(#SvgjsClipPath430409dd21011-ac1f-4ae0-b413-9ba67abaa93a)"><path d=" M -4.726900996693972 -0.23559451319453417 L -3.6285898405612467 -0.23559451319453417 L -3.6285898405612467 0.3098797537976441 L -4.726900996693972 0.3098797537976441 Z" fill="#3361e1" transform="matrix(1,0,0,1,0,0)" fill-rule="nonzero"></path></g><g clip-path="url(#SvgjsClipPath430409dd21011-ac1f-4ae0-b413-9ba67abaa93a)"><path d=" M -3.6286698690628576 0.6152685159517157 L -4.726981025195585 0.6152685159517157 C -4.757225786518536 0.6152685481801534 -4.781756395864067 0.5907737499431569 -4.781800548800284 0.5605290208486275 C -4.78180054880029 0.5459899792235126 -4.776024937002963 0.5320464188913994 -4.765744282077888 0.5217657639663273 C -4.755463627152813 0.5114851090412551 -4.741520066820706 0.5057094972439264 -4.726981025195591 0.5057094972439264 L -3.6286698690628576 0.5057094972439264 C -3.6141308274377497 0.5057094972439264 -3.6001872671056354 0.5114851090412551 -3.5899066121805605 0.5217657639663273 C -3.5796259572554856 0.5320464188913994 -3.5738503454581583 0.5459899792235126 -3.5738503454581583 0.5605290208486273 C -3.573894498394381 0.5907737499431553 -3.5984251077399123 0.6152685481801528 -3.6286698690628576 0.6152685159517157 Z" fill="#000000" transform="matrix(1,0,0,1,0,0)" fill-rule="nonzero"></path></g><g clip-path="url(#SvgjsClipPath430409dd21011-ac1f-4ae0-b413-9ba67abaa93a)"><path d=" M -3.6286698690628576 0.9027308937445422 L -4.726981025195585 0.9027308937445422 C -4.757225786518536 0.9027309259729803 -4.781756395864067 0.8782361277359834 -4.781800548800284 0.8479913986414542 C -4.78180054880029 0.8334523570163392 -4.776024937002963 0.819508796684226 -4.765744282077888 0.8092281417591538 C -4.755463627152813 0.7989474868340816 -4.741520066820706 0.7931718750367529 -4.726981025195591 0.7931718750367529 L -3.6286698690628576 0.7931718750367529 C -3.6141308274377497 0.7931718750367529 -3.6001872671056354 0.7989474868340816 -3.5899066121805605 0.8092281417591538 C -3.5796259572554856 0.819508796684226 -3.5738503454581583 0.8334523570163392 -3.5738503454581583 0.8479913986414542 C -3.573894498394381 0.8782361277359818 -3.5984251077399123 0.9027309259729794 -3.6286698690628576 0.9027308937445422 Z" fill="#000000" transform="matrix(1,0,0,1,0,0)" fill-rule="nonzero"></path></g><g clip-path="url(#SvgjsClipPath430409dd21011-ac1f-4ae0-b413-9ba67abaa93a)"><path d=" M -3.6286698690628576 1.1901932715373684 L -4.726981025195585 1.1901932715373684 C -4.741520066820706 1.1901932715373684 -4.755463627152813 1.1844176597400398 -4.765744282077888 1.1741370048149675 C -4.776024937002963 1.1638563498898953 -4.78180054880029 1.1499127895577823 -4.78180054880029 1.1353737479326678 C -4.781756395864067 1.1051290188381397 -4.757225786518536 1.0806342206011421 -4.726981025195591 1.0806342528295794 L -3.6286698690628576 1.0806342528295794 C -3.5984251077399123 1.0806342206011412 -3.573894498394381 1.105129018838138 -3.573850345458165 1.1353737479326673 C -3.5738503454581583 1.1499127895577823 -3.5796259572554856 1.1638563498898957 -3.5899066121805605 1.174137004814968 C -3.6001872671056354 1.1844176597400398 -3.6141308274377497 1.1901932715373684 -3.6286698690628576 1.1901932715373684 Z" fill="#000000" transform="matrix(1,0,0,1,0,0)" fill-rule="nonzero"></path></g><g clip-path="url(#SvgjsClipPath430409dd21011-ac1f-4ae0-b413-9ba67abaa93a)"><path d=" M -1.6333992668549686 2.512104061175984 L -4.430715512225359 2.512104061175984 C -4.445254553850481 2.512104061175984 -4.459198114182595 2.506328449378655 -4.46947876910767 2.496047794453583 C -4.479759424032737 2.4857671395285106 -4.485535035830066 2.471823579196398 -4.485535035830066 2.457284537571283 L -4.485535035830066 1.836663507564777 C -4.485535035830066 1.822124465939663 -4.479759424032737 1.80818090560755 -4.46947876910767 1.7979002506824777 C -4.459198114182595 1.787619595757405 -4.445254553850481 1.7818439839600768 -4.430715512225366 1.7818439839600768 C -4.416176470600244 1.781843983960076 -4.402232910268131 1.787619595757405 -4.391952255343056 1.7979002506824777 C -4.381671600417988 1.80818090560755 -4.375895988620654 1.822124465939662 -4.375895988620654 1.836663507564778 L -4.375895988620654 2.4024650139665824 L -1.6333992668549686 2.4024650139665824 C -1.618860225229854 2.4024650139665815 -1.6049166648977398 2.4082406257639106 -1.5946360099726649 2.418521280688983 C -1.584355355047597 2.428801935614055 -1.5785797432502626 2.4427454959461685 -1.5785797432502626 2.457284537571283 C -1.5785797432502626 2.471823579196398 -1.584355355047597 2.4857671395285115 -1.5946360099726649 2.4960477944535837 C -1.6049166648977398 2.506328449378656 -1.618860225229854 2.512104061175984 -1.6333992668549686 2.512104061175984 Z" fill="#000000" transform="matrix(1,0,0,1,0,0)" fill-rule="nonzero"></path></g><g clip-path="url(#SvgjsClipPath430409dd21011-ac1f-4ae0-b413-9ba67abaa93a)"><path d=" M -0.9704431594953427 1.8491479538163587 C -0.9849822011204568 1.8491479538163587 -0.9989257614525711 1.8433723420190304 -1.009206416377646 1.8330916870939582 C -1.0194870713027138 1.8228110321688855 -1.025262683100042 1.8088674718367725 -1.025262683100042 1.7943284302116576 L -1.025262683100042 -0.3424325628474916 L -1.591064189501846 -0.3424325628474916 C -1.605603231126961 -0.3424325628474916 -1.6195467914590749 -0.34820817464482035 -1.6298274463841498 -0.3584888295698925 C -1.640108101309218 -0.3687694844949647 -1.645883713106552 -0.3827130448270778 -1.645883713106552 -0.3972520864521927 C -1.645883713106552 -0.41179112807730744 -1.640108101309218 -0.4257346884094205 -1.6298274463841498 -0.4360153433344929 C -1.6195467914590749 -0.4462959982595649 -1.605603231126961 -0.4520716100568938 -1.591064189501846 -0.45207161005689356 L -0.9704431594953427 -0.45207161005689356 C -0.9401984304008186 -0.45202745712067405 -0.9157036321638152 -0.4274968477751433 -0.9157036643922565 -0.39725208645219257 L -0.9157036643922565 1.7943284302116576 C -0.9157036321629723 1.8245731915330783 -0.9401984303992874 1.8491038008792922 -0.9704431594938105 1.8491479538163569 Z" fill="#000000" transform="matrix(1,0,0,1,0,0)" fill-rule="nonzero"></path></g><g clip-path="url(#SvgjsClipPath430409dd21011-ac1f-4ae0-b413-9ba67abaa93a)"><path d=" M -0.627521030084913 3.0277276970666245 C -0.6420443519379626 3.0277420892765416 -0.6559780904346848 3.0219843460960796 -0.6662548248654581 3.0117219967440843 L -1.1960435055415486 2.4819333160679955 L -1.5133565144359138 2.799326353463973 C -1.5271906047773691 2.813219997526791 -1.54739901213871 2.8186536780559734 -1.566335382503521 2.813571426751033 C -1.5852428853681437 2.808513376350156 -1.6000111268831922 2.7937451348351074 -1.605069177284073 2.774837631970485 L -1.9289445233106752 1.5659270866090051 C -1.9340505793512461 1.5470298125172297 -1.9286456274530153 1.5268452181402306 -1.9147794785252277 1.5130282470430085 C -1.9009532851497846 1.4991780283543537 -1.8807922237392 1.4937488771726835 -1.8618806389592208 1.4987831737559478 L -0.653050122099363 1.8227385482841667 C -0.6341050112693143 1.827781022352847 -0.6193196882926708 1.8425968935174524 -0.6143163273188108 1.8615523715663267 C -0.609210271278247 1.8804496456581021 -0.6146152231764708 1.9006342400351013 -0.6284813721042655 1.9144512111323229 L -0.945874409500238 2.2317642200266876 L -0.4160857288241546 2.7615529007027764 C -0.4057789468794297 2.771823957125987 -0.3999856443964491 2.785775958753345 -0.3999856443964491 2.800326709734131 C -0.3999856443964491 2.8148774607149165 -0.4057789468794297 2.8288294623422745 -0.4160857288241546 2.839100518765485 L -0.5887072068027468 3.0117219967440834 C -0.5990085299072199 3.021996510814011 -0.6129717284857223 3.0277545308463836 -0.627521030084913 3.0277276970666245 Z M -1.1957233915351066 2.349566174400586 C -1.181174089935916 2.3495393406208276 -1.1672108913574135 2.3552973606531995 -1.1569095682529404 2.365571874723126 L -0.627200916078464 2.8953605553992148 L -0.5320470276609619 2.800126638480099 L -1.0617556798354322 2.270417986305623 C -1.0720301939053636 2.2601166632011513 -1.0777882139377262 2.2461534646226493 -1.0777613801579724 2.231604163023462 C -1.0777757723678976 2.2170808411704193 -1.07201802918744 2.203147102673699 -1.0617556798354384 2.192870368242922 L -0.7727727605119625 1.9038874489194466 L -1.798578094183585 1.6291496028830403 L -1.5237602196455633 2.6546348225482066 L -1.2347773003221003 2.3656519032247387 C -1.2245399934403784 2.3553014682057687 -1.2106013741076596 2.3494553117501034 -1.1960435055415486 2.3494061173973604 Z" fill="#000000" transform="matrix(1,0,0,1,0,0)" fill-rule="nonzero"></path></g></g><g><path d=" M 0.528 1.0799999999999996 Q 0.387 1.0799999999999996 0.28875 1.0327499999999996 Q 0.1905 0.9854999999999997 0.1365 0.8947499999999997 Q 0.0825 0.8039999999999997 0.0765 0.6734999999999998 Q 0.075 0.6119999999999997 0.075 0.5414999999999998 Q 0.075 0.47099999999999975 0.0765 0.40649999999999975 Q 0.0825 0.27749999999999975 0.13725 0.18674999999999975 Q 0.192 0.09599999999999975 0.291 0.0479999999999996 Q 0.39 -2.220446049250313e-16 0.528 -2.220446049250313e-16 Q 0.6285000000000001 -2.220446049250313e-16 0.711 0.025499999999999634 Q 0.7935 0.05099999999999971 0.8535 0.09899999999999975 Q 0.9135 0.1469999999999997 0.9465 0.2114999999999997 Q 0.9795 0.2759999999999997 0.9825 0.3554999999999997 Q 0.9825 0.36899999999999966 0.97275 0.37799999999999967 Q 0.963 0.3869999999999997 0.9495 0.3869999999999997 L 0.7785 0.3869999999999997 Q 0.7605000000000001 0.3869999999999997 0.75 0.37799999999999967 Q 0.7395 0.36899999999999966 0.7335 0.34799999999999975 Q 0.711 0.25949999999999973 0.6585 0.2264999999999997 Q 0.606 0.19349999999999967 0.528 0.19349999999999967 Q 0.435 0.19349999999999967 0.381 0.24449999999999972 Q 0.327 0.29549999999999976 0.3225 0.4139999999999997 Q 0.318 0.5369999999999997 0.3225 0.6659999999999997 Q 0.327 0.7844999999999998 0.381 0.8354999999999997 Q 0.435 0.8864999999999997 0.528 0.8864999999999997 Q 0.606 0.8864999999999997 0.65925 0.8527499999999997 Q 0.7125 0.8189999999999997 0.7335 0.7319999999999998 Q 0.7395 0.7094999999999998 0.75 0.7012499999999997 Q 0.7605000000000001 0.6929999999999997 0.7785 0.6929999999999997 L 0.9495 0.6929999999999997 Q 0.963 0.6929999999999997 0.97275 0.7019999999999997 Q 0.9825 0.7109999999999997 0.9825 0.7244999999999997 Q 0.9795 0.8039999999999997 0.9465 0.8684999999999997 Q 0.9135 0.9329999999999997 0.8535 0.9809999999999998 Q 0.7935 1.0289999999999997 0.711 1.0544999999999998 Q 0.6285000000000001 1.0799999999999996 0.528 1.0799999999999996 M 1.56748974609375 1.0799999999999996 Q 1.43098974609375 1.0799999999999996 1.33198974609375 1.0349999999999997 Q 1.23298974609375 0.9899999999999998 1.17748974609375 0.8992499999999997 Q 1.12198974609375 0.8084999999999998 1.11748974609375 0.6704999999999997 Q 1.11598974609375 0.6059999999999997 1.11598974609375 0.5422499999999997 Q 1.11598974609375 0.4784999999999997 1.11748974609375 0.41249999999999976 Q 1.12198974609375 0.27749999999999975 1.17823974609375 0.1852499999999997 Q 1.23448974609375 0.09299999999999975 1.33423974609375 0.046499999999999764 Q 1.43398974609375 -2.220446049250313e-16 1.56748974609375 -2.220446049250313e-16 Q 1.6994897460937501 -2.220446049250313e-16 1.79923974609375 0.046499999999999764 Q 1.8989897460937502 0.09299999999999975 1.95598974609375 0.1852499999999997 Q 2.01298974609375 0.27749999999999975 2.01598974609375 0.41249999999999976 Q 2.01898974609375 0.4784999999999997 2.01898974609375 0.5422499999999997 Q 2.01898974609375 0.6059999999999997 2.01598974609375 0.6704999999999997 Q 2.01148974609375 0.8084999999999998 1.95598974609375 0.8992499999999997 Q 1.90048974609375 0.9899999999999998 1.80148974609375 1.0349999999999997 Q 1.70248974609375 1.0799999999999996 1.56748974609375 1.0799999999999996 M 1.56748974609375 0.8864999999999997 Q 1.65448974609375 0.8864999999999997 1.7107397460937501 0.8332499999999997 Q 1.76698974609375 0.7799999999999997 1.7699897460937501 0.6629999999999997 Q 1.77298974609375 0.5969999999999998 1.77298974609375 0.5392499999999997 Q 1.77298974609375 0.4814999999999997 1.7699897460937501 0.4169999999999997 Q 1.76848974609375 0.33899999999999975 1.74148974609375 0.28949999999999976 Q 1.71448974609375 0.23999999999999966 1.67023974609375 0.21674999999999967 Q 1.62598974609375 0.19349999999999967 1.56748974609375 0.19349999999999967 Q 1.50898974609375 0.19349999999999967 1.46398974609375 0.21674999999999967 Q 1.41898974609375 0.23999999999999966 1.39273974609375 0.28949999999999976 Q 1.36648974609375 0.33899999999999975 1.36348974609375 0.4169999999999997 Q 1.36198974609375 0.4814999999999997 1.36198974609375 0.5392499999999997 Q 1.36198974609375 0.5969999999999998 1.36348974609375 0.6629999999999997 Q 1.36798974609375 0.7799999999999997 1.42348974609375 0.8332499999999997 Q 1.47898974609375 0.8864999999999997 1.56748974609375 0.8864999999999997 M 2.242494140625 1.0649999999999997 Q 2.225994140625 1.0649999999999997 2.215494140625 1.0544999999999998 Q 2.204994140625 1.0439999999999998 2.204994140625 1.0274999999999996 L 2.204994140625 0.05249999999999977 Q 2.204994140625 0.03599999999999981 2.215494140625 0.025499999999999634 Q 2.225994140625 0.01499999999999968 2.242494140625 0.01499999999999968 L 2.408994140625 0.01499999999999968 Q 2.425494140625 0.01499999999999968 2.435994140625 0.025499999999999634 Q 2.446494140625 0.03599999999999981 2.446494140625 0.05249999999999977 L 2.446494140625 0.8639999999999997 L 2.911494140625 0.8639999999999997 Q 2.927994140625 0.8639999999999997 2.938494140625 0.8744999999999997 Q 2.948994140625 0.8849999999999998 2.948994140625 0.9014999999999997 L 2.948994140625 1.0274999999999996 Q 2.948994140625 1.0439999999999998 2.938494140625 1.0544999999999998 Q 2.927994140625 1.0649999999999997 2.911494140625 1.0649999999999997 L 2.242494140625 1.0649999999999997 M 3.12451318359375 1.0649999999999997 Q 3.10801318359375 1.0649999999999997 3.09751318359375 1.0544999999999998 Q 3.08701318359375 1.0439999999999998 3.08701318359375 1.0274999999999996 L 3.08701318359375 0.05249999999999977 Q 3.08701318359375 0.03599999999999981 3.09751318359375 0.025499999999999634 Q 3.10801318359375 0.01499999999999968 3.12451318359375 0.01499999999999968 L 3.29101318359375 0.01499999999999968 Q 3.30751318359375 0.01499999999999968 3.31801318359375 0.025499999999999634 Q 3.32851318359375 0.03599999999999981 3.32851318359375 0.05249999999999977 L 3.32851318359375 0.8639999999999997 L 3.79351318359375 0.8639999999999997 Q 3.81001318359375 0.8639999999999997 3.82051318359375 0.8744999999999997 Q 3.83101318359375 0.8849999999999998 3.83101318359375 0.9014999999999997 L 3.83101318359375 1.0274999999999996 Q 3.83101318359375 1.0439999999999998 3.82051318359375 1.0544999999999998 Q 3.81001318359375 1.0649999999999997 3.79351318359375 1.0649999999999997 L 3.12451318359375 1.0649999999999997 M 3.9075322265625 1.0649999999999997 Q 3.8940322265625 1.0649999999999997 3.8850322265625 1.0552499999999998 Q 3.8760322265625 1.0454999999999997 3.8760322265625 1.0334999999999996 Q 3.8760322265625 1.0259999999999998 3.8775322265625 1.0199999999999998 L 4.2345322265625 0.05549999999999966 Q 4.2390322265625 0.0389999999999997 4.2525322265625 0.02699999999999969 Q 4.2660322265625 0.01499999999999968 4.2900322265625 0.01499999999999968 L 4.4820322265625 0.01499999999999968 Q 4.5060322265625 0.01499999999999968 4.5195322265625 0.02699999999999969 Q 4.5330322265625 0.0389999999999997 4.5375322265625 0.05549999999999966 L 4.8945322265625 1.0199999999999998 Q 4.8960322265625 1.0259999999999998 4.8960322265625 1.0334999999999996 Q 4.8960322265625 1.0454999999999997 4.8870322265625 1.0552499999999998 Q 4.8780322265625 1.0649999999999997 4.8645322265625 1.0649999999999997 L 4.7085322265625 1.0649999999999997 Q 4.6860322265625 1.0649999999999997 4.6755322265625 1.0544999999999998 Q 4.6650322265625 1.0439999999999998 4.6620322265625 1.0349999999999997 L 4.5975322265625 0.8669999999999998 L 4.1745322265625 0.8669999999999998 L 4.1100322265625 1.0349999999999997 Q 4.1070322265625 1.0439999999999998 4.0965322265625 1.0544999999999998 Q 4.0860322265625 1.0649999999999997 4.0635322265625 1.0649999999999997 L 3.9075322265625 1.0649999999999997 M 4.2300322265625 0.6734999999999998 L 4.5405322265625 0.6734999999999998 L 4.3860322265625005 0.24149999999999971 L 4.2300322265625 0.6734999999999998 M 5.06250146484375 1.0649999999999997 Q 5.04600146484375 1.0649999999999997 5.03550146484375 1.0544999999999998 Q 5.02500146484375 1.0439999999999998 5.02500146484375 1.0274999999999996 L 5.02500146484375 0.05249999999999977 Q 5.02500146484375 0.03599999999999981 5.03550146484375 0.025499999999999634 Q 5.04600146484375 0.01499999999999968 5.06250146484375 0.01499999999999968 L 5.50800146484375 0.01499999999999968 Q 5.63250146484375 0.01499999999999968 5.71200146484375 0.05099999999999971 Q 5.79150146484375 0.08699999999999974 5.82975146484375 0.1529999999999997 Q 5.86800146484375 0.21899999999999975 5.86800146484375 0.30749999999999966 Q 5.86800146484375 0.36299999999999966 5.84775146484375 0.4049999999999997 Q 5.82750146484375 0.44699999999999973 5.79825146484375 0.47399999999999975 Q 5.76900146484375 0.5009999999999997 5.74200146484375 0.5144999999999997 Q 5.80050146484375 0.5414999999999998 5.84475146484375 0.6037499999999998 Q 5.88900146484375 0.6659999999999997 5.88900146484375 0.7514999999999997 Q 5.88900146484375 0.8459999999999998 5.84700146484375 0.9164999999999998 Q 5.80500146484375 0.9869999999999998 5.72250146484375 1.0259999999999998 Q 5.64000146484375 1.0649999999999997 5.52150146484375 1.0649999999999997 L 5.06250146484375 1.0649999999999997 M 5.26350146484375 0.8894999999999997 L 5.49300146484375 0.8894999999999997 Q 5.56650146484375 0.8894999999999997 5.60400146484375 0.8482499999999997 Q 5.64150146484375 0.8069999999999997 5.64150146484375 0.7499999999999998 Q 5.64150146484375 0.6914999999999998 5.60325146484375 0.6517499999999997 Q 5.56500146484375 0.6119999999999997 5.49300146484375 0.6119999999999997 L 5.26350146484375 0.6119999999999997 L 5.26350146484375 0.8894999999999997 M 5.26350146484375 0.43949999999999967 L 5.47950146484375 0.43949999999999967 Q 5.55000146484375 0.43949999999999967 5.58525146484375 0.40424999999999967 Q 5.62050146484375 0.36899999999999966 5.62050146484375 0.31349999999999967 Q 5.62050146484375 0.2579999999999997 5.58525146484375 0.22424999999999973 Q 5.55000146484375 0.19049999999999967 5.47950146484375 0.19049999999999967 L 5.26350146484375 0.19049999999999967 L 5.26350146484375 0.43949999999999967 M 6.105012451171875 1.0649999999999997 Q 6.088512451171875 1.0649999999999997 6.078012451171875 1.0544999999999998 Q 6.067512451171875 1.0439999999999998 6.067512451171875 1.0274999999999996 L 6.067512451171875 0.05249999999999977 Q 6.067512451171875 0.03599999999999981 6.078012451171875 0.025499999999999634 Q 6.088512451171875 0.01499999999999968 6.105012451171875 0.01499999999999968 L 6.274512451171875 0.01499999999999968 Q 6.291012451171875 0.01499999999999968 6.301512451171875 0.025499999999999634 Q 6.312012451171875 0.03599999999999981 6.312012451171875 0.05249999999999977 L 6.312012451171875 1.0274999999999996 Q 6.312012451171875 1.0439999999999998 6.301512451171875 1.0544999999999998 Q 6.291012451171875 1.0649999999999997 6.274512451171875 1.0649999999999997 L 6.105012451171875 1.0649999999999997 M 6.5714736328125 1.0649999999999997 Q 6.5549736328125 1.0649999999999997 6.5444736328125 1.0544999999999998 Q 6.5339736328125 1.0439999999999998 6.5339736328125 1.0274999999999996 L 6.5339736328125 0.05249999999999977 Q 6.5339736328125 0.03599999999999981 6.5444736328125 0.025499999999999634 Q 6.5549736328125 0.01499999999999968 6.5714736328125 0.01499999999999968 L 7.2404736328125 0.01499999999999968 Q 7.2569736328125 0.01499999999999968 7.2674736328125 0.025499999999999634 Q 7.2779736328125 0.03599999999999981 7.2779736328125 0.05249999999999977 L 7.2779736328125 0.17999999999999972 Q 7.2779736328125 0.19649999999999967 7.2674736328125 0.20699999999999974 Q 7.2569736328125 0.2174999999999997 7.2404736328125 0.2174999999999997 L 6.7679736328125 0.2174999999999997 L 6.7679736328125 0.47099999999999975 L 7.2104736328125 0.47099999999999975 Q 7.2269736328125 0.47099999999999975 7.2374736328125 0.4814999999999997 Q 7.2479736328125 0.49199999999999966 7.2479736328125 0.5084999999999997 L 7.2479736328125 0.6359999999999997 Q 7.2479736328125 0.6509999999999997 7.2374736328125 0.6614999999999998 Q 7.2269736328125 0.6719999999999997 7.2104736328125 0.6719999999999997 L 6.7679736328125 0.6719999999999997 L 6.7679736328125 1.0274999999999996 Q 6.7679736328125 1.0439999999999998 6.7574736328125 1.0544999999999998 Q 6.7469736328125 1.0649999999999997 6.7304736328125 1.0649999999999997 L 6.5714736328125 1.0649999999999997 M 7.75798681640625 1.0649999999999997 Q 7.74148681640625 1.0649999999999997 7.73098681640625 1.0544999999999998 Q 7.72048681640625 1.0439999999999998 7.72048681640625 1.0274999999999996 L 7.72048681640625 0.6974999999999998 L 7.36948681640625 0.06299999999999972 Q 7.36798681640625 0.058499999999999774 7.36648681640625 0.05474999999999963 Q 7.36498681640625 0.05099999999999971 7.36498681640625 0.046499999999999764 Q 7.36498681640625 0.03449999999999975 7.37473681640625 0.024749999999999606 Q 7.38448681640625 0.01499999999999968 7.39648681640625 0.01499999999999968 L 7.55548681640625 0.01499999999999968 Q 7.57648681640625 0.01499999999999968 7.58848681640625 0.025499999999999634 Q 7.60048681640625 0.03599999999999981 7.60498681640625 0.04499999999999971 L 7.84048681640625 0.4574999999999997 L 8.07598681640625 0.04499999999999971 Q 8.08048681640625 0.03599999999999981 8.09248681640625 0.025499999999999634 Q 8.10448681640625 0.01499999999999968 8.12548681640625 0.01499999999999968 L 8.28448681640625 0.01499999999999968 Q 8.29648681640625 0.01499999999999968 8.30623681640625 0.024749999999999606 Q 8.31598681640625 0.03449999999999975 8.31598681640625 0.046499999999999764 Q 8.31598681640625 0.05099999999999971 8.31448681640625 0.05474999999999963 Q 8.31298681640625 0.058499999999999774 8.31148681640625 0.06299999999999972 L 7.96048681640625 0.6974999999999998 L 7.96048681640625 1.0274999999999996 Q 7.96048681640625 1.0439999999999998 7.94998681640625 1.0544999999999998 Q 7.93948681640625 1.0649999999999997 7.92298681640625 1.0649999999999997 L 7.75798681640625 1.0649999999999997" fill="#000000" fill-rule="nonzero"></path></g><g><path d=" M 0.234 1.9623749999999998 Q 0.16875 1.9623749999999998 0.1245 1.9421249999999997 Q 0.08025 1.9218749999999998 0.056625 1.8899999999999997 Q 0.033 1.8581249999999998 0.0315 1.8228749999999998 Q 0.0315 1.8168749999999996 0.036375 1.8119999999999996 Q 0.04125 1.8071249999999996 0.048 1.8071249999999996 L 0.08625000000000001 1.8071249999999996 Q 0.09525 1.8071249999999996 0.09975 1.8116249999999996 Q 0.10425 1.8161249999999998 0.10575 1.8221249999999998 Q 0.11025 1.8401249999999998 0.1245 1.8577499999999998 Q 0.13875 1.8753749999999998 0.165375 1.8869999999999998 Q 0.192 1.8986249999999998 0.234 1.8986249999999998 Q 0.2985 1.8986249999999998 0.32887500000000003 1.8757499999999996 Q 0.35925 1.8528749999999996 0.35925 1.8146249999999997 Q 0.35925 1.7883749999999996 0.343125 1.7722499999999997 Q 0.327 1.7561249999999997 0.294 1.7433749999999997 Q 0.261 1.7306249999999996 0.2085 1.7156249999999997 Q 0.15375 1.6998749999999996 0.11775000000000001 1.6811249999999998 Q 0.08175 1.6623749999999997 0.064125 1.6346249999999998 Q 0.0465 1.6068749999999996 0.0465 1.5641249999999998 Q 0.0465 1.5236249999999996 0.06825 1.4917499999999997 Q 0.09 1.4598749999999998 0.13125 1.4411249999999995 Q 0.17250000000000001 1.4223749999999997 0.23025 1.4223749999999997 Q 0.27675 1.4223749999999997 0.311625 1.4347499999999997 Q 0.34650000000000003 1.4471249999999998 0.36975 1.4677499999999997 Q 0.393 1.4883749999999996 0.405 1.5119999999999996 Q 0.417 1.5356249999999996 0.41775 1.5581249999999998 Q 0.41775 1.5633749999999997 0.41400000000000003 1.5682499999999997 Q 0.41025 1.5731249999999997 0.402 1.5731249999999997 L 0.36225 1.5731249999999997 Q 0.357 1.5731249999999997 0.351375 1.5701249999999998 Q 0.34575 1.5671249999999997 0.34275 1.5588749999999996 Q 0.33825 1.5281249999999997 0.30825 1.5071249999999996 Q 0.27825 1.4861249999999997 0.23025 1.4861249999999997 Q 0.1815 1.4861249999999997 0.151125 1.5048749999999997 Q 0.12075 1.5236249999999996 0.12075 1.5633749999999997 Q 0.12075 1.5888749999999998 0.135 1.6057499999999996 Q 0.14925 1.6226249999999998 0.18 1.6353749999999998 Q 0.21075 1.6481249999999996 0.26025 1.6623749999999997 Q 0.32025 1.6788749999999997 0.3585 1.6972499999999997 Q 0.39675 1.7156249999999997 0.415125 1.7429999999999997 Q 0.4335 1.7703749999999996 0.4335 1.8131249999999997 Q 0.4335 1.8603749999999997 0.40875 1.8937499999999996 Q 0.384 1.9271249999999998 0.339375 1.9447499999999998 Q 0.29475 1.9623749999999998 0.234 1.9623749999999998 M 0.6716136474609374 1.9548749999999997 Q 0.6641136474609375 1.9548749999999997 0.6592386474609374 1.9499999999999997 Q 0.6543636474609374 1.9451249999999998 0.6543636474609374 1.9376249999999997 L 0.6543636474609374 1.7606249999999997 L 0.4736136474609374 1.4546249999999996 Q 0.47286364746093745 1.4523749999999995 0.4721136474609374 1.4501249999999997 Q 0.47136364746093745 1.4478749999999998 0.47136364746093745 1.4448749999999997 Q 0.47136364746093745 1.4388749999999997 0.47586364746093746 1.4343749999999997 Q 0.4803636474609374 1.4298749999999996 0.4863636474609374 1.4298749999999996 L 0.5253636474609374 1.4298749999999996 Q 0.5321136474609375 1.4298749999999996 0.5373636474609375 1.4332499999999997 Q 0.5426136474609374 1.4366249999999998 0.5448636474609374 1.4426249999999996 L 0.6911136474609374 1.6856249999999997 L 0.8373636474609374 1.4426249999999996 Q 0.8411136474609374 1.4366249999999998 0.8459886474609375 1.4332499999999997 Q 0.8508636474609375 1.4298749999999996 0.8576136474609375 1.4298749999999996 L 0.8958636474609374 1.4298749999999996 Q 0.9026136474609374 1.4298749999999996 0.9071136474609374 1.4343749999999997 Q 0.9116136474609374 1.4388749999999997 0.9116136474609374 1.4448749999999997 Q 0.9116136474609374 1.4478749999999998 0.9108636474609375 1.4501249999999997 Q 0.9101136474609375 1.4523749999999995 0.9086136474609374 1.4546249999999996 L 0.7286136474609375 1.7606249999999997 L 0.7286136474609375 1.9376249999999997 Q 0.7286136474609375 1.9451249999999998 0.7237386474609374 1.9499999999999997 Q 0.7188636474609374 1.9548749999999997 0.7106136474609375 1.9548749999999997 L 0.6716136474609374 1.9548749999999997 M 1.0177181396484374 1.9548749999999997 Q 1.0094681396484373 1.9548749999999997 1.0049681396484373 1.9499999999999997 Q 1.0004681396484374 1.9451249999999998 1.0004681396484374 1.9376249999999997 L 1.0004681396484374 1.4478749999999998 Q 1.0004681396484374 1.4396249999999997 1.0049681396484373 1.4347499999999997 Q 1.0094681396484373 1.4298749999999996 1.0177181396484374 1.4298749999999996 L 1.0522181396484374 1.4298749999999996 Q 1.0612181396484375 1.4298749999999996 1.0657181396484374 1.4339999999999997 Q 1.0702181396484374 1.4381249999999997 1.0709681396484374 1.4403749999999997 L 1.3199681396484373 1.8228749999999998 L 1.3199681396484373 1.4478749999999998 Q 1.3199681396484373 1.4396249999999997 1.3244681396484372 1.4347499999999997 Q 1.3289681396484374 1.4298749999999996 1.3372181396484373 1.4298749999999996 L 1.3732181396484373 1.4298749999999996 Q 1.3814681396484374 1.4298749999999996 1.3863431396484374 1.4347499999999997 Q 1.3912181396484373 1.4396249999999997 1.3912181396484373 1.4478749999999998 L 1.3912181396484373 1.9368749999999997 Q 1.3912181396484373 1.9443749999999997 1.3863431396484374 1.9496249999999997 Q 1.3814681396484374 1.9548749999999997 1.3739681396484373 1.9548749999999997 L 1.3379681396484373 1.9548749999999997 Q 1.3297181396484374 1.9548749999999997 1.3255931396484373 1.9503749999999997 Q 1.3214681396484373 1.9458749999999998 1.3199681396484373 1.9443749999999997 L 1.0717181396484374 1.5656249999999998 L 1.0717181396484374 1.9376249999999997 Q 1.0717181396484374 1.9451249999999998 1.0668431396484372 1.9499999999999997 Q 1.0619681396484373 1.9548749999999997 1.0537181396484374 1.9548749999999997 L 1.0177181396484374 1.9548749999999997 M 1.7118486328124998 1.9623749999999998 Q 1.6428486328124996 1.9623749999999998 1.5974736328124997 1.9368749999999997 Q 1.5520986328124997 1.9113749999999996 1.5288486328124997 1.8656249999999996 Q 1.5055986328124997 1.8198749999999997 1.5033486328124996 1.7591249999999996 Q 1.5025986328124996 1.7283749999999998 1.5025986328124996 1.6931249999999998 Q 1.5025986328124996 1.6578749999999998 1.5033486328124996 1.6256249999999997 Q 1.5055986328124997 1.5648749999999998 1.5288486328124997 1.5191249999999996 Q 1.5520986328124997 1.4733749999999997 1.5974736328124997 1.4478749999999998 Q 1.6428486328124996 1.4223749999999997 1.7118486328124998 1.4223749999999997 Q 1.7635986328124997 1.4223749999999997 1.8025986328124997 1.4366249999999998 Q 1.8415986328124996 1.4508749999999997 1.8674736328124997 1.4748749999999997 Q 1.8933486328124998 1.4988749999999997 1.9068486328124996 1.5284999999999997 Q 1.9203486328124997 1.5581249999999998 1.9218486328124997 1.5896249999999996 Q 1.9225986328124998 1.5963749999999997 1.9177236328124998 1.6008749999999998 Q 1.9128486328124996 1.6053749999999996 1.9060986328124998 1.6053749999999996 L 1.8648486328124996 1.6053749999999996 Q 1.8580986328124998 1.6053749999999996 1.8532236328124996 1.6016249999999996 Q 1.8483486328124996 1.5978749999999997 1.8460986328124998 1.5881249999999998 Q 1.8333486328124997 1.5296249999999998 1.7984736328124997 1.5078749999999996 Q 1.7635986328124997 1.4861249999999997 1.7118486328124998 1.4861249999999997 Q 1.6510986328124997 1.4861249999999997 1.6158486328124997 1.5202499999999997 Q 1.5805986328124997 1.5543749999999996 1.5783486328124996 1.6293749999999996 Q 1.5760986328124997 1.6908749999999997 1.5783486328124996 1.7553749999999997 Q 1.5805986328124997 1.8303749999999996 1.6158486328124997 1.8644999999999996 Q 1.6510986328124997 1.8986249999999998 1.7118486328124998 1.8986249999999998 Q 1.7635986328124997 1.8986249999999998 1.7984736328124997 1.8768749999999996 Q 1.8333486328124997 1.8551249999999997 1.8460986328124998 1.7966249999999997 Q 1.8483486328124996 1.7868749999999998 1.8532236328124996 1.7831249999999996 Q 1.8580986328124998 1.7793749999999997 1.8648486328124996 1.7793749999999997 L 1.9060986328124998 1.7793749999999997 Q 1.9128486328124996 1.7793749999999997 1.9177236328124998 1.7834999999999996 Q 1.9225986328124998 1.7876249999999998 1.9218486328124997 1.7943749999999996 Q 1.9203486328124997 1.8258749999999997 1.9068486328124996 1.8558749999999997 Q 1.8933486328124998 1.8858749999999997 1.8674736328124997 1.9098749999999998 Q 1.8415986328124996 1.9338749999999998 1.8025986328124997 1.9481249999999997 Q 1.7635986328124997 1.9623749999999998 1.7118486328124998 1.9623749999999998 M 2.015984985351562 1.9548749999999997 Q 2.0084849853515623 1.9548749999999997 2.003609985351562 1.9499999999999997 Q 1.9987349853515621 1.9451249999999998 1.9987349853515621 1.9376249999999997 L 1.9987349853515621 1.8836249999999997 Q 1.9987349853515621 1.8761249999999996 2.003609985351562 1.8712499999999996 Q 2.0084849853515623 1.8663749999999997 2.015984985351562 1.8663749999999997 L 2.0699849853515624 1.8663749999999997 Q 2.0774849853515622 1.8663749999999997 2.0827349853515624 1.8712499999999996 Q 2.087984985351562 1.8761249999999996 2.087984985351562 1.8836249999999997 L 2.087984985351562 1.9376249999999997 Q 2.087984985351562 1.9451249999999998 2.0827349853515624 1.9499999999999997 Q 2.0774849853515622 1.9548749999999997 2.0699849853515624 1.9548749999999997 L 2.015984985351562 1.9548749999999997 M 2.5777419433593747 1.9623749999999998 Q 2.5087419433593747 1.9623749999999998 2.463366943359375 1.9368749999999997 Q 2.417991943359375 1.9113749999999996 2.394741943359375 1.8656249999999996 Q 2.371491943359375 1.8198749999999997 2.3692419433593748 1.7591249999999996 Q 2.3684919433593747 1.7283749999999998 2.3684919433593747 1.6931249999999998 Q 2.3684919433593747 1.6578749999999998 2.3692419433593748 1.6256249999999997 Q 2.371491943359375 1.5648749999999998 2.394741943359375 1.5191249999999996 Q 2.417991943359375 1.4733749999999997 2.463366943359375 1.4478749999999998 Q 2.5087419433593747 1.4223749999999997 2.5777419433593747 1.4223749999999997 Q 2.629491943359375 1.4223749999999997 2.668491943359375 1.4366249999999998 Q 2.7074919433593747 1.4508749999999997 2.733366943359375 1.4748749999999997 Q 2.759241943359375 1.4988749999999997 2.772741943359375 1.5284999999999997 Q 2.786241943359375 1.5581249999999998 2.7877419433593746 1.5896249999999996 Q 2.7884919433593747 1.5963749999999997 2.783616943359375 1.6008749999999998 Q 2.7787419433593747 1.6053749999999996 2.771991943359375 1.6053749999999996 L 2.7307419433593747 1.6053749999999996 Q 2.723991943359375 1.6053749999999996 2.7191169433593747 1.6016249999999996 Q 2.714241943359375 1.5978749999999997 2.711991943359375 1.5881249999999998 Q 2.699241943359375 1.5296249999999998 2.664366943359375 1.5078749999999996 Q 2.629491943359375 1.4861249999999997 2.5777419433593747 1.4861249999999997 Q 2.5169919433593746 1.4861249999999997 2.481741943359375 1.5202499999999997 Q 2.4464919433593746 1.5543749999999996 2.444241943359375 1.6293749999999996 Q 2.441991943359375 1.6908749999999997 2.444241943359375 1.7553749999999997 Q 2.4464919433593746 1.8303749999999996 2.481741943359375 1.8644999999999996 Q 2.5169919433593746 1.8986249999999998 2.5777419433593747 1.8986249999999998 Q 2.629491943359375 1.8986249999999998 2.664366943359375 1.8768749999999996 Q 2.699241943359375 1.8551249999999997 2.711991943359375 1.7966249999999997 Q 2.714241943359375 1.7868749999999998 2.7191169433593747 1.7831249999999996 Q 2.723991943359375 1.7793749999999997 2.7307419433593747 1.7793749999999997 L 2.771991943359375 1.7793749999999997 Q 2.7787419433593747 1.7793749999999997 2.783616943359375 1.7834999999999996 Q 2.7884919433593747 1.7876249999999998 2.7877419433593746 1.7943749999999996 Q 2.786241943359375 1.8258749999999997 2.772741943359375 1.8558749999999997 Q 2.759241943359375 1.8858749999999997 2.733366943359375 1.9098749999999998 Q 2.7074919433593747 1.9338749999999998 2.668491943359375 1.9481249999999997 Q 2.629491943359375 1.9623749999999998 2.5777419433593747 1.9623749999999998 M 3.0783786621093747 1.9623749999999998 Q 3.013878662109375 1.9623749999999998 2.968128662109375 1.9402499999999996 Q 2.922378662109375 1.9181249999999996 2.897628662109375 1.8719999999999997 Q 2.872878662109375 1.8258749999999997 2.869878662109375 1.7561249999999997 Q 2.869128662109375 1.7231249999999996 2.869128662109375 1.6927499999999998 Q 2.869128662109375 1.6623749999999997 2.869878662109375 1.6293749999999996 Q 2.872878662109375 1.5603749999999996 2.898753662109375 1.5142499999999997 Q 2.9246286621093747 1.4681249999999997 2.9707536621093746 1.4452499999999997 Q 3.016878662109375 1.4223749999999997 3.0783786621093747 1.4223749999999997 Q 3.139128662109375 1.4223749999999997 3.1852536621093748 1.4452499999999997 Q 3.2313786621093747 1.4681249999999997 3.257628662109375 1.5142499999999997 Q 3.283878662109375 1.5603749999999996 3.286128662109375 1.6293749999999996 Q 3.287628662109375 1.6623749999999997 3.287628662109375 1.6927499999999998 Q 3.287628662109375 1.7231249999999996 3.286128662109375 1.7561249999999997 Q 3.283878662109375 1.8258749999999997 3.258753662109375 1.8719999999999997 Q 3.233628662109375 1.9181249999999996 3.187878662109375 1.9402499999999996 Q 3.142128662109375 1.9623749999999998 3.0783786621093747 1.9623749999999998 M 3.0783786621093747 1.8986249999999998 Q 3.1353786621093747 1.8986249999999998 3.1717536621093747 1.8641249999999996 Q 3.2081286621093748 1.8296249999999996 3.211128662109375 1.7523749999999998 Q 3.212628662109375 1.7186249999999996 3.212628662109375 1.6919999999999997 Q 3.212628662109375 1.6653749999999996 3.211128662109375 1.6323749999999997 Q 3.209628662109375 1.5806249999999997 3.192003662109375 1.5483749999999996 Q 3.174378662109375 1.5161249999999997 3.145128662109375 1.5011249999999996 Q 3.115878662109375 1.4861249999999997 3.0783786621093747 1.4861249999999997 Q 3.0408786621093746 1.4861249999999997 3.011628662109375 1.5011249999999996 Q 2.982378662109375 1.5161249999999997 2.964753662109375 1.5483749999999996 Q 2.9471286621093746 1.5806249999999997 2.944878662109375 1.6323749999999997 Q 2.944128662109375 1.6653749999999996 2.944128662109375 1.6919999999999997 Q 2.944128662109375 1.7186249999999996 2.944878662109375 1.7523749999999998 Q 2.9478786621093747 1.8296249999999996 2.9846286621093747 1.8641249999999996 Q 3.021378662109375 1.8986249999999998 3.0783786621093747 1.8986249999999998 M 3.415505126953125 1.9548749999999997 Q 3.407255126953125 1.9548749999999997 3.402755126953125 1.9499999999999997 Q 3.3982551269531247 1.9451249999999998 3.3982551269531247 1.9376249999999997 L 3.3982551269531247 1.4471249999999998 Q 3.3982551269531247 1.4396249999999997 3.402755126953125 1.4347499999999997 Q 3.407255126953125 1.4298749999999996 3.415505126953125 1.4298749999999996 L 3.455255126953125 1.4298749999999996 Q 3.462755126953125 1.4298749999999996 3.467630126953125 1.4347499999999997 Q 3.472505126953125 1.4396249999999997 3.472505126953125 1.4471249999999998 L 3.472505126953125 1.8896249999999997 L 3.721505126953125 1.8896249999999997 Q 3.729755126953125 1.8896249999999997 3.734630126953125 1.8944999999999996 Q 3.7395051269531248 1.8993749999999996 3.7395051269531248 1.9076249999999997 L 3.7395051269531248 1.9376249999999997 Q 3.7395051269531248 1.9451249999999998 3.734630126953125 1.9499999999999997 Q 3.729755126953125 1.9548749999999997 3.721505126953125 1.9548749999999997 L 3.415505126953125 1.9548749999999997 M 3.838871337890625 1.9548749999999997 Q 3.830621337890625 1.9548749999999997 3.826121337890625 1.9499999999999997 Q 3.8216213378906247 1.9451249999999998 3.8216213378906247 1.9376249999999997 L 3.8216213378906247 1.4471249999999998 Q 3.8216213378906247 1.4396249999999997 3.826121337890625 1.4347499999999997 Q 3.830621337890625 1.4298749999999996 3.838871337890625 1.4298749999999996 L 3.878621337890625 1.4298749999999996 Q 3.886121337890625 1.4298749999999996 3.890996337890625 1.4347499999999997 Q 3.895871337890625 1.4396249999999997 3.895871337890625 1.4471249999999998 L 3.895871337890625 1.8896249999999997 L 4.144871337890625 1.8896249999999997 Q 4.153121337890625 1.8896249999999997 4.157996337890625 1.8944999999999996 Q 4.162871337890625 1.8993749999999996 4.162871337890625 1.9076249999999997 L 4.162871337890625 1.9376249999999997 Q 4.162871337890625 1.9451249999999998 4.157996337890625 1.9499999999999997 Q 4.153121337890625 1.9548749999999997 4.144871337890625 1.9548749999999997 L 3.838871337890625 1.9548749999999997 M 4.209737548828125 1.9548749999999997 Q 4.203737548828125 1.9548749999999997 4.199237548828124 1.9503749999999997 Q 4.194737548828124 1.9458749999999998 4.194737548828124 1.9398749999999998 Q 4.194737548828124 1.9361249999999997 4.195487548828124 1.9316249999999997 L 4.381487548828124 1.4463749999999997 Q 4.384487548828124 1.4388749999999997 4.3897375488281245 1.4343749999999997 Q 4.394987548828125 1.4298749999999996 4.405487548828124 1.4298749999999996 L 4.456487548828124 1.4298749999999996 Q 4.466987548828125 1.4298749999999996 4.472237548828124 1.4343749999999997 Q 4.477487548828124 1.4388749999999997 4.480487548828124 1.4463749999999997 L 4.665737548828124 1.9316249999999997 Q 4.667237548828124 1.9361249999999997 4.667237548828124 1.9398749999999998 Q 4.667237548828124 1.9458749999999998 4.662737548828124 1.9503749999999997 Q 4.658237548828125 1.9548749999999997 4.652237548828125 1.9548749999999997 L 4.613987548828124 1.9548749999999997 Q 4.604987548828125 1.9548749999999997 4.6008625488281245 1.9503749999999997 Q 4.596737548828124 1.9458749999999998 4.595237548828124 1.9421249999999997 L 4.5539875488281245 1.8356249999999996 L 4.307987548828125 1.8356249999999996 L 4.266737548828124 1.9421249999999997 Q 4.265987548828124 1.9458749999999998 4.261487548828125 1.9503749999999997 Q 4.256987548828125 1.9548749999999997 4.2479875488281245 1.9548749999999997 L 4.209737548828125 1.9548749999999997 M 4.329737548828125 1.7711249999999996 L 4.532237548828125 1.7711249999999996 L 4.430987548828124 1.5048749999999997 L 4.329737548828125 1.7711249999999996 M 4.765849731445312 1.9548749999999997 Q 4.757599731445312 1.9548749999999997 4.753099731445312 1.9499999999999997 Q 4.748599731445312 1.9451249999999998 4.748599731445312 1.9376249999999997 L 4.748599731445312 1.4478749999999998 Q 4.748599731445312 1.4396249999999997 4.753099731445312 1.4347499999999997 Q 4.757599731445312 1.4298749999999996 4.765849731445312 1.4298749999999996 L 4.971349731445312 1.4298749999999996 Q 5.027599731445312 1.4298749999999996 5.063224731445312 1.4482499999999998 Q 5.098849731445312 1.4666249999999996 5.1157247314453125 1.4981249999999997 Q 5.132599731445312 1.5296249999999998 5.132599731445312 1.5686249999999997 Q 5.132599731445312 1.5993749999999998 5.122474731445312 1.6214999999999997 Q 5.112349731445312 1.6436249999999997 5.097349731445312 1.6574999999999998 Q 5.082349731445312 1.6713749999999996 5.0680997314453125 1.6788749999999997 Q 5.097349731445312 1.6931249999999998 5.120224731445312 1.7253749999999997 Q 5.143099731445312 1.7576249999999998 5.143099731445312 1.8033749999999997 Q 5.143099731445312 1.8446249999999997 5.124349731445312 1.8791249999999997 Q 5.105599731445312 1.9136249999999997 5.0684747314453125 1.9342499999999998 Q 5.031349731445312 1.9548749999999997 4.977349731445312 1.9548749999999997 L 4.765849731445312 1.9548749999999997 M 4.822099731445312 1.8941249999999996 L 4.967599731445312 1.8941249999999996 Q 5.015599731445312 1.8941249999999996 5.041849731445312 1.8678749999999997 Q 5.0680997314453125 1.8416249999999996 5.0680997314453125 1.8033749999999997 Q 5.0680997314453125 1.7636249999999998 5.041849731445312 1.7377499999999997 Q 5.015599731445312 1.7118749999999996 4.967599731445312 1.7118749999999996 L 4.822099731445312 1.7118749999999996 L 4.822099731445312 1.8941249999999996 M 4.822099731445312 1.6518749999999998 L 4.960099731445312 1.6518749999999998 Q 5.008099731445312 1.6518749999999998 5.032849731445312 1.6297499999999996 Q 5.057599731445312 1.6076249999999996 5.057599731445312 1.5693749999999997 Q 5.057599731445312 1.5311249999999996 5.032849731445312 1.5108749999999997 Q 5.008099731445312 1.4906249999999996 4.960099731445312 1.4906249999999996 L 4.822099731445312 1.4906249999999996 L 4.822099731445312 1.6518749999999998 M 5.4397470703124995 1.9623749999999998 Q 5.3752470703125 1.9623749999999998 5.3294970703125 1.9402499999999996 Q 5.2837470703125 1.9181249999999996 5.2589970703125 1.8719999999999997 Q 5.2342470703125 1.8258749999999997 5.2312470703125 1.7561249999999997 Q 5.2304970703124996 1.7231249999999996 5.2304970703124996 1.6927499999999998 Q 5.2304970703124996 1.6623749999999997 5.2312470703125 1.6293749999999996 Q 5.2342470703125 1.5603749999999996 5.2601220703125 1.5142499999999997 Q 5.2859970703125 1.4681249999999997 5.3321220703125 1.4452499999999997 Q 5.3782470703125 1.4223749999999997 5.4397470703124995 1.4223749999999997 Q 5.5004970703125 1.4223749999999997 5.5466220703125 1.4452499999999997 Q 5.5927470703125 1.4681249999999997 5.618997070312499 1.5142499999999997 Q 5.645247070312499 1.5603749999999996 5.647497070312499 1.6293749999999996 Q 5.648997070312499 1.6623749999999997 5.648997070312499 1.6927499999999998 Q 5.648997070312499 1.7231249999999996 5.647497070312499 1.7561249999999997 Q 5.645247070312499 1.8258749999999997 5.620122070312499 1.8719999999999997 Q 5.5949970703125 1.9181249999999996 5.5492470703125 1.9402499999999996 Q 5.503497070312499 1.9623749999999998 5.4397470703124995 1.9623749999999998 M 5.4397470703124995 1.8986249999999998 Q 5.4967470703125 1.8986249999999998 5.5331220703124995 1.8641249999999996 Q 5.5694970703125 1.8296249999999996 5.572497070312499 1.7523749999999998 Q 5.573997070312499 1.7186249999999996 5.573997070312499 1.6919999999999997 Q 5.573997070312499 1.6653749999999996 5.572497070312499 1.6323749999999997 Q 5.5709970703125 1.5806249999999997 5.553372070312499 1.5483749999999996 Q 5.5357470703125 1.5161249999999997 5.506497070312499 1.5011249999999996 Q 5.4772470703125 1.4861249999999997 5.4397470703124995 1.4861249999999997 Q 5.4022470703125 1.4861249999999997 5.3729970703125 1.5011249999999996 Q 5.343747070312499 1.5161249999999997 5.3261220703125 1.5483749999999996 Q 5.3084970703125 1.5806249999999997 5.3062470703125 1.6323749999999997 Q 5.3054970703125 1.6653749999999996 5.3054970703125 1.6919999999999997 Q 5.3054970703125 1.7186249999999996 5.3062470703125 1.7523749999999998 Q 5.3092470703125 1.8296249999999996 5.3459970703124995 1.8641249999999996 Q 5.3827470703125 1.8986249999999998 5.4397470703124995 1.8986249999999998 M 5.776873535156249 1.9548749999999997 Q 5.76862353515625 1.9548749999999997 5.76412353515625 1.9499999999999997 Q 5.7596235351562495 1.9451249999999998 5.7596235351562495 1.9376249999999997 L 5.7596235351562495 1.4478749999999998 Q 5.7596235351562495 1.4396249999999997 5.76412353515625 1.4347499999999997 Q 5.76862353515625 1.4298749999999996 5.776873535156249 1.4298749999999996 L 5.95987353515625 1.4298749999999996 Q 6.04462353515625 1.4298749999999996 6.09412353515625 1.4696249999999997 Q 6.14362353515625 1.5093749999999997 6.14362353515625 1.5873749999999998 Q 6.14362353515625 1.6451249999999997 6.11474853515625 1.6814999999999998 Q 6.085873535156249 1.7178749999999996 6.036373535156249 1.7321249999999997 L 6.15187353515625 1.9316249999999997 Q 6.154123535156249 1.9361249999999997 6.154123535156249 1.9398749999999998 Q 6.154123535156249 1.9458749999999998 6.14924853515625 1.9503749999999997 Q 6.14437353515625 1.9548749999999997 6.13837353515625 1.9548749999999997 L 6.10237353515625 1.9548749999999997 Q 6.0896235351562495 1.9548749999999997 6.083623535156249 1.9481249999999997 Q 6.07762353515625 1.9413749999999996 6.07312353515625 1.9346249999999996 L 5.96437353515625 1.7441249999999997 L 5.83312353515625 1.7441249999999997 L 5.83312353515625 1.9376249999999997 Q 5.83312353515625 1.9451249999999998 5.828248535156249 1.9499999999999997 Q 5.82337353515625 1.9548749999999997 5.81512353515625 1.9548749999999997 L 5.776873535156249 1.9548749999999997 M 5.83312353515625 1.6803749999999997 L 5.95687353515625 1.6803749999999997 Q 6.013123535156249 1.6803749999999997 6.0408735351562495 1.6567499999999997 Q 6.06862353515625 1.6331249999999997 6.06862353515625 1.5866249999999997 Q 6.06862353515625 1.5408749999999998 6.0412485351562495 1.5168749999999998 Q 6.013873535156249 1.4928749999999997 5.95687353515625 1.4928749999999997 L 5.83312353515625 1.4928749999999997 L 5.83312353515625 1.6803749999999997 M 6.2167705078125 1.9548749999999997 Q 6.2107705078125 1.9548749999999997 6.2062705078125 1.9503749999999997 Q 6.201770507812499 1.9458749999999998 6.201770507812499 1.9398749999999998 Q 6.201770507812499 1.9361249999999997 6.202520507812499 1.9316249999999997 L 6.388520507812499 1.4463749999999997 Q 6.3915205078124995 1.4388749999999997 6.3967705078125 1.4343749999999997 Q 6.4020205078125 1.4298749999999996 6.412520507812499 1.4298749999999996 L 6.4635205078124995 1.4298749999999996 Q 6.4740205078125 1.4298749999999996 6.479270507812499 1.4343749999999997 Q 6.4845205078124994 1.4388749999999997 6.4875205078125 1.4463749999999997 L 6.6727705078124995 1.9316249999999997 Q 6.6742705078124995 1.9361249999999997 6.6742705078124995 1.9398749999999998 Q 6.6742705078124995 1.9458749999999998 6.669770507812499 1.9503749999999997 Q 6.6652705078125 1.9548749999999997 6.6592705078125 1.9548749999999997 L 6.621020507812499 1.9548749999999997 Q 6.6120205078125 1.9548749999999997 6.6078955078125 1.9503749999999997 Q 6.6037705078124995 1.9458749999999998 6.6022705078124995 1.9421249999999997 L 6.5610205078125 1.8356249999999996 L 6.3150205078125 1.8356249999999996 L 6.2737705078124995 1.9421249999999997 Q 6.273020507812499 1.9458749999999998 6.2685205078125 1.9503749999999997 Q 6.2640205078125 1.9548749999999997 6.2550205078125 1.9548749999999997 L 6.2167705078125 1.9548749999999997 M 6.3367705078125 1.7711249999999996 L 6.5392705078125 1.7711249999999996 L 6.4380205078124995 1.5048749999999997 L 6.3367705078125 1.7711249999999996 M 6.832151733398438 1.9548749999999997 Q 6.824651733398437 1.9548749999999997 6.819776733398437 1.9499999999999997 Q 6.814901733398437 1.9451249999999998 6.814901733398437 1.9376249999999997 L 6.814901733398437 1.4966249999999997 L 6.670901733398437 1.4966249999999997 Q 6.663401733398437 1.4966249999999997 6.658526733398437 1.4917499999999997 Q 6.653651733398437 1.4868749999999997 6.653651733398437 1.4793749999999997 L 6.653651733398437 1.4478749999999998 Q 6.653651733398437 1.4396249999999997 6.658526733398437 1.4347499999999997 Q 6.663401733398437 1.4298749999999996 6.670901733398437 1.4298749999999996 L 7.032401733398437 1.4298749999999996 Q 7.0406517333984375 1.4298749999999996 7.045526733398438 1.4347499999999997 Q 7.050401733398437 1.4396249999999997 7.050401733398437 1.4478749999999998 L 7.050401733398437 1.4793749999999997 Q 7.050401733398437 1.4868749999999997 7.045526733398438 1.4917499999999997 Q 7.0406517333984375 1.4966249999999997 7.032401733398437 1.4966249999999997 L 6.889151733398437 1.4966249999999997 L 6.889151733398437 1.9376249999999997 Q 6.889151733398437 1.9451249999999998 6.884276733398437 1.9499999999999997 Q 6.879401733398438 1.9548749999999997 6.871151733398437 1.9548749999999997 L 6.832151733398438 1.9548749999999997 M 7.152761352539062 1.9548749999999997 Q 7.144511352539062 1.9548749999999997 7.140011352539062 1.9499999999999997 Q 7.135511352539062 1.9451249999999998 7.135511352539062 1.9376249999999997 L 7.135511352539062 1.4478749999999998 Q 7.135511352539062 1.4396249999999997 7.140011352539062 1.4347499999999997 Q 7.144511352539062 1.4298749999999996 7.152761352539062 1.4298749999999996 L 7.462511352539062 1.4298749999999996 Q 7.470761352539062 1.4298749999999996 7.4752613525390625 1.4347499999999997 Q 7.479761352539063 1.4396249999999997 7.479761352539063 1.4478749999999998 L 7.479761352539063 1.4763749999999995 Q 7.479761352539063 1.4846249999999996 7.4752613525390625 1.4891249999999996 Q 7.470761352539062 1.4936249999999998 7.462511352539062 1.4936249999999998 L 7.207511352539062 1.4936249999999998 L 7.207511352539062 1.6578749999999998 L 7.446011352539062 1.6578749999999998 Q 7.454261352539063 1.6578749999999998 7.458761352539062 1.6627499999999997 Q 7.463261352539062 1.6676249999999997 7.463261352539062 1.6758749999999996 L 7.463261352539062 1.7036249999999997 Q 7.463261352539062 1.7111249999999998 7.458761352539062 1.7159999999999997 Q 7.454261352539063 1.7208749999999997 7.446011352539062 1.7208749999999997 L 7.207511352539062 1.7208749999999997 L 7.207511352539062 1.8911249999999997 L 7.468511352539062 1.8911249999999997 Q 7.476761352539063 1.8911249999999997 7.481261352539063 1.8956249999999997 Q 7.485761352539062 1.9001249999999996 7.485761352539062 1.9083749999999997 L 7.485761352539062 1.9376249999999997 Q 7.485761352539062 1.9451249999999998 7.481261352539063 1.9499999999999997 Q 7.476761352539063 1.9548749999999997 7.468511352539062 1.9548749999999997 L 7.152761352539062 1.9548749999999997 M 7.59339990234375 1.9548749999999997 Q 7.5858999023437494 1.9548749999999997 7.58102490234375 1.9499999999999997 Q 7.57614990234375 1.9451249999999998 7.57614990234375 1.9376249999999997 L 7.57614990234375 1.8836249999999997 Q 7.57614990234375 1.8761249999999996 7.58102490234375 1.8712499999999996 Q 7.5858999023437494 1.8663749999999997 7.59339990234375 1.8663749999999997 L 7.64739990234375 1.8663749999999997 Q 7.65489990234375 1.8663749999999997 7.66014990234375 1.8712499999999996 Q 7.66539990234375 1.8761249999999996 7.66539990234375 1.8836249999999997 L 7.66539990234375 1.9376249999999997 Q 7.66539990234375 1.9451249999999998 7.66014990234375 1.9499999999999997 Q 7.65489990234375 1.9548749999999997 7.64739990234375 1.9548749999999997 L 7.59339990234375 1.9548749999999997 M 8.155156860351562 1.9623749999999998 Q 8.086156860351563 1.9623749999999998 8.040781860351563 1.9368749999999997 Q 7.9954068603515625 1.9113749999999996 7.9721568603515625 1.8656249999999996 Q 7.9489068603515625 1.8198749999999997 7.946656860351562 1.7591249999999996 Q 7.945906860351562 1.7283749999999998 7.945906860351562 1.6931249999999998 Q 7.945906860351562 1.6578749999999998 7.946656860351562 1.6256249999999997 Q 7.9489068603515625 1.5648749999999998 7.9721568603515625 1.5191249999999996 Q 7.9954068603515625 1.4733749999999997 8.040781860351563 1.4478749999999998 Q 8.086156860351563 1.4223749999999997 8.155156860351562 1.4223749999999997 Q 8.206906860351562 1.4223749999999997 8.245906860351562 1.4366249999999998 Q 8.284906860351562 1.4508749999999997 8.310781860351563 1.4748749999999997 Q 8.336656860351562 1.4988749999999997 8.350156860351563 1.5284999999999997 Q 8.363656860351563 1.5581249999999998 8.365156860351563 1.5896249999999996 Q 8.365906860351563 1.5963749999999997 8.361031860351563 1.6008749999999998 Q 8.356156860351563 1.6053749999999996 8.349406860351563 1.6053749999999996 L 8.308156860351563 1.6053749999999996 Q 8.301406860351562 1.6053749999999996 8.296531860351562 1.6016249999999996 Q 8.291656860351562 1.5978749999999997 8.289406860351562 1.5881249999999998 Q 8.276656860351562 1.5296249999999998 8.241781860351562 1.5078749999999996 Q 8.206906860351562 1.4861249999999997 8.155156860351562 1.4861249999999997 Q 8.094406860351562 1.4861249999999997 8.059156860351562 1.5202499999999997 Q 8.023906860351563 1.5543749999999996 8.021656860351563 1.6293749999999996 Q 8.019406860351562 1.6908749999999997 8.021656860351563 1.7553749999999997 Q 8.023906860351563 1.8303749999999996 8.059156860351562 1.8644999999999996 Q 8.094406860351562 1.8986249999999998 8.155156860351562 1.8986249999999998 Q 8.206906860351562 1.8986249999999998 8.241781860351562 1.8768749999999996 Q 8.276656860351562 1.8551249999999997 8.289406860351562 1.7966249999999997 Q 8.291656860351562 1.7868749999999998 8.296531860351562 1.7831249999999996 Q 8.301406860351562 1.7793749999999997 8.308156860351563 1.7793749999999997 L 8.349406860351563 1.7793749999999997 Q 8.356156860351563 1.7793749999999997 8.361031860351563 1.7834999999999996 Q 8.365906860351563 1.7876249999999998 8.365156860351563 1.7943749999999996 Q 8.363656860351563 1.8258749999999997 8.350156860351563 1.8558749999999997 Q 8.336656860351562 1.8858749999999997 8.310781860351563 1.9098749999999998 Q 8.284906860351562 1.9338749999999998 8.245906860351562 1.9481249999999997 Q 8.206906860351562 1.9623749999999998 8.155156860351562 1.9623749999999998 M 8.484043579101561 1.9548749999999997 Q 8.47579357910156 1.9548749999999997 8.471293579101562 1.9499999999999997 Q 8.466793579101562 1.9451249999999998 8.466793579101562 1.9376249999999997 L 8.466793579101562 1.4478749999999998 Q 8.466793579101562 1.4396249999999997 8.471293579101562 1.4347499999999997 Q 8.47579357910156 1.4298749999999996 8.484043579101561 1.4298749999999996 L 8.667043579101561 1.4298749999999996 Q 8.751793579101562 1.4298749999999996 8.80129357910156 1.4696249999999997 Q 8.85079357910156 1.5093749999999997 8.85079357910156 1.5873749999999998 Q 8.85079357910156 1.6451249999999997 8.821918579101562 1.6814999999999998 Q 8.793043579101562 1.7178749999999996 8.743543579101562 1.7321249999999997 L 8.859043579101561 1.9316249999999997 Q 8.861293579101561 1.9361249999999997 8.861293579101561 1.9398749999999998 Q 8.861293579101561 1.9458749999999998 8.856418579101561 1.9503749999999997 Q 8.85154357910156 1.9548749999999997 8.845543579101562 1.9548749999999997 L 8.809543579101561 1.9548749999999997 Q 8.796793579101562 1.9548749999999997 8.790793579101562 1.9481249999999997 Q 8.784793579101562 1.9413749999999996 8.780293579101562 1.9346249999999996 L 8.671543579101561 1.7441249999999997 L 8.540293579101562 1.7441249999999997 L 8.540293579101562 1.9376249999999997 Q 8.540293579101562 1.9451249999999998 8.535418579101561 1.9499999999999997 Q 8.530543579101561 1.9548749999999997 8.52229357910156 1.9548749999999997 L 8.484043579101561 1.9548749999999997 M 8.540293579101562 1.6803749999999997 L 8.66404357910156 1.6803749999999997 Q 8.720293579101561 1.6803749999999997 8.748043579101562 1.6567499999999997 Q 8.775793579101562 1.6331249999999997 8.775793579101562 1.5866249999999997 Q 8.775793579101562 1.5408749999999998 8.748418579101562 1.5168749999999998 Q 8.721043579101561 1.4928749999999997 8.66404357910156 1.4928749999999997 L 8.540293579101562 1.4928749999999997 L 8.540293579101562 1.6803749999999997 M 8.976440551757811 1.9548749999999997 Q 8.96819055175781 1.9548749999999997 8.963690551757812 1.9499999999999997 Q 8.959190551757812 1.9451249999999998 8.959190551757812 1.9376249999999997 L 8.959190551757812 1.4478749999999998 Q 8.959190551757812 1.4396249999999997 8.963690551757812 1.4347499999999997 Q 8.96819055175781 1.4298749999999996 8.976440551757811 1.4298749999999996 L 9.286190551757812 1.4298749999999996 Q 9.29444055175781 1.4298749999999996 9.298940551757811 1.4347499999999997 Q 9.303440551757811 1.4396249999999997 9.303440551757811 1.4478749999999998 L 9.303440551757811 1.4763749999999995 Q 9.303440551757811 1.4846249999999996 9.298940551757811 1.4891249999999996 Q 9.29444055175781 1.4936249999999998 9.286190551757812 1.4936249999999998 L 9.031190551757811 1.4936249999999998 L 9.031190551757811 1.6578749999999998 L 9.269690551757812 1.6578749999999998 Q 9.277940551757812 1.6578749999999998 9.282440551757812 1.6627499999999997 Q 9.286940551757812 1.6676249999999997 9.286940551757812 1.6758749999999996 L 9.286940551757812 1.7036249999999997 Q 9.286940551757812 1.7111249999999998 9.282440551757812 1.7159999999999997 Q 9.277940551757812 1.7208749999999997 9.269690551757812 1.7208749999999997 L 9.031190551757811 1.7208749999999997 L 9.031190551757811 1.8911249999999997 L 9.292190551757812 1.8911249999999997 Q 9.300440551757811 1.8911249999999997 9.304940551757811 1.8956249999999997 Q 9.309440551757811 1.9001249999999996 9.309440551757811 1.9083749999999997 L 9.309440551757811 1.9376249999999997 Q 9.309440551757811 1.9451249999999998 9.304940551757811 1.9499999999999997 Q 9.300440551757811 1.9548749999999997 9.292190551757812 1.9548749999999997 L 8.976440551757811 1.9548749999999997 M 9.379579101562499 1.9548749999999997 Q 9.373579101562498 1.9548749999999997 9.3690791015625 1.9503749999999997 Q 9.3645791015625 1.9458749999999998 9.3645791015625 1.9398749999999998 Q 9.3645791015625 1.9361249999999997 9.3653291015625 1.9316249999999997 L 9.5513291015625 1.4463749999999997 Q 9.5543291015625 1.4388749999999997 9.5595791015625 1.4343749999999997 Q 9.564829101562498 1.4298749999999996 9.575329101562499 1.4298749999999996 L 9.626329101562499 1.4298749999999996 Q 9.6368291015625 1.4298749999999996 9.6420791015625 1.4343749999999997 Q 9.6473291015625 1.4388749999999997 9.6503291015625 1.4463749999999997 L 9.8355791015625 1.9316249999999997 Q 9.8370791015625 1.9361249999999997 9.8370791015625 1.9398749999999998 Q 9.8370791015625 1.9458749999999998 9.8325791015625 1.9503749999999997 Q 9.8280791015625 1.9548749999999997 9.8220791015625 1.9548749999999997 L 9.7838291015625 1.9548749999999997 Q 9.7748291015625 1.9548749999999997 9.7707041015625 1.9503749999999997 Q 9.766579101562499 1.9458749999999998 9.765079101562499 1.9421249999999997 L 9.7238291015625 1.8356249999999996 L 9.477829101562499 1.8356249999999996 L 9.436579101562499 1.9421249999999997 Q 9.435829101562499 1.9458749999999998 9.431329101562499 1.9503749999999997 Q 9.426829101562499 1.9548749999999997 9.4178291015625 1.9548749999999997 L 9.379579101562499 1.9548749999999997 M 9.4995791015625 1.7711249999999996 L 9.702079101562498 1.7711249999999996 L 9.6008291015625 1.5048749999999997 L 9.4995791015625 1.7711249999999996 M 9.994960327148437 1.9548749999999997 Q 9.987460327148437 1.9548749999999997 9.982585327148437 1.9499999999999997 Q 9.977710327148436 1.9451249999999998 9.977710327148436 1.9376249999999997 L 9.977710327148436 1.4966249999999997 L 9.833710327148436 1.4966249999999997 Q 9.826210327148436 1.4966249999999997 9.821335327148436 1.4917499999999997 Q 9.816460327148437 1.4868749999999997 9.816460327148437 1.4793749999999997 L 9.816460327148437 1.4478749999999998 Q 9.816460327148437 1.4396249999999997 9.821335327148436 1.4347499999999997 Q 9.826210327148436 1.4298749999999996 9.833710327148436 1.4298749999999996 L 10.195210327148438 1.4298749999999996 Q 10.203460327148436 1.4298749999999996 10.208335327148436 1.4347499999999997 Q 10.213210327148436 1.4396249999999997 10.213210327148436 1.4478749999999998 L 10.213210327148436 1.4793749999999997 Q 10.213210327148436 1.4868749999999997 10.208335327148436 1.4917499999999997 Q 10.203460327148436 1.4966249999999997 10.195210327148438 1.4966249999999997 L 10.051960327148437 1.4966249999999997 L 10.051960327148437 1.9376249999999997 Q 10.051960327148437 1.9451249999999998 10.047085327148437 1.9499999999999997 Q 10.042210327148437 1.9548749999999997 10.033960327148437 1.9548749999999997 L 9.994960327148437 1.9548749999999997 M 10.315569946289061 1.9548749999999997 Q 10.307319946289061 1.9548749999999997 10.302819946289063 1.9499999999999997 Q 10.298319946289062 1.9451249999999998 10.298319946289062 1.9376249999999997 L 10.298319946289062 1.4478749999999998 Q 10.298319946289062 1.4396249999999997 10.302819946289063 1.4347499999999997 Q 10.307319946289061 1.4298749999999996 10.315569946289061 1.4298749999999996 L 10.625319946289062 1.4298749999999996 Q 10.633569946289061 1.4298749999999996 10.638069946289061 1.4347499999999997 Q 10.642569946289061 1.4396249999999997 10.642569946289061 1.4478749999999998 L 10.642569946289061 1.4763749999999995 Q 10.642569946289061 1.4846249999999996 10.638069946289061 1.4891249999999996 Q 10.633569946289061 1.4936249999999998 10.625319946289062 1.4936249999999998 L 10.370319946289062 1.4936249999999998 L 10.370319946289062 1.6578749999999998 L 10.608819946289062 1.6578749999999998 Q 10.617069946289062 1.6578749999999998 10.621569946289062 1.6627499999999997 Q 10.626069946289062 1.6676249999999997 10.626069946289062 1.6758749999999996 L 10.626069946289062 1.7036249999999997 Q 10.626069946289062 1.7111249999999998 10.621569946289062 1.7159999999999997 Q 10.617069946289062 1.7208749999999997 10.608819946289062 1.7208749999999997 L 10.370319946289062 1.7208749999999997 L 10.370319946289062 1.8911249999999997 L 10.63131994628906 1.8911249999999997 Q 10.639569946289061 1.8911249999999997 10.644069946289061 1.8956249999999997 Q 10.648569946289062 1.9001249999999996 10.648569946289062 1.9083749999999997 L 10.648569946289062 1.9376249999999997 Q 10.648569946289062 1.9451249999999998 10.644069946289061 1.9499999999999997 Q 10.639569946289061 1.9548749999999997 10.63131994628906 1.9548749999999997 L 10.315569946289061 1.9548749999999997 M 11.01533642578125 1.9548749999999997 Q 11.00558642578125 1.9548749999999997 10.99996142578125 1.9496249999999997 Q 10.994336425781249 1.9443749999999997 10.992086425781249 1.9346249999999996 L 10.895336425781249 1.4531249999999996 Q 10.894586425781249 1.4501249999999997 10.894586425781249 1.4478749999999998 Q 10.894586425781249 1.4456249999999997 10.894586425781249 1.4448749999999997 Q 10.894586425781249 1.4388749999999997 10.899086425781249 1.4343749999999997 Q 10.90358642578125 1.4298749999999996 10.90958642578125 1.4298749999999996 L 10.948586425781249 1.4298749999999996 Q 10.96433642578125 1.4298749999999996 10.96658642578125 1.4426249999999996 L 11.043086425781249 1.8296249999999996 L 11.124086425781249 1.5641249999999998 Q 11.126336425781249 1.5573749999999997 11.131961425781249 1.5517499999999997 Q 11.13758642578125 1.5461249999999997 11.14808642578125 1.5461249999999997 L 11.175836425781249 1.5461249999999997 Q 11.18708642578125 1.5461249999999997 11.19233642578125 1.5517499999999997 Q 11.19758642578125 1.5573749999999997 11.19908642578125 1.5641249999999998 L 11.28083642578125 1.8296249999999996 L 11.356586425781249 1.4426249999999996 Q 11.358836425781249 1.4298749999999996 11.37533642578125 1.4298749999999996 L 11.414336425781249 1.4298749999999996 Q 11.42033642578125 1.4298749999999996 11.42483642578125 1.4343749999999997 Q 11.42933642578125 1.4388749999999997 11.42933642578125 1.4448749999999997 Q 11.42933642578125 1.4456249999999997 11.42896142578125 1.4478749999999998 Q 11.42858642578125 1.4501249999999997 11.42858642578125 1.4531249999999996 L 11.33183642578125 1.9346249999999996 Q 11.32958642578125 1.9443749999999997 11.323961425781249 1.9496249999999997 Q 11.318336425781249 1.9548749999999997 11.308586425781249 1.9548749999999997 L 11.27933642578125 1.9548749999999997 Q 11.268836425781249 1.9548749999999997 11.262836425781249 1.9496249999999997 Q 11.25683642578125 1.9443749999999997 11.25458642578125 1.9361249999999997 L 11.16158642578125 1.6503749999999997 L 11.06933642578125 1.9361249999999997 Q 11.06633642578125 1.9443749999999997 11.06071142578125 1.9496249999999997 Q 11.05508642578125 1.9548749999999997 11.04458642578125 1.9548749999999997 L 11.01533642578125 1.9548749999999997 M 11.545980468749999 1.9548749999999997 Q 11.537730468749999 1.9548749999999997 11.53323046875 1.9499999999999997 Q 11.52873046875 1.9451249999999998 11.52873046875 1.9376249999999997 L 11.52873046875 1.4471249999999998 Q 11.52873046875 1.4396249999999997 11.53323046875 1.4347499999999997 Q 11.537730468749999 1.4298749999999996 11.545980468749999 1.4298749999999996 L 11.585730468749999 1.4298749999999996 Q 11.593980468749999 1.4298749999999996 11.59848046875 1.4347499999999997 Q 11.60298046875 1.4396249999999997 11.60298046875 1.4471249999999998 L 11.60298046875 1.9376249999999997 Q 11.60298046875 1.9451249999999998 11.59848046875 1.9499999999999997 Q 11.593980468749999 1.9548749999999997 11.585730468749999 1.9548749999999997 L 11.545980468749999 1.9548749999999997 M 11.866613159179687 1.9548749999999997 Q 11.859113159179687 1.9548749999999997 11.854238159179687 1.9499999999999997 Q 11.849363159179687 1.9451249999999998 11.849363159179687 1.9376249999999997 L 11.849363159179687 1.4966249999999997 L 11.705363159179687 1.4966249999999997 Q 11.697863159179686 1.4966249999999997 11.692988159179686 1.4917499999999997 Q 11.688113159179688 1.4868749999999997 11.688113159179688 1.4793749999999997 L 11.688113159179688 1.4478749999999998 Q 11.688113159179688 1.4396249999999997 11.692988159179686 1.4347499999999997 Q 11.697863159179686 1.4298749999999996 11.705363159179687 1.4298749999999996 L 12.066863159179688 1.4298749999999996 Q 12.075113159179686 1.4298749999999996 12.079988159179686 1.4347499999999997 Q 12.084863159179687 1.4396249999999997 12.084863159179687 1.4478749999999998 L 12.084863159179687 1.4793749999999997 Q 12.084863159179687 1.4868749999999997 12.079988159179686 1.4917499999999997 Q 12.075113159179686 1.4966249999999997 12.066863159179688 1.4966249999999997 L 11.923613159179688 1.4966249999999997 L 11.923613159179688 1.9376249999999997 Q 11.923613159179688 1.9451249999999998 11.918738159179687 1.9499999999999997 Q 11.913863159179687 1.9548749999999997 11.905613159179687 1.9548749999999997 L 11.866613159179687 1.9548749999999997 M 12.187222778320312 1.9548749999999997 Q 12.178972778320311 1.9548749999999997 12.174472778320313 1.9499999999999997 Q 12.169972778320313 1.9451249999999998 12.169972778320313 1.9376249999999997 L 12.169972778320313 1.4478749999999998 Q 12.169972778320313 1.4396249999999997 12.174472778320313 1.4347499999999997 Q 12.178972778320311 1.4298749999999996 12.187222778320312 1.4298749999999996 L 12.225472778320311 1.4298749999999996 Q 12.233722778320312 1.4298749999999996 12.238597778320312 1.4347499999999997 Q 12.243472778320312 1.4396249999999997 12.243472778320312 1.4478749999999998 L 12.243472778320312 1.6548749999999997 L 12.501472778320313 1.6548749999999997 L 12.501472778320313 1.4478749999999998 Q 12.501472778320313 1.4396249999999997 12.506347778320311 1.4347499999999997 Q 12.511222778320311 1.4298749999999996 12.518722778320312 1.4298749999999996 L 12.556972778320311 1.4298749999999996 Q 12.565222778320312 1.4298749999999996 12.570097778320312 1.4347499999999997 Q 12.574972778320312 1.4396249999999997 12.574972778320312 1.4478749999999998 L 12.574972778320312 1.9376249999999997 Q 12.574972778320312 1.9451249999999998 12.570097778320312 1.9499999999999997 Q 12.565222778320312 1.9548749999999997 12.556972778320311 1.9548749999999997 L 12.518722778320312 1.9548749999999997 Q 12.511222778320311 1.9548749999999997 12.506347778320311 1.9499999999999997 Q 12.501472778320313 1.9451249999999998 12.501472778320313 1.9376249999999997 L 12.501472778320313 1.7223749999999998 L 12.243472778320312 1.7223749999999998 L 12.243472778320312 1.9376249999999997 Q 12.243472778320312 1.9451249999999998 12.238597778320312 1.9499999999999997 Q 12.233722778320312 1.9548749999999997 12.225472778320311 1.9548749999999997 L 12.187222778320312 1.9548749999999997 M 12.895589721679688 1.9623749999999998 Q 12.831089721679687 1.9623749999999998 12.785339721679687 1.9402499999999996 Q 12.739589721679687 1.9181249999999996 12.714839721679686 1.8719999999999997 Q 12.690089721679687 1.8258749999999997 12.687089721679687 1.7561249999999997 Q 12.686339721679687 1.7231249999999996 12.686339721679687 1.6927499999999998 Q 12.686339721679687 1.6623749999999997 12.687089721679687 1.6293749999999996 Q 12.690089721679687 1.5603749999999996 12.715964721679686 1.5142499999999997 Q 12.741839721679687 1.4681249999999997 12.787964721679687 1.4452499999999997 Q 12.834089721679687 1.4223749999999997 12.895589721679688 1.4223749999999997 Q 12.956339721679687 1.4223749999999997 13.002464721679686 1.4452499999999997 Q 13.048589721679686 1.4681249999999997 13.074839721679687 1.5142499999999997 Q 13.101089721679687 1.5603749999999996 13.103339721679687 1.6293749999999996 Q 13.104839721679687 1.6623749999999997 13.104839721679687 1.6927499999999998 Q 13.104839721679687 1.7231249999999996 13.103339721679687 1.7561249999999997 Q 13.101089721679687 1.8258749999999997 13.075964721679687 1.8719999999999997 Q 13.050839721679687 1.9181249999999996 13.005089721679687 1.9402499999999996 Q 12.959339721679687 1.9623749999999998 12.895589721679688 1.9623749999999998 M 12.895589721679688 1.8986249999999998 Q 12.952589721679686 1.8986249999999998 12.988964721679688 1.8641249999999996 Q 13.025339721679687 1.8296249999999996 13.028339721679687 1.7523749999999998 Q 13.029839721679688 1.7186249999999996 13.029839721679688 1.6919999999999997 Q 13.029839721679688 1.6653749999999996 13.028339721679687 1.6323749999999997 Q 13.026839721679687 1.5806249999999997 13.009214721679687 1.5483749999999996 Q 12.991589721679688 1.5161249999999997 12.962339721679687 1.5011249999999996 Q 12.933089721679687 1.4861249999999997 12.895589721679688 1.4861249999999997 Q 12.858089721679686 1.4861249999999997 12.828839721679687 1.5011249999999996 Q 12.799589721679688 1.5161249999999997 12.781964721679687 1.5483749999999996 Q 12.764339721679686 1.5806249999999997 12.762089721679686 1.6323749999999997 Q 12.761339721679686 1.6653749999999996 12.761339721679686 1.6919999999999997 Q 12.761339721679686 1.7186249999999996 12.762089721679686 1.7523749999999998 Q 12.765089721679686 1.8296249999999996 12.801839721679688 1.8641249999999996 Q 12.838589721679687 1.8986249999999998 12.895589721679688 1.8986249999999998 M 13.413466186523436 1.9623749999999998 Q 13.350466186523438 1.9623749999999998 13.305091186523438 1.9398749999999998 Q 13.259716186523438 1.9173749999999996 13.235341186523437 1.8712499999999996 Q 13.210966186523438 1.8251249999999997 13.210966186523438 1.7523749999999998 L 13.210966186523438 1.4478749999999998 Q 13.210966186523438 1.4396249999999997 13.215466186523438 1.4347499999999997 Q 13.219966186523438 1.4298749999999996 13.228216186523436 1.4298749999999996 L 13.266466186523438 1.4298749999999996 Q 13.274716186523436 1.4298749999999996 13.279591186523437 1.4347499999999997 Q 13.284466186523437 1.4396249999999997 13.284466186523437 1.4478749999999998 L 13.284466186523437 1.7538749999999996 Q 13.284466186523437 1.8273749999999997 13.318966186523436 1.8626249999999998 Q 13.353466186523438 1.8978749999999998 13.413466186523436 1.8978749999999998 Q 13.472716186523437 1.8978749999999998 13.507591186523436 1.8626249999999998 Q 13.542466186523438 1.8273749999999997 13.542466186523438 1.7538749999999996 L 13.542466186523438 1.4478749999999998 Q 13.542466186523438 1.4396249999999997 13.547341186523438 1.4347499999999997 Q 13.552216186523436 1.4298749999999996 13.559716186523437 1.4298749999999996 L 13.598716186523436 1.4298749999999996 Q 13.606216186523437 1.4298749999999996 13.611091186523437 1.4347499999999997 Q 13.615966186523437 1.4396249999999997 13.615966186523437 1.4478749999999998 L 13.615966186523437 1.7523749999999998 Q 13.615966186523437 1.8251249999999997 13.591591186523438 1.8712499999999996 Q 13.567216186523437 1.9173749999999996 13.522216186523437 1.9398749999999998 Q 13.477216186523437 1.9623749999999998 13.413466186523436 1.9623749999999998 M 13.874332763671875 1.9548749999999997 Q 13.866832763671875 1.9548749999999997 13.861957763671874 1.9499999999999997 Q 13.857082763671874 1.9451249999999998 13.857082763671874 1.9376249999999997 L 13.857082763671874 1.4966249999999997 L 13.713082763671874 1.4966249999999997 Q 13.705582763671874 1.4966249999999997 13.700707763671874 1.4917499999999997 Q 13.695832763671875 1.4868749999999997 13.695832763671875 1.4793749999999997 L 13.695832763671875 1.4478749999999998 Q 13.695832763671875 1.4396249999999997 13.700707763671874 1.4347499999999997 Q 13.705582763671874 1.4298749999999996 13.713082763671874 1.4298749999999996 L 14.074582763671875 1.4298749999999996 Q 14.082832763671874 1.4298749999999996 14.087707763671874 1.4347499999999997 Q 14.092582763671874 1.4396249999999997 14.092582763671874 1.4478749999999998 L 14.092582763671874 1.4793749999999997 Q 14.092582763671874 1.4868749999999997 14.087707763671874 1.4917499999999997 Q 14.082832763671874 1.4966249999999997 14.074582763671875 1.4966249999999997 L 13.931332763671875 1.4966249999999997 L 13.931332763671875 1.9376249999999997 Q 13.931332763671875 1.9451249999999998 13.926457763671875 1.9499999999999997 Q 13.921582763671875 1.9548749999999997 13.913332763671875 1.9548749999999997 L 13.874332763671875 1.9548749999999997 M 14.36104541015625 1.9548749999999997 Q 14.352795410156249 1.9548749999999997 14.34829541015625 1.9499999999999997 Q 14.34379541015625 1.9451249999999998 14.34379541015625 1.9376249999999997 L 14.34379541015625 1.4471249999999998 Q 14.34379541015625 1.4396249999999997 14.34829541015625 1.4347499999999997 Q 14.352795410156249 1.4298749999999996 14.36104541015625 1.4298749999999996 L 14.400795410156249 1.4298749999999996 Q 14.40829541015625 1.4298749999999996 14.41317041015625 1.4347499999999997 Q 14.41804541015625 1.4396249999999997 14.41804541015625 1.4471249999999998 L 14.41804541015625 1.8896249999999997 L 14.66704541015625 1.8896249999999997 Q 14.67529541015625 1.8896249999999997 14.680170410156249 1.8944999999999996 Q 14.685045410156249 1.8993749999999996 14.685045410156249 1.9076249999999997 L 14.685045410156249 1.9376249999999997 Q 14.685045410156249 1.9451249999999998 14.680170410156249 1.9499999999999997 Q 14.67529541015625 1.9548749999999997 14.66704541015625 1.9548749999999997 L 14.36104541015625 1.9548749999999997 M 14.78441162109375 1.9548749999999997 Q 14.776161621093749 1.9548749999999997 14.77166162109375 1.9499999999999997 Q 14.76716162109375 1.9451249999999998 14.76716162109375 1.9376249999999997 L 14.76716162109375 1.4471249999999998 Q 14.76716162109375 1.4396249999999997 14.77166162109375 1.4347499999999997 Q 14.776161621093749 1.4298749999999996 14.78441162109375 1.4298749999999996 L 14.824161621093749 1.4298749999999996 Q 14.83241162109375 1.4298749999999996 14.83691162109375 1.4347499999999997 Q 14.84141162109375 1.4396249999999997 14.84141162109375 1.4471249999999998 L 14.84141162109375 1.9376249999999997 Q 14.84141162109375 1.9451249999999998 14.83691162109375 1.9499999999999997 Q 14.83241162109375 1.9548749999999997 14.824161621093749 1.9548749999999997 L 14.78441162109375 1.9548749999999997 M 14.990294311523437 1.9548749999999997 Q 14.982794311523437 1.9548749999999997 14.977919311523438 1.9499999999999997 Q 14.973044311523438 1.9451249999999998 14.973044311523438 1.9376249999999997 L 14.973044311523438 1.4478749999999998 Q 14.973044311523438 1.4396249999999997 14.977919311523438 1.4347499999999997 Q 14.982794311523437 1.4298749999999996 14.990294311523437 1.4298749999999996 L 15.027794311523436 1.4298749999999996 Q 15.036794311523437 1.4298749999999996 15.041294311523437 1.4343749999999997 Q 15.045794311523437 1.4388749999999997 15.047294311523437 1.4418749999999996 L 15.205544311523438 1.7448749999999997 L 15.365294311523437 1.4418749999999996 Q 15.366794311523437 1.4388749999999997 15.370919311523437 1.4343749999999997 Q 15.375044311523437 1.4298749999999996 15.384044311523438 1.4298749999999996 L 15.420794311523437 1.4298749999999996 Q 15.429044311523437 1.4298749999999996 15.433919311523438 1.4347499999999997 Q 15.438794311523438 1.4396249999999997 15.438794311523438 1.4478749999999998 L 15.438794311523438 1.9376249999999997 Q 15.438794311523438 1.9451249999999998 15.433919311523438 1.9499999999999997 Q 15.429044311523437 1.9548749999999997 15.420794311523437 1.9548749999999997 L 15.384044311523438 1.9548749999999997 Q 15.376544311523437 1.9548749999999997 15.371669311523437 1.9499999999999997 Q 15.366794311523437 1.9451249999999998 15.366794311523437 1.9376249999999997 L 15.366794311523437 1.5686249999999997 L 15.241544311523437 1.8131249999999997 Q 15.238544311523437 1.8206249999999997 15.232544311523437 1.8247499999999997 Q 15.226544311523437 1.8288749999999996 15.217544311523437 1.8288749999999996 L 15.194294311523437 1.8288749999999996 Q 15.184544311523437 1.8288749999999996 15.179294311523437 1.8247499999999997 Q 15.174044311523437 1.8206249999999997 15.170294311523437 1.8131249999999997 L 15.044294311523437 1.5686249999999997 L 15.044294311523437 1.9376249999999997 Q 15.044294311523437 1.9451249999999998 15.039419311523437 1.9499999999999997 Q 15.034544311523437 1.9548749999999997 15.027044311523436 1.9548749999999997 L 14.990294311523437 1.9548749999999997 M 15.586924072265624 1.9548749999999997 Q 15.578674072265624 1.9548749999999997 15.574174072265626 1.9499999999999997 Q 15.569674072265625 1.9451249999999998 15.569674072265625 1.9376249999999997 L 15.569674072265625 1.4471249999999998 Q 15.569674072265625 1.4396249999999997 15.574174072265626 1.4347499999999997 Q 15.578674072265624 1.4298749999999996 15.586924072265624 1.4298749999999996 L 15.626674072265624 1.4298749999999996 Q 15.634924072265624 1.4298749999999996 15.639424072265625 1.4347499999999997 Q 15.643924072265625 1.4396249999999997 15.643924072265625 1.4471249999999998 L 15.643924072265625 1.9376249999999997 Q 15.643924072265625 1.9451249999999998 15.639424072265625 1.9499999999999997 Q 15.634924072265624 1.9548749999999997 15.626674072265624 1.9548749999999997 L 15.586924072265624 1.9548749999999997 M 15.907556762695313 1.9548749999999997 Q 15.900056762695312 1.9548749999999997 15.895181762695312 1.9499999999999997 Q 15.890306762695312 1.9451249999999998 15.890306762695312 1.9376249999999997 L 15.890306762695312 1.4966249999999997 L 15.746306762695312 1.4966249999999997 Q 15.738806762695312 1.4966249999999997 15.733931762695311 1.4917499999999997 Q 15.729056762695313 1.4868749999999997 15.729056762695313 1.4793749999999997 L 15.729056762695313 1.4478749999999998 Q 15.729056762695313 1.4396249999999997 15.733931762695311 1.4347499999999997 Q 15.738806762695312 1.4298749999999996 15.746306762695312 1.4298749999999996 L 16.10780676269531 1.4298749999999996 Q 16.11605676269531 1.4298749999999996 16.120931762695314 1.4347499999999997 Q 16.125806762695312 1.4396249999999997 16.125806762695312 1.4478749999999998 L 16.125806762695312 1.4793749999999997 Q 16.125806762695312 1.4868749999999997 16.120931762695314 1.4917499999999997 Q 16.11605676269531 1.4966249999999997 16.10780676269531 1.4966249999999997 L 15.964556762695313 1.4966249999999997 L 15.964556762695313 1.9376249999999997 Q 15.964556762695313 1.9451249999999998 15.959681762695313 1.9499999999999997 Q 15.954806762695313 1.9548749999999997 15.946556762695312 1.9548749999999997 L 15.907556762695313 1.9548749999999997 M 16.376645141601564 1.9623749999999998 Q 16.31139514160156 1.9623749999999998 16.267145141601564 1.9421249999999997 Q 16.222895141601562 1.9218749999999998 16.199270141601563 1.8899999999999997 Q 16.175645141601564 1.8581249999999998 16.174145141601564 1.8228749999999998 Q 16.174145141601564 1.8168749999999996 16.179020141601562 1.8119999999999996 Q 16.183895141601564 1.8071249999999996 16.19064514160156 1.8071249999999996 L 16.228895141601562 1.8071249999999996 Q 16.237895141601562 1.8071249999999996 16.242395141601563 1.8116249999999996 Q 16.246895141601563 1.8161249999999998 16.248395141601563 1.8221249999999998 Q 16.252895141601563 1.8401249999999998 16.267145141601564 1.8577499999999998 Q 16.281395141601564 1.8753749999999998 16.308020141601563 1.8869999999999998 Q 16.334645141601563 1.8986249999999998 16.376645141601564 1.8986249999999998 Q 16.441145141601563 1.8986249999999998 16.471520141601562 1.8757499999999996 Q 16.501895141601562 1.8528749999999996 16.501895141601562 1.8146249999999997 Q 16.501895141601562 1.7883749999999996 16.485770141601563 1.7722499999999997 Q 16.469645141601564 1.7561249999999997 16.436645141601563 1.7433749999999997 Q 16.40364514160156 1.7306249999999996 16.351145141601563 1.7156249999999997 Q 16.29639514160156 1.6998749999999996 16.260395141601563 1.6811249999999998 Q 16.224395141601562 1.6623749999999997 16.206770141601563 1.6346249999999998 Q 16.189145141601564 1.6068749999999996 16.189145141601564 1.5641249999999998 Q 16.189145141601564 1.5236249999999996 16.21089514160156 1.4917499999999997 Q 16.232645141601562 1.4598749999999998 16.273895141601564 1.4411249999999995 Q 16.315145141601562 1.4223749999999997 16.372895141601564 1.4223749999999997 Q 16.419395141601562 1.4223749999999997 16.45427014160156 1.4347499999999997 Q 16.48914514160156 1.4471249999999998 16.512395141601562 1.4677499999999997 Q 16.535645141601563 1.4883749999999996 16.547645141601564 1.5119999999999996 Q 16.559645141601564 1.5356249999999996 16.560395141601564 1.5581249999999998 Q 16.560395141601564 1.5633749999999997 16.556645141601564 1.5682499999999997 Q 16.552895141601564 1.5731249999999997 16.544645141601563 1.5731249999999997 L 16.504895141601562 1.5731249999999997 Q 16.49964514160156 1.5731249999999997 16.494020141601563 1.5701249999999998 Q 16.48839514160156 1.5671249999999997 16.48539514160156 1.5588749999999996 Q 16.48089514160156 1.5281249999999997 16.450895141601563 1.5071249999999996 Q 16.420895141601562 1.4861249999999997 16.372895141601564 1.4861249999999997 Q 16.324145141601562 1.4861249999999997 16.293770141601563 1.5048749999999997 Q 16.263395141601563 1.5236249999999996 16.263395141601563 1.5633749999999997 Q 16.263395141601563 1.5888749999999998 16.277645141601564 1.6057499999999996 Q 16.29189514160156 1.6226249999999998 16.322645141601562 1.6353749999999998 Q 16.353395141601563 1.6481249999999996 16.40289514160156 1.6623749999999997 Q 16.462895141601564 1.6788749999999997 16.50114514160156 1.6972499999999997 Q 16.539395141601563 1.7156249999999997 16.557770141601562 1.7429999999999997 Q 16.57614514160156 1.7703749999999996 16.57614514160156 1.8131249999999997 Q 16.57614514160156 1.8603749999999997 16.551395141601564 1.8937499999999996 Q 16.526645141601563 1.9271249999999998 16.482020141601563 1.9447499999999998 Q 16.437395141601563 1.9623749999999998 16.376645141601564 1.9623749999999998 M 16.677777099609372 1.9548749999999997 Q 16.670277099609372 1.9548749999999997 16.665402099609373 1.9499999999999997 Q 16.66052709960937 1.9451249999999998 16.66052709960937 1.9376249999999997 L 16.66052709960937 1.8836249999999997 Q 16.66052709960937 1.8761249999999996 16.665402099609373 1.8712499999999996 Q 16.670277099609372 1.8663749999999997 16.677777099609372 1.8663749999999997 L 16.731777099609374 1.8663749999999997 Q 16.739277099609374 1.8663749999999997 16.744527099609375 1.8712499999999996 Q 16.749777099609375 1.8761249999999996 16.749777099609375 1.8836249999999997 L 16.749777099609375 1.9376249999999997 Q 16.749777099609375 1.9451249999999998 16.744527099609375 1.9499999999999997 Q 16.739277099609374 1.9548749999999997 16.731777099609374 1.9548749999999997 L 16.677777099609372 1.9548749999999997" fill="#3361e1" fill-rule="nonzero"></path></g></g><defs><clipPath id="SvgjsClipPath43042"><path d=" M -5.106076037334955 -1.072852697066625 h 4.706076037334955 v 4.1005803941332495 h -4.706076037334955 Z"></path></clipPath><clipPath id="SvgjsClipPath430409dd21011-ac1f-4ae0-b413-9ba67abaa93a"><path d=" M -5.106076037334955 -1.072852697066625 L -0.40000000000000036 -1.072852697066625 L -0.40000000000000036 3.0277276970666245 L -5.106076037334955 3.0277276970666245 Z"></path></clipPath></defs></svg>