<svg xmlns="http://www.w3.org/2000/svg" version="1.1" xmlns:xlink="http://www.w3.org/1999/xlink" viewBox="0 0 19.33012895686535 11.039965888800154"><g transform="matrix(0.8135084218902945,0,0,0.8135084218902945,2.831883457554797,7.38469663851353)"><g transform="matrix(1,0,0,1,0,0)" clip-path="url(#SvgjsClipPath57140)"><g clip-path="url(#SvgjsClipPath57138186ad9b3-fc5e-4d04-90de-49041a4c96ec)"><path d=" M 4.87055648263919 -6.462570149497229 L 10.184064971066638 -6.462570149497229 L 10.184064971066638 -5.798350865997753 L 4.87055648263919 -5.798350865997753 Z" fill="#51a8db" transform="matrix(1,0,0,1,0,0)" fill-rule="nonzero"></path></g><g clip-path="url(#SvgjsClipPath57138186ad9b3-fc5e-4d04-90de-49041a4c96ec)"><path d=" M 9.8636913037062 -1.9947891558049138 L 4.870556482639198 -1.9947891558049138 C 4.824113426026274 -1.9948569559597793 4.786499820770053 -2.0325255518669607 4.78649987025925 -2.078968657969047 L 4.78649987025925 -6.462570149497229 C 4.786499820778433 -6.509013255614509 4.824113426041452 -6.546681851514901 4.870556482654396 -6.5467496516613854 L 10.184064971066642 -6.5467496516613854 C 10.206390763147052 -6.546749651661363 10.227802148908388 -6.537880765289816 10.243588867883814 -6.522094046314396 C 10.259375586859237 -6.506307327338976 10.268244473230784 -6.4848959415776415 10.268244473230784 -6.462570149497229 L 10.268244473230784 -2.3993423253294806 C 10.268244473230784 -2.3770165332490683 10.259375586859237 -2.3556051474877338 10.243588867883814 -2.339818428512314 C 10.227802148908388 -2.324031709536894 10.206390763147052 -2.3151628231653474 10.18406497106665 -2.3151628231653474 C 10.16173917898623 -2.3151628231653474 10.140327793224895 -2.324031709536894 10.12454107424947 -2.339818428512314 C 10.108754355274044 -2.3556051474877338 10.0998854689025 -2.3770165332490683 10.0998854689025 -2.3993423253294806 L 10.0998854689025 -6.378390647333096 L 4.954735984803328 -6.378390647333096 L 4.954735984803328 -2.1632710499173635 L 9.8636913037062 -2.1632710499173635 C 9.886017095786613 -2.1632710499173635 9.90742848154795 -2.154402163545816 9.923215200523373 -2.138615444570396 C 9.939001919498788 -2.1228287255949754 9.947870805870343 -2.1014173398336427 9.947870805870343 -2.0790915477532295 C 9.947903429374598 -2.056744471152606 9.939048947091898 -2.0353015011564857 9.923258690787655 -2.0194881933831805 C 9.907468434483405 -2.003674885609877 9.886038404119603 -1.9947891319921247 9.8636913037062 -1.9947891558049138 Z" fill="#000000" transform="matrix(1,0,0,1,0,0)" fill-rule="nonzero"></path></g><g clip-path="url(#SvgjsClipPath57138186ad9b3-fc5e-4d04-90de-49041a4c96ec)"><path d=" M 10.183942081282458 -5.71417136383362 L 4.870433592855004 -5.71417136383362 C 4.823990536242081 -5.714239163988485 4.7863769309858695 -5.751907759895666 4.786376980475056 -5.798350865997753 C 4.78637693099424 -5.844793972115032 4.823990536257259 -5.882462568015424 4.870433592870203 -5.882530368161908 L 10.183942081282458 -5.882530368161908 C 10.20626787336286 -5.882530368161886 10.227679259124196 -5.873661481790339 10.243465978099621 -5.8578747628149195 C 10.259252697075045 -5.8420880438394995 10.26812158344659 -5.820676658078165 10.26812158344659 -5.798350865997753 C 10.26812158344659 -5.776025073917341 10.259252697075045 -5.754613688156007 10.243465978099621 -5.738826969180586 C 10.227679259124196 -5.723040250205166 10.20626787336286 -5.71417136383362 10.183942081282458 -5.71417136383362 Z" fill="#000000" transform="matrix(1,0,0,1,0,0)" fill-rule="nonzero"></path></g><g clip-path="url(#SvgjsClipPath57138186ad9b3-fc5e-4d04-90de-49041a4c96ec)"><path d=" M 5.368628777925661 -5.261076729557473 L 7.055168176028679 -5.261076729557473 L 7.055168176028679 -4.423459960578301 L 5.368628777925661 -4.423459960578301 Z" fill="#3361e1" transform="matrix(1,0,0,1,0,0)" fill-rule="nonzero"></path></g><g clip-path="url(#SvgjsClipPath57138186ad9b3-fc5e-4d04-90de-49041a4c96ec)"><path d=" M 7.0550452862445 -3.9545125441427773 L 5.368505888141481 -3.9545125441427773 C 5.322062782039391 -3.9545124946535872 5.284394186132211 -3.992126099909807 5.28432638597735 -4.03856915652273 C 5.28432638597734 -4.060894948603142 5.293195272348885 -4.0823063343644765 5.308981991324309 -4.0980930533398965 C 5.324768710299733 -4.113879772315316 5.346180096061059 -4.122748658686863 5.3685058881414705 -4.122748658686863 L 7.0550452862445 -4.122748658686863 C 7.0773710783249015 -4.122748658686863 7.098782464086238 -4.113879772315316 7.114569183061662 -4.0980930533398965 C 7.130355902037087 -4.0823063343644765 7.139224788408631 -4.060894948603142 7.139224788408631 -4.03856915652273 C 7.13915698825376 -3.9921260999098096 7.10148839234658 -3.9545124946535886 7.0550452862445 -3.9545125441427773 Z" fill="#000000" transform="matrix(1,0,0,1,0,0)" fill-rule="nonzero"></path></g><g clip-path="url(#SvgjsClipPath57138186ad9b3-fc5e-4d04-90de-49041a4c96ec)"><path d=" M 7.0550452862445 -3.513092439363847 L 5.368505888141481 -3.513092439363847 C 5.322062782039391 -3.513092389874656 5.284394186132211 -3.5507059951308766 5.28432638597735 -3.597149051743799 C 5.28432638597734 -3.619474843824211 5.293195272348885 -3.6408862295855453 5.308981991324309 -3.6566729485609657 C 5.324768710299733 -3.6724596675363856 5.346180096061059 -3.6813285539079326 5.3685058881414705 -3.6813285539079326 L 7.0550452862445 -3.6813285539079326 C 7.0773710783249015 -3.6813285539079326 7.098782464086238 -3.6724596675363856 7.114569183061662 -3.6566729485609657 C 7.130355902037087 -3.6408862295855453 7.139224788408631 -3.619474843824211 7.139224788408631 -3.597149051743799 C 7.13915698825376 -3.5507059951308793 7.10148839234658 -3.5130923898746573 7.0550452862445 -3.513092439363847 Z" fill="#000000" transform="matrix(1,0,0,1,0,0)" fill-rule="nonzero"></path></g><g clip-path="url(#SvgjsClipPath57138186ad9b3-fc5e-4d04-90de-49041a4c96ec)"><path d=" M 7.0550452862445 -3.0716723345849166 L 5.368505888141481 -3.0716723345849166 C 5.346180096061059 -3.0716723345849166 5.324768710299733 -3.080541220956464 5.308981991324309 -3.096327939931884 C 5.293195272348885 -3.1121146589073043 5.28432638597734 -3.1335260446686384 5.28432638597734 -3.1558518367490502 C 5.284394186132211 -3.2022948933619704 5.322062782039391 -3.239908498618192 5.3685058881414705 -3.2399084491290027 L 7.0550452862445 -3.2399084491290027 C 7.10148839234658 -3.239908498618193 7.13915698825376 -3.202294893361973 7.139224788408621 -3.1558518367490507 C 7.139224788408631 -3.1335260446686384 7.130355902037087 -3.112114658907304 7.114569183061662 -3.0963279399318835 C 7.098782464086238 -3.080541220956464 7.0773710783249015 -3.0716723345849166 7.0550452862445 -3.0716723345849166 Z" fill="#000000" transform="matrix(1,0,0,1,0,0)" fill-rule="nonzero"></path></g><g clip-path="url(#SvgjsClipPath57138186ad9b3-fc5e-4d04-90de-49041a4c96ec)"><path d=" M 10.118933385450589 -1.0417788794795788 L 5.8234438691803465 -1.0417788794795788 C 5.801118077099924 -1.0417788794795788 5.779706691338589 -1.050647765851127 5.763919972363165 -1.066434484826547 C 5.748133253387751 -1.082221203801967 5.739264367016205 -1.1036325895633006 5.739264367016205 -1.1259583816437129 L 5.739264367016205 -2.0789686579690487 C 5.739264367016205 -2.1012944500494593 5.748133253387751 -2.1227058358107938 5.763919972363165 -2.1384925547862146 C 5.779706691338589 -2.1542792737616345 5.801118077099924 -2.163148160133181 5.823443869180337 -2.163148160133181 C 5.845769661260759 -2.163148160133182 5.867181047022095 -2.1542792737616345 5.882967765997519 -2.1384925547862146 C 5.898754484972932 -2.1227058358107938 5.907623371344488 -2.10129445004946 5.907623371344488 -2.078968657969047 L 5.907623371344488 -1.210137883807846 L 10.118933385450589 -1.210137883807846 C 10.141259177531001 -1.210137883807847 10.162670563292338 -1.2012689974362996 10.178457282267761 -1.1854822784608796 C 10.194244001243176 -1.1696955594854588 10.203112887614731 -1.1482841737241243 10.203112887614731 -1.1259583816437129 C 10.203112887614731 -1.1036325895633006 10.194244001243176 -1.082221203801966 10.178457282267761 -1.0664344848265461 C 10.162670563292338 -1.0506477658511253 10.141259177531001 -1.0417788794795788 10.118933385450589 -1.0417788794795788 Z" fill="#000000" transform="matrix(1,0,0,1,0,0)" fill-rule="nonzero"></path></g><g clip-path="url(#SvgjsClipPath57138186ad9b3-fc5e-4d04-90de-49041a4c96ec)"><path d=" M 11.13695235760779 -2.0597978516367785 C 11.114626565527379 -2.0597978516367785 11.093215179766043 -2.068666738008325 11.07742846079062 -2.084453456983745 C 11.061641741815205 -2.100240175959166 11.05277285544366 -2.1216515617205003 11.05277285544366 -2.1439773538009117 L 11.05277285544366 -5.425134591439397 L 10.183942081282458 -5.425134591439397 C 10.161616289202048 -5.425134591439397 10.140204903440711 -5.434003477810944 10.124418184465288 -5.449790196786364 C 10.108631465489871 -5.465576915761784 10.099762579118316 -5.48698830152312 10.099762579118316 -5.509314093603531 C 10.099762579118316 -5.531639885683942 10.108631465489871 -5.553051271445277 10.124418184465288 -5.568837990420698 C 10.140204903440711 -5.584624709396118 10.161616289202048 -5.593493595767664 10.183942081282458 -5.593493595767664 L 11.13695235760779 -5.593493595767664 C 11.183395414220705 -5.593425795612799 11.221009019476934 -5.555757199705618 11.22100896998774 -5.509314093603531 L 11.22100896998774 -2.1439773538009117 C 11.22100901947823 -2.0975342477011747 11.183395414223057 -2.0598656517929443 11.136952357610141 -2.059797851636781 Z" fill="#000000" transform="matrix(1,0,0,1,0,0)" fill-rule="nonzero"></path></g><g clip-path="url(#SvgjsClipPath57138186ad9b3-fc5e-4d04-90de-49041a4c96ec)"><path d=" M 11.663535082824305 -0.25 C 11.641233429636381 -0.24997789967905248 11.619837126042114 -0.2588193474452769 11.6040564272806 -0.274577956836243 L 10.790526056000942 -1.088108328115898 L 10.303268061722417 -0.6007274440531924 C 10.28202477536636 -0.5793927084781929 10.250993245733333 -0.5710488832898566 10.221915024594455 -0.5788530624689372 C 10.192881131673605 -0.5866200793393723 10.17020338592118 -0.6092978250917973 10.16243636905074 -0.6383317180126458 L 9.665101412469362 -2.494704797854105 C 9.657260679328065 -2.523722983724813 9.665560389542533 -2.554717946729107 9.686852904269436 -2.57593494519789 C 9.70808406424015 -2.5972029978442897 9.739042890604305 -2.6055398678788118 9.768083051613235 -2.5978093267821465 L 11.624333241670499 -2.100351480416581 C 11.65342488445123 -2.0926083821759267 11.676128860072847 -2.0698574975137785 11.683811897214214 -2.0407499350886917 C 11.691652630355499 -2.011731749217984 11.683352920141044 -1.98073678621369 11.66206040541413 -1.9595197877449069 L 11.17467952135143 -1.4722617934663829 L 11.988209892631078 -0.6587314221867278 C 12.004036731610519 -0.6429594424329403 12.012932783360624 -0.6215350944277818 12.012932783360624 -0.5991913217509275 C 12.012932783360624 -0.576847549074075 12.004036731610519 -0.5554232010689155 11.988209892631078 -0.5396512213151281 L 11.723136628152204 -0.27457795683624475 C 11.707318171632599 -0.2588006676058292 11.685876629866693 -0.2499587947126729 11.663535082824305 -0.25 Z M 10.791017615137655 -1.291368031151631 C 10.813359162180042 -1.291409236438957 10.834800703945948 -1.2825673635458 10.850619160465552 -1.266790074315388 L 11.664026641961026 -0.4532597030357328 L 11.810142595352492 -0.5994985462113815 L 10.996735113857028 -1.4129060277068541 C 10.980957824626607 -1.428724484226458 10.972115951733464 -1.4501660259923632 10.972157157020785 -1.4725075730347443 C 10.972135056699823 -1.4948092262226575 10.980976504466042 -1.5162055298169221 10.996735113857017 -1.5319862285784422 L 11.440490124535405 -1.975741239256827 L 9.86528887090056 -2.397621868350943 L 10.287292389778862 -0.8229121738528322 L 10.731047400457228 -1.2666671845312063 C 10.74676755525133 -1.2825610560898495 10.76817135373642 -1.291538269090827 10.790526056000942 -1.2916138107199933 Z" fill="#000000" transform="matrix(1,0,0,1,0,0)" fill-rule="nonzero"></path></g></g><g><path d=" M 4.755402648925781 1.0799999999999996 Q 4.614402648925781 1.0799999999999996 4.516152648925781 1.0327499999999996 Q 4.41790264892578 0.9854999999999997 4.36390264892578 0.8947499999999997 Q 4.30990264892578 0.8039999999999997 4.303902648925781 0.6734999999999998 Q 4.3024026489257805 0.6119999999999997 4.3024026489257805 0.5414999999999998 Q 4.3024026489257805 0.47099999999999975 4.303902648925781 0.40649999999999975 Q 4.30990264892578 0.27749999999999975 4.36465264892578 0.18674999999999975 Q 4.4194026489257805 0.09599999999999975 4.518402648925781 0.0479999999999996 Q 4.61740264892578 -2.220446049250313e-16 4.755402648925781 -2.220446049250313e-16 Q 4.85590264892578 -2.220446049250313e-16 4.938402648925781 0.025499999999999634 Q 5.02090264892578 0.05099999999999971 5.080902648925781 0.09899999999999975 Q 5.14090264892578 0.1469999999999997 5.173902648925781 0.2114999999999997 Q 5.20690264892578 0.2759999999999997 5.20990264892578 0.3554999999999997 Q 5.20990264892578 0.36899999999999966 5.20015264892578 0.37799999999999967 Q 5.19040264892578 0.3869999999999997 5.176902648925781 0.3869999999999997 L 5.0059026489257805 0.3869999999999997 Q 4.987902648925781 0.3869999999999997 4.97740264892578 0.37799999999999967 Q 4.96690264892578 0.36899999999999966 4.960902648925781 0.34799999999999975 Q 4.938402648925781 0.25949999999999973 4.88590264892578 0.2264999999999997 Q 4.83340264892578 0.19349999999999967 4.755402648925781 0.19349999999999967 Q 4.66240264892578 0.19349999999999967 4.6084026489257806 0.24449999999999972 Q 4.55440264892578 0.29549999999999976 4.54990264892578 0.4139999999999997 Q 4.54540264892578 0.5369999999999997 4.54990264892578 0.6659999999999997 Q 4.55440264892578 0.7844999999999998 4.6084026489257806 0.8354999999999997 Q 4.66240264892578 0.8864999999999997 4.755402648925781 0.8864999999999997 Q 4.83340264892578 0.8864999999999997 4.88665264892578 0.8527499999999997 Q 4.939902648925781 0.8189999999999997 4.960902648925781 0.7319999999999998 Q 4.96690264892578 0.7094999999999998 4.97740264892578 0.7012499999999997 Q 4.987902648925781 0.6929999999999997 5.0059026489257805 0.6929999999999997 L 5.176902648925781 0.6929999999999997 Q 5.19040264892578 0.6929999999999997 5.20015264892578 0.7019999999999997 Q 5.20990264892578 0.7109999999999997 5.20990264892578 0.7244999999999997 Q 5.20690264892578 0.8039999999999997 5.173902648925781 0.8684999999999997 Q 5.14090264892578 0.9329999999999997 5.080902648925781 0.9809999999999998 Q 5.02090264892578 1.0289999999999997 4.938402648925781 1.0544999999999998 Q 4.85590264892578 1.0799999999999996 4.755402648925781 1.0799999999999996 M 5.794892395019531 1.0799999999999996 Q 5.65839239501953 1.0799999999999996 5.559392395019531 1.0349999999999997 Q 5.4603923950195306 0.9899999999999998 5.40489239501953 0.8992499999999997 Q 5.34939239501953 0.8084999999999998 5.344892395019531 0.6704999999999997 Q 5.343392395019531 0.6059999999999997 5.343392395019531 0.5422499999999997 Q 5.343392395019531 0.4784999999999997 5.344892395019531 0.41249999999999976 Q 5.34939239501953 0.27749999999999975 5.40564239501953 0.1852499999999997 Q 5.461892395019531 0.09299999999999975 5.56164239501953 0.046499999999999764 Q 5.66139239501953 -2.220446049250313e-16 5.794892395019531 -2.220446049250313e-16 Q 5.9268923950195305 -2.220446049250313e-16 6.026642395019531 0.046499999999999764 Q 6.12639239501953 0.09299999999999975 6.18339239501953 0.1852499999999997 Q 6.24039239501953 0.27749999999999975 6.24339239501953 0.41249999999999976 Q 6.24639239501953 0.4784999999999997 6.24639239501953 0.5422499999999997 Q 6.24639239501953 0.6059999999999997 6.24339239501953 0.6704999999999997 Q 6.23889239501953 0.8084999999999998 6.18339239501953 0.8992499999999997 Q 6.12789239501953 0.9899999999999998 6.028892395019531 1.0349999999999997 Q 5.929892395019531 1.0799999999999996 5.794892395019531 1.0799999999999996 M 5.794892395019531 0.8864999999999997 Q 5.8818923950195305 0.8864999999999997 5.93814239501953 0.8332499999999997 Q 5.99439239501953 0.7799999999999997 5.9973923950195305 0.6629999999999997 Q 6.000392395019531 0.5969999999999998 6.000392395019531 0.5392499999999997 Q 6.000392395019531 0.4814999999999997 5.9973923950195305 0.4169999999999997 Q 5.99589239501953 0.33899999999999975 5.96889239501953 0.28949999999999976 Q 5.94189239501953 0.23999999999999966 5.89764239501953 0.21674999999999967 Q 5.85339239501953 0.19349999999999967 5.794892395019531 0.19349999999999967 Q 5.73639239501953 0.19349999999999967 5.69139239501953 0.21674999999999967 Q 5.6463923950195305 0.23999999999999966 5.62014239501953 0.28949999999999976 Q 5.59389239501953 0.33899999999999975 5.59089239501953 0.4169999999999997 Q 5.58939239501953 0.4814999999999997 5.58939239501953 0.5392499999999997 Q 5.58939239501953 0.5969999999999998 5.59089239501953 0.6629999999999997 Q 5.59539239501953 0.7799999999999997 5.650892395019531 0.8332499999999997 Q 5.70639239501953 0.8864999999999997 5.794892395019531 0.8864999999999997 M 6.469896789550781 1.0649999999999997 Q 6.45339678955078 1.0649999999999997 6.4428967895507805 1.0544999999999998 Q 6.43239678955078 1.0439999999999998 6.43239678955078 1.0274999999999996 L 6.43239678955078 0.05249999999999977 Q 6.43239678955078 0.03599999999999981 6.4428967895507805 0.025499999999999634 Q 6.45339678955078 0.01499999999999968 6.469896789550781 0.01499999999999968 L 6.636396789550781 0.01499999999999968 Q 6.6528967895507805 0.01499999999999968 6.66339678955078 0.025499999999999634 Q 6.67389678955078 0.03599999999999981 6.67389678955078 0.05249999999999977 L 6.67389678955078 0.8639999999999997 L 7.13889678955078 0.8639999999999997 Q 7.15539678955078 0.8639999999999997 7.16589678955078 0.8744999999999997 Q 7.176396789550781 0.8849999999999998 7.176396789550781 0.9014999999999997 L 7.176396789550781 1.0274999999999996 Q 7.176396789550781 1.0439999999999998 7.16589678955078 1.0544999999999998 Q 7.15539678955078 1.0649999999999997 7.13889678955078 1.0649999999999997 L 6.469896789550781 1.0649999999999997 M 7.351915832519531 1.0649999999999997 Q 7.33541583251953 1.0649999999999997 7.3249158325195305 1.0544999999999998 Q 7.31441583251953 1.0439999999999998 7.31441583251953 1.0274999999999996 L 7.31441583251953 0.05249999999999977 Q 7.31441583251953 0.03599999999999981 7.3249158325195305 0.025499999999999634 Q 7.33541583251953 0.01499999999999968 7.351915832519531 0.01499999999999968 L 7.518415832519531 0.01499999999999968 Q 7.5349158325195305 0.01499999999999968 7.54541583251953 0.025499999999999634 Q 7.55591583251953 0.03599999999999981 7.55591583251953 0.05249999999999977 L 7.55591583251953 0.8639999999999997 L 8.020915832519531 0.8639999999999997 Q 8.03741583251953 0.8639999999999997 8.04791583251953 0.8744999999999997 Q 8.05841583251953 0.8849999999999998 8.05841583251953 0.9014999999999997 L 8.05841583251953 1.0274999999999996 Q 8.05841583251953 1.0439999999999998 8.04791583251953 1.0544999999999998 Q 8.03741583251953 1.0649999999999997 8.020915832519531 1.0649999999999997 L 7.351915832519531 1.0649999999999997 M 8.13493487548828 1.0649999999999997 Q 8.12143487548828 1.0649999999999997 8.11243487548828 1.0552499999999998 Q 8.103434875488281 1.0454999999999997 8.103434875488281 1.0334999999999996 Q 8.103434875488281 1.0259999999999998 8.104934875488281 1.0199999999999998 L 8.46193487548828 0.05549999999999966 Q 8.46643487548828 0.0389999999999997 8.479934875488281 0.02699999999999969 Q 8.49343487548828 0.01499999999999968 8.51743487548828 0.01499999999999968 L 8.70943487548828 0.01499999999999968 Q 8.73343487548828 0.01499999999999968 8.74693487548828 0.02699999999999969 Q 8.760434875488281 0.0389999999999997 8.76493487548828 0.05549999999999966 L 9.12193487548828 1.0199999999999998 Q 9.12343487548828 1.0259999999999998 9.12343487548828 1.0334999999999996 Q 9.12343487548828 1.0454999999999997 9.11443487548828 1.0552499999999998 Q 9.10543487548828 1.0649999999999997 9.091934875488281 1.0649999999999997 L 8.93593487548828 1.0649999999999997 Q 8.91343487548828 1.0649999999999997 8.902934875488281 1.0544999999999998 Q 8.89243487548828 1.0439999999999998 8.88943487548828 1.0349999999999997 L 8.82493487548828 0.8669999999999998 L 8.40193487548828 0.8669999999999998 L 8.337434875488281 1.0349999999999997 Q 8.33443487548828 1.0439999999999998 8.32393487548828 1.0544999999999998 Q 8.31343487548828 1.0649999999999997 8.290934875488281 1.0649999999999997 L 8.13493487548828 1.0649999999999997 M 8.45743487548828 0.6734999999999998 L 8.76793487548828 0.6734999999999998 L 8.61343487548828 0.24149999999999971 L 8.45743487548828 0.6734999999999998 M 9.28990411376953 1.0649999999999997 Q 9.27340411376953 1.0649999999999997 9.26290411376953 1.0544999999999998 Q 9.252404113769531 1.0439999999999998 9.252404113769531 1.0274999999999996 L 9.252404113769531 0.05249999999999977 Q 9.252404113769531 0.03599999999999981 9.26290411376953 0.025499999999999634 Q 9.27340411376953 0.01499999999999968 9.28990411376953 0.01499999999999968 L 9.73540411376953 0.01499999999999968 Q 9.859904113769531 0.01499999999999968 9.93940411376953 0.05099999999999971 Q 10.01890411376953 0.08699999999999974 10.057154113769531 0.1529999999999997 Q 10.095404113769531 0.21899999999999975 10.095404113769531 0.30749999999999966 Q 10.095404113769531 0.36299999999999966 10.07515411376953 0.4049999999999997 Q 10.054904113769531 0.44699999999999973 10.02565411376953 0.47399999999999975 Q 9.99640411376953 0.5009999999999997 9.96940411376953 0.5144999999999997 Q 10.02790411376953 0.5414999999999998 10.07215411376953 0.6037499999999998 Q 10.11640411376953 0.6659999999999997 10.11640411376953 0.7514999999999997 Q 10.11640411376953 0.8459999999999998 10.07440411376953 0.9164999999999998 Q 10.03240411376953 0.9869999999999998 9.94990411376953 1.0259999999999998 Q 9.867404113769531 1.0649999999999997 9.74890411376953 1.0649999999999997 L 9.28990411376953 1.0649999999999997 M 9.490904113769531 0.8894999999999997 L 9.720404113769531 0.8894999999999997 Q 9.79390411376953 0.8894999999999997 9.83140411376953 0.8482499999999997 Q 9.868904113769531 0.8069999999999997 9.868904113769531 0.7499999999999998 Q 9.868904113769531 0.6914999999999998 9.83065411376953 0.6517499999999997 Q 9.79240411376953 0.6119999999999997 9.720404113769531 0.6119999999999997 L 9.490904113769531 0.6119999999999997 L 9.490904113769531 0.8894999999999997 M 9.490904113769531 0.43949999999999967 L 9.70690411376953 0.43949999999999967 Q 9.77740411376953 0.43949999999999967 9.812654113769531 0.40424999999999967 Q 9.84790411376953 0.36899999999999966 9.84790411376953 0.31349999999999967 Q 9.84790411376953 0.2579999999999997 9.812654113769531 0.22424999999999973 Q 9.77740411376953 0.19049999999999967 9.70690411376953 0.19049999999999967 L 9.490904113769531 0.19049999999999967 L 9.490904113769531 0.43949999999999967 M 10.332415100097656 1.0649999999999997 Q 10.315915100097655 1.0649999999999997 10.305415100097655 1.0544999999999998 Q 10.294915100097656 1.0439999999999998 10.294915100097656 1.0274999999999996 L 10.294915100097656 0.05249999999999977 Q 10.294915100097656 0.03599999999999981 10.305415100097655 0.025499999999999634 Q 10.315915100097655 0.01499999999999968 10.332415100097656 0.01499999999999968 L 10.501915100097655 0.01499999999999968 Q 10.518415100097656 0.01499999999999968 10.528915100097656 0.025499999999999634 Q 10.539415100097655 0.03599999999999981 10.539415100097655 0.05249999999999977 L 10.539415100097655 1.0274999999999996 Q 10.539415100097655 1.0439999999999998 10.528915100097656 1.0544999999999998 Q 10.518415100097656 1.0649999999999997 10.501915100097655 1.0649999999999997 L 10.332415100097656 1.0649999999999997 M 10.79887628173828 1.0649999999999997 Q 10.78237628173828 1.0649999999999997 10.77187628173828 1.0544999999999998 Q 10.761376281738281 1.0439999999999998 10.761376281738281 1.0274999999999996 L 10.761376281738281 0.05249999999999977 Q 10.761376281738281 0.03599999999999981 10.77187628173828 0.025499999999999634 Q 10.78237628173828 0.01499999999999968 10.79887628173828 0.01499999999999968 L 11.467876281738281 0.01499999999999968 Q 11.48437628173828 0.01499999999999968 11.49487628173828 0.025499999999999634 Q 11.50537628173828 0.03599999999999981 11.50537628173828 0.05249999999999977 L 11.50537628173828 0.17999999999999972 Q 11.50537628173828 0.19649999999999967 11.49487628173828 0.20699999999999974 Q 11.48437628173828 0.2174999999999997 11.467876281738281 0.2174999999999997 L 10.995376281738281 0.2174999999999997 L 10.995376281738281 0.47099999999999975 L 11.43787628173828 0.47099999999999975 Q 11.45437628173828 0.47099999999999975 11.464876281738281 0.4814999999999997 Q 11.47537628173828 0.49199999999999966 11.47537628173828 0.5084999999999997 L 11.47537628173828 0.6359999999999997 Q 11.47537628173828 0.6509999999999997 11.464876281738281 0.6614999999999998 Q 11.45437628173828 0.6719999999999997 11.43787628173828 0.6719999999999997 L 10.995376281738281 0.6719999999999997 L 10.995376281738281 1.0274999999999996 Q 10.995376281738281 1.0439999999999998 10.98487628173828 1.0544999999999998 Q 10.97437628173828 1.0649999999999997 10.95787628173828 1.0649999999999997 L 10.79887628173828 1.0649999999999997 M 11.98538946533203 1.0649999999999997 Q 11.96888946533203 1.0649999999999997 11.958389465332031 1.0544999999999998 Q 11.94788946533203 1.0439999999999998 11.94788946533203 1.0274999999999996 L 11.94788946533203 0.6974999999999998 L 11.59688946533203 0.06299999999999972 Q 11.59538946533203 0.058499999999999774 11.59388946533203 0.05474999999999963 Q 11.59238946533203 0.05099999999999971 11.59238946533203 0.046499999999999764 Q 11.59238946533203 0.03449999999999975 11.60213946533203 0.024749999999999606 Q 11.61188946533203 0.01499999999999968 11.62388946533203 0.01499999999999968 L 11.78288946533203 0.01499999999999968 Q 11.80388946533203 0.01499999999999968 11.815889465332031 0.025499999999999634 Q 11.82788946533203 0.03599999999999981 11.83238946533203 0.04499999999999971 L 12.06788946533203 0.4574999999999997 L 12.30338946533203 0.04499999999999971 Q 12.30788946533203 0.03599999999999981 12.31988946533203 0.025499999999999634 Q 12.331889465332031 0.01499999999999968 12.35288946533203 0.01499999999999968 L 12.51188946533203 0.01499999999999968 Q 12.52388946533203 0.01499999999999968 12.53363946533203 0.024749999999999606 Q 12.54338946533203 0.03449999999999975 12.54338946533203 0.046499999999999764 Q 12.54338946533203 0.05099999999999971 12.54188946533203 0.05474999999999963 Q 12.54038946533203 0.058499999999999774 12.53888946533203 0.06299999999999972 L 12.18788946533203 0.6974999999999998 L 12.18788946533203 1.0274999999999996 Q 12.18788946533203 1.0439999999999998 12.17738946533203 1.0544999999999998 Q 12.16688946533203 1.0649999999999997 12.15038946533203 1.0649999999999997 L 11.98538946533203 1.0649999999999997" fill="#000000" fill-rule="nonzero"></path></g><g><path d=" M 0.234 1.9623749999999998 Q 0.16875 1.9623749999999998 0.1245 1.9421249999999997 Q 0.08025 1.9218749999999998 0.056625 1.8899999999999997 Q 0.033 1.8581249999999998 0.0315 1.8228749999999998 Q 0.0315 1.8168749999999996 0.036375 1.8119999999999996 Q 0.04125 1.8071249999999996 0.048 1.8071249999999996 L 0.08625000000000001 1.8071249999999996 Q 0.09525 1.8071249999999996 0.09975 1.8116249999999996 Q 0.10425 1.8161249999999998 0.10575 1.8221249999999998 Q 0.11025 1.8401249999999998 0.1245 1.8577499999999998 Q 0.13875 1.8753749999999998 0.165375 1.8869999999999998 Q 0.192 1.8986249999999998 0.234 1.8986249999999998 Q 0.2985 1.8986249999999998 0.32887500000000003 1.8757499999999996 Q 0.35925 1.8528749999999996 0.35925 1.8146249999999997 Q 0.35925 1.7883749999999996 0.343125 1.7722499999999997 Q 0.327 1.7561249999999997 0.294 1.7433749999999997 Q 0.261 1.7306249999999996 0.2085 1.7156249999999997 Q 0.15375 1.6998749999999996 0.11775000000000001 1.6811249999999998 Q 0.08175 1.6623749999999997 0.064125 1.6346249999999998 Q 0.0465 1.6068749999999996 0.0465 1.5641249999999998 Q 0.0465 1.5236249999999996 0.06825 1.4917499999999997 Q 0.09 1.4598749999999998 0.13125 1.4411249999999995 Q 0.17250000000000001 1.4223749999999997 0.23025 1.4223749999999997 Q 0.27675 1.4223749999999997 0.311625 1.4347499999999997 Q 0.34650000000000003 1.4471249999999998 0.36975 1.4677499999999997 Q 0.393 1.4883749999999996 0.405 1.5119999999999996 Q 0.417 1.5356249999999996 0.41775 1.5581249999999998 Q 0.41775 1.5633749999999997 0.41400000000000003 1.5682499999999997 Q 0.41025 1.5731249999999997 0.402 1.5731249999999997 L 0.36225 1.5731249999999997 Q 0.357 1.5731249999999997 0.351375 1.5701249999999998 Q 0.34575 1.5671249999999997 0.34275 1.5588749999999996 Q 0.33825 1.5281249999999997 0.30825 1.5071249999999996 Q 0.27825 1.4861249999999997 0.23025 1.4861249999999997 Q 0.1815 1.4861249999999997 0.151125 1.5048749999999997 Q 0.12075 1.5236249999999996 0.12075 1.5633749999999997 Q 0.12075 1.5888749999999998 0.135 1.6057499999999996 Q 0.14925 1.6226249999999998 0.18 1.6353749999999998 Q 0.21075 1.6481249999999996 0.26025 1.6623749999999997 Q 0.32025 1.6788749999999997 0.3585 1.6972499999999997 Q 0.39675 1.7156249999999997 0.415125 1.7429999999999997 Q 0.4335 1.7703749999999996 0.4335 1.8131249999999997 Q 0.4335 1.8603749999999997 0.40875 1.8937499999999996 Q 0.384 1.9271249999999998 0.339375 1.9447499999999998 Q 0.29475 1.9623749999999998 0.234 1.9623749999999998 M 0.6716136474609374 1.9548749999999997 Q 0.6641136474609375 1.9548749999999997 0.6592386474609374 1.9499999999999997 Q 0.6543636474609374 1.9451249999999998 0.6543636474609374 1.9376249999999997 L 0.6543636474609374 1.7606249999999997 L 0.4736136474609374 1.4546249999999996 Q 0.47286364746093745 1.4523749999999995 0.4721136474609374 1.4501249999999997 Q 0.47136364746093745 1.4478749999999998 0.47136364746093745 1.4448749999999997 Q 0.47136364746093745 1.4388749999999997 0.47586364746093746 1.4343749999999997 Q 0.4803636474609374 1.4298749999999996 0.4863636474609374 1.4298749999999996 L 0.5253636474609374 1.4298749999999996 Q 0.5321136474609375 1.4298749999999996 0.5373636474609375 1.4332499999999997 Q 0.5426136474609374 1.4366249999999998 0.5448636474609374 1.4426249999999996 L 0.6911136474609374 1.6856249999999997 L 0.8373636474609374 1.4426249999999996 Q 0.8411136474609374 1.4366249999999998 0.8459886474609375 1.4332499999999997 Q 0.8508636474609375 1.4298749999999996 0.8576136474609375 1.4298749999999996 L 0.8958636474609374 1.4298749999999996 Q 0.9026136474609374 1.4298749999999996 0.9071136474609374 1.4343749999999997 Q 0.9116136474609374 1.4388749999999997 0.9116136474609374 1.4448749999999997 Q 0.9116136474609374 1.4478749999999998 0.9108636474609375 1.4501249999999997 Q 0.9101136474609375 1.4523749999999995 0.9086136474609374 1.4546249999999996 L 0.7286136474609375 1.7606249999999997 L 0.7286136474609375 1.9376249999999997 Q 0.7286136474609375 1.9451249999999998 0.7237386474609374 1.9499999999999997 Q 0.7188636474609374 1.9548749999999997 0.7106136474609375 1.9548749999999997 L 0.6716136474609374 1.9548749999999997 M 1.0177181396484374 1.9548749999999997 Q 1.0094681396484373 1.9548749999999997 1.0049681396484373 1.9499999999999997 Q 1.0004681396484374 1.9451249999999998 1.0004681396484374 1.9376249999999997 L 1.0004681396484374 1.4478749999999998 Q 1.0004681396484374 1.4396249999999997 1.0049681396484373 1.4347499999999997 Q 1.0094681396484373 1.4298749999999996 1.0177181396484374 1.4298749999999996 L 1.0522181396484374 1.4298749999999996 Q 1.0612181396484375 1.4298749999999996 1.0657181396484374 1.4339999999999997 Q 1.0702181396484374 1.4381249999999997 1.0709681396484374 1.4403749999999997 L 1.3199681396484373 1.8228749999999998 L 1.3199681396484373 1.4478749999999998 Q 1.3199681396484373 1.4396249999999997 1.3244681396484372 1.4347499999999997 Q 1.3289681396484374 1.4298749999999996 1.3372181396484373 1.4298749999999996 L 1.3732181396484373 1.4298749999999996 Q 1.3814681396484374 1.4298749999999996 1.3863431396484374 1.4347499999999997 Q 1.3912181396484373 1.4396249999999997 1.3912181396484373 1.4478749999999998 L 1.3912181396484373 1.9368749999999997 Q 1.3912181396484373 1.9443749999999997 1.3863431396484374 1.9496249999999997 Q 1.3814681396484374 1.9548749999999997 1.3739681396484373 1.9548749999999997 L 1.3379681396484373 1.9548749999999997 Q 1.3297181396484374 1.9548749999999997 1.3255931396484373 1.9503749999999997 Q 1.3214681396484373 1.9458749999999998 1.3199681396484373 1.9443749999999997 L 1.0717181396484374 1.5656249999999998 L 1.0717181396484374 1.9376249999999997 Q 1.0717181396484374 1.9451249999999998 1.0668431396484372 1.9499999999999997 Q 1.0619681396484373 1.9548749999999997 1.0537181396484374 1.9548749999999997 L 1.0177181396484374 1.9548749999999997 M 1.7118486328124998 1.9623749999999998 Q 1.6428486328124996 1.9623749999999998 1.5974736328124997 1.9368749999999997 Q 1.5520986328124997 1.9113749999999996 1.5288486328124997 1.8656249999999996 Q 1.5055986328124997 1.8198749999999997 1.5033486328124996 1.7591249999999996 Q 1.5025986328124996 1.7283749999999998 1.5025986328124996 1.6931249999999998 Q 1.5025986328124996 1.6578749999999998 1.5033486328124996 1.6256249999999997 Q 1.5055986328124997 1.5648749999999998 1.5288486328124997 1.5191249999999996 Q 1.5520986328124997 1.4733749999999997 1.5974736328124997 1.4478749999999998 Q 1.6428486328124996 1.4223749999999997 1.7118486328124998 1.4223749999999997 Q 1.7635986328124997 1.4223749999999997 1.8025986328124997 1.4366249999999998 Q 1.8415986328124996 1.4508749999999997 1.8674736328124997 1.4748749999999997 Q 1.8933486328124998 1.4988749999999997 1.9068486328124996 1.5284999999999997 Q 1.9203486328124997 1.5581249999999998 1.9218486328124997 1.5896249999999996 Q 1.9225986328124998 1.5963749999999997 1.9177236328124998 1.6008749999999998 Q 1.9128486328124996 1.6053749999999996 1.9060986328124998 1.6053749999999996 L 1.8648486328124996 1.6053749999999996 Q 1.8580986328124998 1.6053749999999996 1.8532236328124996 1.6016249999999996 Q 1.8483486328124996 1.5978749999999997 1.8460986328124998 1.5881249999999998 Q 1.8333486328124997 1.5296249999999998 1.7984736328124997 1.5078749999999996 Q 1.7635986328124997 1.4861249999999997 1.7118486328124998 1.4861249999999997 Q 1.6510986328124997 1.4861249999999997 1.6158486328124997 1.5202499999999997 Q 1.5805986328124997 1.5543749999999996 1.5783486328124996 1.6293749999999996 Q 1.5760986328124997 1.6908749999999997 1.5783486328124996 1.7553749999999997 Q 1.5805986328124997 1.8303749999999996 1.6158486328124997 1.8644999999999996 Q 1.6510986328124997 1.8986249999999998 1.7118486328124998 1.8986249999999998 Q 1.7635986328124997 1.8986249999999998 1.7984736328124997 1.8768749999999996 Q 1.8333486328124997 1.8551249999999997 1.8460986328124998 1.7966249999999997 Q 1.8483486328124996 1.7868749999999998 1.8532236328124996 1.7831249999999996 Q 1.8580986328124998 1.7793749999999997 1.8648486328124996 1.7793749999999997 L 1.9060986328124998 1.7793749999999997 Q 1.9128486328124996 1.7793749999999997 1.9177236328124998 1.7834999999999996 Q 1.9225986328124998 1.7876249999999998 1.9218486328124997 1.7943749999999996 Q 1.9203486328124997 1.8258749999999997 1.9068486328124996 1.8558749999999997 Q 1.8933486328124998 1.8858749999999997 1.8674736328124997 1.9098749999999998 Q 1.8415986328124996 1.9338749999999998 1.8025986328124997 1.9481249999999997 Q 1.7635986328124997 1.9623749999999998 1.7118486328124998 1.9623749999999998 M 2.015984985351562 1.9548749999999997 Q 2.0084849853515623 1.9548749999999997 2.003609985351562 1.9499999999999997 Q 1.9987349853515621 1.9451249999999998 1.9987349853515621 1.9376249999999997 L 1.9987349853515621 1.8836249999999997 Q 1.9987349853515621 1.8761249999999996 2.003609985351562 1.8712499999999996 Q 2.0084849853515623 1.8663749999999997 2.015984985351562 1.8663749999999997 L 2.0699849853515624 1.8663749999999997 Q 2.0774849853515622 1.8663749999999997 2.0827349853515624 1.8712499999999996 Q 2.087984985351562 1.8761249999999996 2.087984985351562 1.8836249999999997 L 2.087984985351562 1.9376249999999997 Q 2.087984985351562 1.9451249999999998 2.0827349853515624 1.9499999999999997 Q 2.0774849853515622 1.9548749999999997 2.0699849853515624 1.9548749999999997 L 2.015984985351562 1.9548749999999997 M 2.5777419433593747 1.9623749999999998 Q 2.5087419433593747 1.9623749999999998 2.463366943359375 1.9368749999999997 Q 2.417991943359375 1.9113749999999996 2.394741943359375 1.8656249999999996 Q 2.371491943359375 1.8198749999999997 2.3692419433593748 1.7591249999999996 Q 2.3684919433593747 1.7283749999999998 2.3684919433593747 1.6931249999999998 Q 2.3684919433593747 1.6578749999999998 2.3692419433593748 1.6256249999999997 Q 2.371491943359375 1.5648749999999998 2.394741943359375 1.5191249999999996 Q 2.417991943359375 1.4733749999999997 2.463366943359375 1.4478749999999998 Q 2.5087419433593747 1.4223749999999997 2.5777419433593747 1.4223749999999997 Q 2.629491943359375 1.4223749999999997 2.668491943359375 1.4366249999999998 Q 2.7074919433593747 1.4508749999999997 2.733366943359375 1.4748749999999997 Q 2.759241943359375 1.4988749999999997 2.772741943359375 1.5284999999999997 Q 2.786241943359375 1.5581249999999998 2.7877419433593746 1.5896249999999996 Q 2.7884919433593747 1.5963749999999997 2.783616943359375 1.6008749999999998 Q 2.7787419433593747 1.6053749999999996 2.771991943359375 1.6053749999999996 L 2.7307419433593747 1.6053749999999996 Q 2.723991943359375 1.6053749999999996 2.7191169433593747 1.6016249999999996 Q 2.714241943359375 1.5978749999999997 2.711991943359375 1.5881249999999998 Q 2.699241943359375 1.5296249999999998 2.664366943359375 1.5078749999999996 Q 2.629491943359375 1.4861249999999997 2.5777419433593747 1.4861249999999997 Q 2.5169919433593746 1.4861249999999997 2.481741943359375 1.5202499999999997 Q 2.4464919433593746 1.5543749999999996 2.444241943359375 1.6293749999999996 Q 2.441991943359375 1.6908749999999997 2.444241943359375 1.7553749999999997 Q 2.4464919433593746 1.8303749999999996 2.481741943359375 1.8644999999999996 Q 2.5169919433593746 1.8986249999999998 2.5777419433593747 1.8986249999999998 Q 2.629491943359375 1.8986249999999998 2.664366943359375 1.8768749999999996 Q 2.699241943359375 1.8551249999999997 2.711991943359375 1.7966249999999997 Q 2.714241943359375 1.7868749999999998 2.7191169433593747 1.7831249999999996 Q 2.723991943359375 1.7793749999999997 2.7307419433593747 1.7793749999999997 L 2.771991943359375 1.7793749999999997 Q 2.7787419433593747 1.7793749999999997 2.783616943359375 1.7834999999999996 Q 2.7884919433593747 1.7876249999999998 2.7877419433593746 1.7943749999999996 Q 2.786241943359375 1.8258749999999997 2.772741943359375 1.8558749999999997 Q 2.759241943359375 1.8858749999999997 2.733366943359375 1.9098749999999998 Q 2.7074919433593747 1.9338749999999998 2.668491943359375 1.9481249999999997 Q 2.629491943359375 1.9623749999999998 2.5777419433593747 1.9623749999999998 M 3.0783786621093747 1.9623749999999998 Q 3.013878662109375 1.9623749999999998 2.968128662109375 1.9402499999999996 Q 2.922378662109375 1.9181249999999996 2.897628662109375 1.8719999999999997 Q 2.872878662109375 1.8258749999999997 2.869878662109375 1.7561249999999997 Q 2.869128662109375 1.7231249999999996 2.869128662109375 1.6927499999999998 Q 2.869128662109375 1.6623749999999997 2.869878662109375 1.6293749999999996 Q 2.872878662109375 1.5603749999999996 2.898753662109375 1.5142499999999997 Q 2.9246286621093747 1.4681249999999997 2.9707536621093746 1.4452499999999997 Q 3.016878662109375 1.4223749999999997 3.0783786621093747 1.4223749999999997 Q 3.139128662109375 1.4223749999999997 3.1852536621093748 1.4452499999999997 Q 3.2313786621093747 1.4681249999999997 3.257628662109375 1.5142499999999997 Q 3.283878662109375 1.5603749999999996 3.286128662109375 1.6293749999999996 Q 3.287628662109375 1.6623749999999997 3.287628662109375 1.6927499999999998 Q 3.287628662109375 1.7231249999999996 3.286128662109375 1.7561249999999997 Q 3.283878662109375 1.8258749999999997 3.258753662109375 1.8719999999999997 Q 3.233628662109375 1.9181249999999996 3.187878662109375 1.9402499999999996 Q 3.142128662109375 1.9623749999999998 3.0783786621093747 1.9623749999999998 M 3.0783786621093747 1.8986249999999998 Q 3.1353786621093747 1.8986249999999998 3.1717536621093747 1.8641249999999996 Q 3.2081286621093748 1.8296249999999996 3.211128662109375 1.7523749999999998 Q 3.212628662109375 1.7186249999999996 3.212628662109375 1.6919999999999997 Q 3.212628662109375 1.6653749999999996 3.211128662109375 1.6323749999999997 Q 3.209628662109375 1.5806249999999997 3.192003662109375 1.5483749999999996 Q 3.174378662109375 1.5161249999999997 3.145128662109375 1.5011249999999996 Q 3.115878662109375 1.4861249999999997 3.0783786621093747 1.4861249999999997 Q 3.0408786621093746 1.4861249999999997 3.011628662109375 1.5011249999999996 Q 2.982378662109375 1.5161249999999997 2.964753662109375 1.5483749999999996 Q 2.9471286621093746 1.5806249999999997 2.944878662109375 1.6323749999999997 Q 2.944128662109375 1.6653749999999996 2.944128662109375 1.6919999999999997 Q 2.944128662109375 1.7186249999999996 2.944878662109375 1.7523749999999998 Q 2.9478786621093747 1.8296249999999996 2.9846286621093747 1.8641249999999996 Q 3.021378662109375 1.8986249999999998 3.0783786621093747 1.8986249999999998 M 3.415505126953125 1.9548749999999997 Q 3.407255126953125 1.9548749999999997 3.402755126953125 1.9499999999999997 Q 3.3982551269531247 1.9451249999999998 3.3982551269531247 1.9376249999999997 L 3.3982551269531247 1.4471249999999998 Q 3.3982551269531247 1.4396249999999997 3.402755126953125 1.4347499999999997 Q 3.407255126953125 1.4298749999999996 3.415505126953125 1.4298749999999996 L 3.455255126953125 1.4298749999999996 Q 3.462755126953125 1.4298749999999996 3.467630126953125 1.4347499999999997 Q 3.472505126953125 1.4396249999999997 3.472505126953125 1.4471249999999998 L 3.472505126953125 1.8896249999999997 L 3.721505126953125 1.8896249999999997 Q 3.729755126953125 1.8896249999999997 3.734630126953125 1.8944999999999996 Q 3.7395051269531248 1.8993749999999996 3.7395051269531248 1.9076249999999997 L 3.7395051269531248 1.9376249999999997 Q 3.7395051269531248 1.9451249999999998 3.734630126953125 1.9499999999999997 Q 3.729755126953125 1.9548749999999997 3.721505126953125 1.9548749999999997 L 3.415505126953125 1.9548749999999997 M 3.838871337890625 1.9548749999999997 Q 3.830621337890625 1.9548749999999997 3.826121337890625 1.9499999999999997 Q 3.8216213378906247 1.9451249999999998 3.8216213378906247 1.9376249999999997 L 3.8216213378906247 1.4471249999999998 Q 3.8216213378906247 1.4396249999999997 3.826121337890625 1.4347499999999997 Q 3.830621337890625 1.4298749999999996 3.838871337890625 1.4298749999999996 L 3.878621337890625 1.4298749999999996 Q 3.886121337890625 1.4298749999999996 3.890996337890625 1.4347499999999997 Q 3.895871337890625 1.4396249999999997 3.895871337890625 1.4471249999999998 L 3.895871337890625 1.8896249999999997 L 4.144871337890625 1.8896249999999997 Q 4.153121337890625 1.8896249999999997 4.157996337890625 1.8944999999999996 Q 4.162871337890625 1.8993749999999996 4.162871337890625 1.9076249999999997 L 4.162871337890625 1.9376249999999997 Q 4.162871337890625 1.9451249999999998 4.157996337890625 1.9499999999999997 Q 4.153121337890625 1.9548749999999997 4.144871337890625 1.9548749999999997 L 3.838871337890625 1.9548749999999997 M 4.209737548828125 1.9548749999999997 Q 4.203737548828125 1.9548749999999997 4.199237548828124 1.9503749999999997 Q 4.194737548828124 1.9458749999999998 4.194737548828124 1.9398749999999998 Q 4.194737548828124 1.9361249999999997 4.195487548828124 1.9316249999999997 L 4.381487548828124 1.4463749999999997 Q 4.384487548828124 1.4388749999999997 4.3897375488281245 1.4343749999999997 Q 4.394987548828125 1.4298749999999996 4.405487548828124 1.4298749999999996 L 4.456487548828124 1.4298749999999996 Q 4.466987548828125 1.4298749999999996 4.472237548828124 1.4343749999999997 Q 4.477487548828124 1.4388749999999997 4.480487548828124 1.4463749999999997 L 4.665737548828124 1.9316249999999997 Q 4.667237548828124 1.9361249999999997 4.667237548828124 1.9398749999999998 Q 4.667237548828124 1.9458749999999998 4.662737548828124 1.9503749999999997 Q 4.658237548828125 1.9548749999999997 4.652237548828125 1.9548749999999997 L 4.613987548828124 1.9548749999999997 Q 4.604987548828125 1.9548749999999997 4.6008625488281245 1.9503749999999997 Q 4.596737548828124 1.9458749999999998 4.595237548828124 1.9421249999999997 L 4.5539875488281245 1.8356249999999996 L 4.307987548828125 1.8356249999999996 L 4.266737548828124 1.9421249999999997 Q 4.265987548828124 1.9458749999999998 4.261487548828125 1.9503749999999997 Q 4.256987548828125 1.9548749999999997 4.2479875488281245 1.9548749999999997 L 4.209737548828125 1.9548749999999997 M 4.329737548828125 1.7711249999999996 L 4.532237548828125 1.7711249999999996 L 4.430987548828124 1.5048749999999997 L 4.329737548828125 1.7711249999999996 M 4.765849731445312 1.9548749999999997 Q 4.757599731445312 1.9548749999999997 4.753099731445312 1.9499999999999997 Q 4.748599731445312 1.9451249999999998 4.748599731445312 1.9376249999999997 L 4.748599731445312 1.4478749999999998 Q 4.748599731445312 1.4396249999999997 4.753099731445312 1.4347499999999997 Q 4.757599731445312 1.4298749999999996 4.765849731445312 1.4298749999999996 L 4.971349731445312 1.4298749999999996 Q 5.027599731445312 1.4298749999999996 5.063224731445312 1.4482499999999998 Q 5.098849731445312 1.4666249999999996 5.1157247314453125 1.4981249999999997 Q 5.132599731445312 1.5296249999999998 5.132599731445312 1.5686249999999997 Q 5.132599731445312 1.5993749999999998 5.122474731445312 1.6214999999999997 Q 5.112349731445312 1.6436249999999997 5.097349731445312 1.6574999999999998 Q 5.082349731445312 1.6713749999999996 5.0680997314453125 1.6788749999999997 Q 5.097349731445312 1.6931249999999998 5.120224731445312 1.7253749999999997 Q 5.143099731445312 1.7576249999999998 5.143099731445312 1.8033749999999997 Q 5.143099731445312 1.8446249999999997 5.124349731445312 1.8791249999999997 Q 5.105599731445312 1.9136249999999997 5.0684747314453125 1.9342499999999998 Q 5.031349731445312 1.9548749999999997 4.977349731445312 1.9548749999999997 L 4.765849731445312 1.9548749999999997 M 4.822099731445312 1.8941249999999996 L 4.967599731445312 1.8941249999999996 Q 5.015599731445312 1.8941249999999996 5.041849731445312 1.8678749999999997 Q 5.0680997314453125 1.8416249999999996 5.0680997314453125 1.8033749999999997 Q 5.0680997314453125 1.7636249999999998 5.041849731445312 1.7377499999999997 Q 5.015599731445312 1.7118749999999996 4.967599731445312 1.7118749999999996 L 4.822099731445312 1.7118749999999996 L 4.822099731445312 1.8941249999999996 M 4.822099731445312 1.6518749999999998 L 4.960099731445312 1.6518749999999998 Q 5.008099731445312 1.6518749999999998 5.032849731445312 1.6297499999999996 Q 5.057599731445312 1.6076249999999996 5.057599731445312 1.5693749999999997 Q 5.057599731445312 1.5311249999999996 5.032849731445312 1.5108749999999997 Q 5.008099731445312 1.4906249999999996 4.960099731445312 1.4906249999999996 L 4.822099731445312 1.4906249999999996 L 4.822099731445312 1.6518749999999998 M 5.4397470703124995 1.9623749999999998 Q 5.3752470703125 1.9623749999999998 5.3294970703125 1.9402499999999996 Q 5.2837470703125 1.9181249999999996 5.2589970703125 1.8719999999999997 Q 5.2342470703125 1.8258749999999997 5.2312470703125 1.7561249999999997 Q 5.2304970703124996 1.7231249999999996 5.2304970703124996 1.6927499999999998 Q 5.2304970703124996 1.6623749999999997 5.2312470703125 1.6293749999999996 Q 5.2342470703125 1.5603749999999996 5.2601220703125 1.5142499999999997 Q 5.2859970703125 1.4681249999999997 5.3321220703125 1.4452499999999997 Q 5.3782470703125 1.4223749999999997 5.4397470703124995 1.4223749999999997 Q 5.5004970703125 1.4223749999999997 5.5466220703125 1.4452499999999997 Q 5.5927470703125 1.4681249999999997 5.618997070312499 1.5142499999999997 Q 5.645247070312499 1.5603749999999996 5.647497070312499 1.6293749999999996 Q 5.648997070312499 1.6623749999999997 5.648997070312499 1.6927499999999998 Q 5.648997070312499 1.7231249999999996 5.647497070312499 1.7561249999999997 Q 5.645247070312499 1.8258749999999997 5.620122070312499 1.8719999999999997 Q 5.5949970703125 1.9181249999999996 5.5492470703125 1.9402499999999996 Q 5.503497070312499 1.9623749999999998 5.4397470703124995 1.9623749999999998 M 5.4397470703124995 1.8986249999999998 Q 5.4967470703125 1.8986249999999998 5.5331220703124995 1.8641249999999996 Q 5.5694970703125 1.8296249999999996 5.572497070312499 1.7523749999999998 Q 5.573997070312499 1.7186249999999996 5.573997070312499 1.6919999999999997 Q 5.573997070312499 1.6653749999999996 5.572497070312499 1.6323749999999997 Q 5.5709970703125 1.5806249999999997 5.553372070312499 1.5483749999999996 Q 5.5357470703125 1.5161249999999997 5.506497070312499 1.5011249999999996 Q 5.4772470703125 1.4861249999999997 5.4397470703124995 1.4861249999999997 Q 5.4022470703125 1.4861249999999997 5.3729970703125 1.5011249999999996 Q 5.343747070312499 1.5161249999999997 5.3261220703125 1.5483749999999996 Q 5.3084970703125 1.5806249999999997 5.3062470703125 1.6323749999999997 Q 5.3054970703125 1.6653749999999996 5.3054970703125 1.6919999999999997 Q 5.3054970703125 1.7186249999999996 5.3062470703125 1.7523749999999998 Q 5.3092470703125 1.8296249999999996 5.3459970703124995 1.8641249999999996 Q 5.3827470703125 1.8986249999999998 5.4397470703124995 1.8986249999999998 M 5.776873535156249 1.9548749999999997 Q 5.76862353515625 1.9548749999999997 5.76412353515625 1.9499999999999997 Q 5.7596235351562495 1.9451249999999998 5.7596235351562495 1.9376249999999997 L 5.7596235351562495 1.4478749999999998 Q 5.7596235351562495 1.4396249999999997 5.76412353515625 1.4347499999999997 Q 5.76862353515625 1.4298749999999996 5.776873535156249 1.4298749999999996 L 5.95987353515625 1.4298749999999996 Q 6.04462353515625 1.4298749999999996 6.09412353515625 1.4696249999999997 Q 6.14362353515625 1.5093749999999997 6.14362353515625 1.5873749999999998 Q 6.14362353515625 1.6451249999999997 6.11474853515625 1.6814999999999998 Q 6.085873535156249 1.7178749999999996 6.036373535156249 1.7321249999999997 L 6.15187353515625 1.9316249999999997 Q 6.154123535156249 1.9361249999999997 6.154123535156249 1.9398749999999998 Q 6.154123535156249 1.9458749999999998 6.14924853515625 1.9503749999999997 Q 6.14437353515625 1.9548749999999997 6.13837353515625 1.9548749999999997 L 6.10237353515625 1.9548749999999997 Q 6.0896235351562495 1.9548749999999997 6.083623535156249 1.9481249999999997 Q 6.07762353515625 1.9413749999999996 6.07312353515625 1.9346249999999996 L 5.96437353515625 1.7441249999999997 L 5.83312353515625 1.7441249999999997 L 5.83312353515625 1.9376249999999997 Q 5.83312353515625 1.9451249999999998 5.828248535156249 1.9499999999999997 Q 5.82337353515625 1.9548749999999997 5.81512353515625 1.9548749999999997 L 5.776873535156249 1.9548749999999997 M 5.83312353515625 1.6803749999999997 L 5.95687353515625 1.6803749999999997 Q 6.013123535156249 1.6803749999999997 6.0408735351562495 1.6567499999999997 Q 6.06862353515625 1.6331249999999997 6.06862353515625 1.5866249999999997 Q 6.06862353515625 1.5408749999999998 6.0412485351562495 1.5168749999999998 Q 6.013873535156249 1.4928749999999997 5.95687353515625 1.4928749999999997 L 5.83312353515625 1.4928749999999997 L 5.83312353515625 1.6803749999999997 M 6.2167705078125 1.9548749999999997 Q 6.2107705078125 1.9548749999999997 6.2062705078125 1.9503749999999997 Q 6.201770507812499 1.9458749999999998 6.201770507812499 1.9398749999999998 Q 6.201770507812499 1.9361249999999997 6.202520507812499 1.9316249999999997 L 6.388520507812499 1.4463749999999997 Q 6.3915205078124995 1.4388749999999997 6.3967705078125 1.4343749999999997 Q 6.4020205078125 1.4298749999999996 6.412520507812499 1.4298749999999996 L 6.4635205078124995 1.4298749999999996 Q 6.4740205078125 1.4298749999999996 6.479270507812499 1.4343749999999997 Q 6.4845205078124994 1.4388749999999997 6.4875205078125 1.4463749999999997 L 6.6727705078124995 1.9316249999999997 Q 6.6742705078124995 1.9361249999999997 6.6742705078124995 1.9398749999999998 Q 6.6742705078124995 1.9458749999999998 6.669770507812499 1.9503749999999997 Q 6.6652705078125 1.9548749999999997 6.6592705078125 1.9548749999999997 L 6.621020507812499 1.9548749999999997 Q 6.6120205078125 1.9548749999999997 6.6078955078125 1.9503749999999997 Q 6.6037705078124995 1.9458749999999998 6.6022705078124995 1.9421249999999997 L 6.5610205078125 1.8356249999999996 L 6.3150205078125 1.8356249999999996 L 6.2737705078124995 1.9421249999999997 Q 6.273020507812499 1.9458749999999998 6.2685205078125 1.9503749999999997 Q 6.2640205078125 1.9548749999999997 6.2550205078125 1.9548749999999997 L 6.2167705078125 1.9548749999999997 M 6.3367705078125 1.7711249999999996 L 6.5392705078125 1.7711249999999996 L 6.4380205078124995 1.5048749999999997 L 6.3367705078125 1.7711249999999996 M 6.832151733398438 1.9548749999999997 Q 6.824651733398437 1.9548749999999997 6.819776733398437 1.9499999999999997 Q 6.814901733398437 1.9451249999999998 6.814901733398437 1.9376249999999997 L 6.814901733398437 1.4966249999999997 L 6.670901733398437 1.4966249999999997 Q 6.663401733398437 1.4966249999999997 6.658526733398437 1.4917499999999997 Q 6.653651733398437 1.4868749999999997 6.653651733398437 1.4793749999999997 L 6.653651733398437 1.4478749999999998 Q 6.653651733398437 1.4396249999999997 6.658526733398437 1.4347499999999997 Q 6.663401733398437 1.4298749999999996 6.670901733398437 1.4298749999999996 L 7.032401733398437 1.4298749999999996 Q 7.0406517333984375 1.4298749999999996 7.045526733398438 1.4347499999999997 Q 7.050401733398437 1.4396249999999997 7.050401733398437 1.4478749999999998 L 7.050401733398437 1.4793749999999997 Q 7.050401733398437 1.4868749999999997 7.045526733398438 1.4917499999999997 Q 7.0406517333984375 1.4966249999999997 7.032401733398437 1.4966249999999997 L 6.889151733398437 1.4966249999999997 L 6.889151733398437 1.9376249999999997 Q 6.889151733398437 1.9451249999999998 6.884276733398437 1.9499999999999997 Q 6.879401733398438 1.9548749999999997 6.871151733398437 1.9548749999999997 L 6.832151733398438 1.9548749999999997 M 7.152761352539062 1.9548749999999997 Q 7.144511352539062 1.9548749999999997 7.140011352539062 1.9499999999999997 Q 7.135511352539062 1.9451249999999998 7.135511352539062 1.9376249999999997 L 7.135511352539062 1.4478749999999998 Q 7.135511352539062 1.4396249999999997 7.140011352539062 1.4347499999999997 Q 7.144511352539062 1.4298749999999996 7.152761352539062 1.4298749999999996 L 7.462511352539062 1.4298749999999996 Q 7.470761352539062 1.4298749999999996 7.4752613525390625 1.4347499999999997 Q 7.479761352539063 1.4396249999999997 7.479761352539063 1.4478749999999998 L 7.479761352539063 1.4763749999999995 Q 7.479761352539063 1.4846249999999996 7.4752613525390625 1.4891249999999996 Q 7.470761352539062 1.4936249999999998 7.462511352539062 1.4936249999999998 L 7.207511352539062 1.4936249999999998 L 7.207511352539062 1.6578749999999998 L 7.446011352539062 1.6578749999999998 Q 7.454261352539063 1.6578749999999998 7.458761352539062 1.6627499999999997 Q 7.463261352539062 1.6676249999999997 7.463261352539062 1.6758749999999996 L 7.463261352539062 1.7036249999999997 Q 7.463261352539062 1.7111249999999998 7.458761352539062 1.7159999999999997 Q 7.454261352539063 1.7208749999999997 7.446011352539062 1.7208749999999997 L 7.207511352539062 1.7208749999999997 L 7.207511352539062 1.8911249999999997 L 7.468511352539062 1.8911249999999997 Q 7.476761352539063 1.8911249999999997 7.481261352539063 1.8956249999999997 Q 7.485761352539062 1.9001249999999996 7.485761352539062 1.9083749999999997 L 7.485761352539062 1.9376249999999997 Q 7.485761352539062 1.9451249999999998 7.481261352539063 1.9499999999999997 Q 7.476761352539063 1.9548749999999997 7.468511352539062 1.9548749999999997 L 7.152761352539062 1.9548749999999997 M 7.59339990234375 1.9548749999999997 Q 7.5858999023437494 1.9548749999999997 7.58102490234375 1.9499999999999997 Q 7.57614990234375 1.9451249999999998 7.57614990234375 1.9376249999999997 L 7.57614990234375 1.8836249999999997 Q 7.57614990234375 1.8761249999999996 7.58102490234375 1.8712499999999996 Q 7.5858999023437494 1.8663749999999997 7.59339990234375 1.8663749999999997 L 7.64739990234375 1.8663749999999997 Q 7.65489990234375 1.8663749999999997 7.66014990234375 1.8712499999999996 Q 7.66539990234375 1.8761249999999996 7.66539990234375 1.8836249999999997 L 7.66539990234375 1.9376249999999997 Q 7.66539990234375 1.9451249999999998 7.66014990234375 1.9499999999999997 Q 7.65489990234375 1.9548749999999997 7.64739990234375 1.9548749999999997 L 7.59339990234375 1.9548749999999997 M 8.155156860351562 1.9623749999999998 Q 8.086156860351563 1.9623749999999998 8.040781860351563 1.9368749999999997 Q 7.9954068603515625 1.9113749999999996 7.9721568603515625 1.8656249999999996 Q 7.9489068603515625 1.8198749999999997 7.946656860351562 1.7591249999999996 Q 7.945906860351562 1.7283749999999998 7.945906860351562 1.6931249999999998 Q 7.945906860351562 1.6578749999999998 7.946656860351562 1.6256249999999997 Q 7.9489068603515625 1.5648749999999998 7.9721568603515625 1.5191249999999996 Q 7.9954068603515625 1.4733749999999997 8.040781860351563 1.4478749999999998 Q 8.086156860351563 1.4223749999999997 8.155156860351562 1.4223749999999997 Q 8.206906860351562 1.4223749999999997 8.245906860351562 1.4366249999999998 Q 8.284906860351562 1.4508749999999997 8.310781860351563 1.4748749999999997 Q 8.336656860351562 1.4988749999999997 8.350156860351563 1.5284999999999997 Q 8.363656860351563 1.5581249999999998 8.365156860351563 1.5896249999999996 Q 8.365906860351563 1.5963749999999997 8.361031860351563 1.6008749999999998 Q 8.356156860351563 1.6053749999999996 8.349406860351563 1.6053749999999996 L 8.308156860351563 1.6053749999999996 Q 8.301406860351562 1.6053749999999996 8.296531860351562 1.6016249999999996 Q 8.291656860351562 1.5978749999999997 8.289406860351562 1.5881249999999998 Q 8.276656860351562 1.5296249999999998 8.241781860351562 1.5078749999999996 Q 8.206906860351562 1.4861249999999997 8.155156860351562 1.4861249999999997 Q 8.094406860351562 1.4861249999999997 8.059156860351562 1.5202499999999997 Q 8.023906860351563 1.5543749999999996 8.021656860351563 1.6293749999999996 Q 8.019406860351562 1.6908749999999997 8.021656860351563 1.7553749999999997 Q 8.023906860351563 1.8303749999999996 8.059156860351562 1.8644999999999996 Q 8.094406860351562 1.8986249999999998 8.155156860351562 1.8986249999999998 Q 8.206906860351562 1.8986249999999998 8.241781860351562 1.8768749999999996 Q 8.276656860351562 1.8551249999999997 8.289406860351562 1.7966249999999997 Q 8.291656860351562 1.7868749999999998 8.296531860351562 1.7831249999999996 Q 8.301406860351562 1.7793749999999997 8.308156860351563 1.7793749999999997 L 8.349406860351563 1.7793749999999997 Q 8.356156860351563 1.7793749999999997 8.361031860351563 1.7834999999999996 Q 8.365906860351563 1.7876249999999998 8.365156860351563 1.7943749999999996 Q 8.363656860351563 1.8258749999999997 8.350156860351563 1.8558749999999997 Q 8.336656860351562 1.8858749999999997 8.310781860351563 1.9098749999999998 Q 8.284906860351562 1.9338749999999998 8.245906860351562 1.9481249999999997 Q 8.206906860351562 1.9623749999999998 8.155156860351562 1.9623749999999998 M 8.484043579101561 1.9548749999999997 Q 8.47579357910156 1.9548749999999997 8.471293579101562 1.9499999999999997 Q 8.466793579101562 1.9451249999999998 8.466793579101562 1.9376249999999997 L 8.466793579101562 1.4478749999999998 Q 8.466793579101562 1.4396249999999997 8.471293579101562 1.4347499999999997 Q 8.47579357910156 1.4298749999999996 8.484043579101561 1.4298749999999996 L 8.667043579101561 1.4298749999999996 Q 8.751793579101562 1.4298749999999996 8.80129357910156 1.4696249999999997 Q 8.85079357910156 1.5093749999999997 8.85079357910156 1.5873749999999998 Q 8.85079357910156 1.6451249999999997 8.821918579101562 1.6814999999999998 Q 8.793043579101562 1.7178749999999996 8.743543579101562 1.7321249999999997 L 8.859043579101561 1.9316249999999997 Q 8.861293579101561 1.9361249999999997 8.861293579101561 1.9398749999999998 Q 8.861293579101561 1.9458749999999998 8.856418579101561 1.9503749999999997 Q 8.85154357910156 1.9548749999999997 8.845543579101562 1.9548749999999997 L 8.809543579101561 1.9548749999999997 Q 8.796793579101562 1.9548749999999997 8.790793579101562 1.9481249999999997 Q 8.784793579101562 1.9413749999999996 8.780293579101562 1.9346249999999996 L 8.671543579101561 1.7441249999999997 L 8.540293579101562 1.7441249999999997 L 8.540293579101562 1.9376249999999997 Q 8.540293579101562 1.9451249999999998 8.535418579101561 1.9499999999999997 Q 8.530543579101561 1.9548749999999997 8.52229357910156 1.9548749999999997 L 8.484043579101561 1.9548749999999997 M 8.540293579101562 1.6803749999999997 L 8.66404357910156 1.6803749999999997 Q 8.720293579101561 1.6803749999999997 8.748043579101562 1.6567499999999997 Q 8.775793579101562 1.6331249999999997 8.775793579101562 1.5866249999999997 Q 8.775793579101562 1.5408749999999998 8.748418579101562 1.5168749999999998 Q 8.721043579101561 1.4928749999999997 8.66404357910156 1.4928749999999997 L 8.540293579101562 1.4928749999999997 L 8.540293579101562 1.6803749999999997 M 8.976440551757811 1.9548749999999997 Q 8.96819055175781 1.9548749999999997 8.963690551757812 1.9499999999999997 Q 8.959190551757812 1.9451249999999998 8.959190551757812 1.9376249999999997 L 8.959190551757812 1.4478749999999998 Q 8.959190551757812 1.4396249999999997 8.963690551757812 1.4347499999999997 Q 8.96819055175781 1.4298749999999996 8.976440551757811 1.4298749999999996 L 9.286190551757812 1.4298749999999996 Q 9.29444055175781 1.4298749999999996 9.298940551757811 1.4347499999999997 Q 9.303440551757811 1.4396249999999997 9.303440551757811 1.4478749999999998 L 9.303440551757811 1.4763749999999995 Q 9.303440551757811 1.4846249999999996 9.298940551757811 1.4891249999999996 Q 9.29444055175781 1.4936249999999998 9.286190551757812 1.4936249999999998 L 9.031190551757811 1.4936249999999998 L 9.031190551757811 1.6578749999999998 L 9.269690551757812 1.6578749999999998 Q 9.277940551757812 1.6578749999999998 9.282440551757812 1.6627499999999997 Q 9.286940551757812 1.6676249999999997 9.286940551757812 1.6758749999999996 L 9.286940551757812 1.7036249999999997 Q 9.286940551757812 1.7111249999999998 9.282440551757812 1.7159999999999997 Q 9.277940551757812 1.7208749999999997 9.269690551757812 1.7208749999999997 L 9.031190551757811 1.7208749999999997 L 9.031190551757811 1.8911249999999997 L 9.292190551757812 1.8911249999999997 Q 9.300440551757811 1.8911249999999997 9.304940551757811 1.8956249999999997 Q 9.309440551757811 1.9001249999999996 9.309440551757811 1.9083749999999997 L 9.309440551757811 1.9376249999999997 Q 9.309440551757811 1.9451249999999998 9.304940551757811 1.9499999999999997 Q 9.300440551757811 1.9548749999999997 9.292190551757812 1.9548749999999997 L 8.976440551757811 1.9548749999999997 M 9.379579101562499 1.9548749999999997 Q 9.373579101562498 1.9548749999999997 9.3690791015625 1.9503749999999997 Q 9.3645791015625 1.9458749999999998 9.3645791015625 1.9398749999999998 Q 9.3645791015625 1.9361249999999997 9.3653291015625 1.9316249999999997 L 9.5513291015625 1.4463749999999997 Q 9.5543291015625 1.4388749999999997 9.5595791015625 1.4343749999999997 Q 9.564829101562498 1.4298749999999996 9.575329101562499 1.4298749999999996 L 9.626329101562499 1.4298749999999996 Q 9.6368291015625 1.4298749999999996 9.6420791015625 1.4343749999999997 Q 9.6473291015625 1.4388749999999997 9.6503291015625 1.4463749999999997 L 9.8355791015625 1.9316249999999997 Q 9.8370791015625 1.9361249999999997 9.8370791015625 1.9398749999999998 Q 9.8370791015625 1.9458749999999998 9.8325791015625 1.9503749999999997 Q 9.8280791015625 1.9548749999999997 9.8220791015625 1.9548749999999997 L 9.7838291015625 1.9548749999999997 Q 9.7748291015625 1.9548749999999997 9.7707041015625 1.9503749999999997 Q 9.766579101562499 1.9458749999999998 9.765079101562499 1.9421249999999997 L 9.7238291015625 1.8356249999999996 L 9.477829101562499 1.8356249999999996 L 9.436579101562499 1.9421249999999997 Q 9.435829101562499 1.9458749999999998 9.431329101562499 1.9503749999999997 Q 9.426829101562499 1.9548749999999997 9.4178291015625 1.9548749999999997 L 9.379579101562499 1.9548749999999997 M 9.4995791015625 1.7711249999999996 L 9.702079101562498 1.7711249999999996 L 9.6008291015625 1.5048749999999997 L 9.4995791015625 1.7711249999999996 M 9.994960327148437 1.9548749999999997 Q 9.987460327148437 1.9548749999999997 9.982585327148437 1.9499999999999997 Q 9.977710327148436 1.9451249999999998 9.977710327148436 1.9376249999999997 L 9.977710327148436 1.4966249999999997 L 9.833710327148436 1.4966249999999997 Q 9.826210327148436 1.4966249999999997 9.821335327148436 1.4917499999999997 Q 9.816460327148437 1.4868749999999997 9.816460327148437 1.4793749999999997 L 9.816460327148437 1.4478749999999998 Q 9.816460327148437 1.4396249999999997 9.821335327148436 1.4347499999999997 Q 9.826210327148436 1.4298749999999996 9.833710327148436 1.4298749999999996 L 10.195210327148438 1.4298749999999996 Q 10.203460327148436 1.4298749999999996 10.208335327148436 1.4347499999999997 Q 10.213210327148436 1.4396249999999997 10.213210327148436 1.4478749999999998 L 10.213210327148436 1.4793749999999997 Q 10.213210327148436 1.4868749999999997 10.208335327148436 1.4917499999999997 Q 10.203460327148436 1.4966249999999997 10.195210327148438 1.4966249999999997 L 10.051960327148437 1.4966249999999997 L 10.051960327148437 1.9376249999999997 Q 10.051960327148437 1.9451249999999998 10.047085327148437 1.9499999999999997 Q 10.042210327148437 1.9548749999999997 10.033960327148437 1.9548749999999997 L 9.994960327148437 1.9548749999999997 M 10.315569946289061 1.9548749999999997 Q 10.307319946289061 1.9548749999999997 10.302819946289063 1.9499999999999997 Q 10.298319946289062 1.9451249999999998 10.298319946289062 1.9376249999999997 L 10.298319946289062 1.4478749999999998 Q 10.298319946289062 1.4396249999999997 10.302819946289063 1.4347499999999997 Q 10.307319946289061 1.4298749999999996 10.315569946289061 1.4298749999999996 L 10.625319946289062 1.4298749999999996 Q 10.633569946289061 1.4298749999999996 10.638069946289061 1.4347499999999997 Q 10.642569946289061 1.4396249999999997 10.642569946289061 1.4478749999999998 L 10.642569946289061 1.4763749999999995 Q 10.642569946289061 1.4846249999999996 10.638069946289061 1.4891249999999996 Q 10.633569946289061 1.4936249999999998 10.625319946289062 1.4936249999999998 L 10.370319946289062 1.4936249999999998 L 10.370319946289062 1.6578749999999998 L 10.608819946289062 1.6578749999999998 Q 10.617069946289062 1.6578749999999998 10.621569946289062 1.6627499999999997 Q 10.626069946289062 1.6676249999999997 10.626069946289062 1.6758749999999996 L 10.626069946289062 1.7036249999999997 Q 10.626069946289062 1.7111249999999998 10.621569946289062 1.7159999999999997 Q 10.617069946289062 1.7208749999999997 10.608819946289062 1.7208749999999997 L 10.370319946289062 1.7208749999999997 L 10.370319946289062 1.8911249999999997 L 10.63131994628906 1.8911249999999997 Q 10.639569946289061 1.8911249999999997 10.644069946289061 1.8956249999999997 Q 10.648569946289062 1.9001249999999996 10.648569946289062 1.9083749999999997 L 10.648569946289062 1.9376249999999997 Q 10.648569946289062 1.9451249999999998 10.644069946289061 1.9499999999999997 Q 10.639569946289061 1.9548749999999997 10.63131994628906 1.9548749999999997 L 10.315569946289061 1.9548749999999997 M 11.01533642578125 1.9548749999999997 Q 11.00558642578125 1.9548749999999997 10.99996142578125 1.9496249999999997 Q 10.994336425781249 1.9443749999999997 10.992086425781249 1.9346249999999996 L 10.895336425781249 1.4531249999999996 Q 10.894586425781249 1.4501249999999997 10.894586425781249 1.4478749999999998 Q 10.894586425781249 1.4456249999999997 10.894586425781249 1.4448749999999997 Q 10.894586425781249 1.4388749999999997 10.899086425781249 1.4343749999999997 Q 10.90358642578125 1.4298749999999996 10.90958642578125 1.4298749999999996 L 10.948586425781249 1.4298749999999996 Q 10.96433642578125 1.4298749999999996 10.96658642578125 1.4426249999999996 L 11.043086425781249 1.8296249999999996 L 11.124086425781249 1.5641249999999998 Q 11.126336425781249 1.5573749999999997 11.131961425781249 1.5517499999999997 Q 11.13758642578125 1.5461249999999997 11.14808642578125 1.5461249999999997 L 11.175836425781249 1.5461249999999997 Q 11.18708642578125 1.5461249999999997 11.19233642578125 1.5517499999999997 Q 11.19758642578125 1.5573749999999997 11.19908642578125 1.5641249999999998 L 11.28083642578125 1.8296249999999996 L 11.356586425781249 1.4426249999999996 Q 11.358836425781249 1.4298749999999996 11.37533642578125 1.4298749999999996 L 11.414336425781249 1.4298749999999996 Q 11.42033642578125 1.4298749999999996 11.42483642578125 1.4343749999999997 Q 11.42933642578125 1.4388749999999997 11.42933642578125 1.4448749999999997 Q 11.42933642578125 1.4456249999999997 11.42896142578125 1.4478749999999998 Q 11.42858642578125 1.4501249999999997 11.42858642578125 1.4531249999999996 L 11.33183642578125 1.9346249999999996 Q 11.32958642578125 1.9443749999999997 11.323961425781249 1.9496249999999997 Q 11.318336425781249 1.9548749999999997 11.308586425781249 1.9548749999999997 L 11.27933642578125 1.9548749999999997 Q 11.268836425781249 1.9548749999999997 11.262836425781249 1.9496249999999997 Q 11.25683642578125 1.9443749999999997 11.25458642578125 1.9361249999999997 L 11.16158642578125 1.6503749999999997 L 11.06933642578125 1.9361249999999997 Q 11.06633642578125 1.9443749999999997 11.06071142578125 1.9496249999999997 Q 11.05508642578125 1.9548749999999997 11.04458642578125 1.9548749999999997 L 11.01533642578125 1.9548749999999997 M 11.545980468749999 1.9548749999999997 Q 11.537730468749999 1.9548749999999997 11.53323046875 1.9499999999999997 Q 11.52873046875 1.9451249999999998 11.52873046875 1.9376249999999997 L 11.52873046875 1.4471249999999998 Q 11.52873046875 1.4396249999999997 11.53323046875 1.4347499999999997 Q 11.537730468749999 1.4298749999999996 11.545980468749999 1.4298749999999996 L 11.585730468749999 1.4298749999999996 Q 11.593980468749999 1.4298749999999996 11.59848046875 1.4347499999999997 Q 11.60298046875 1.4396249999999997 11.60298046875 1.4471249999999998 L 11.60298046875 1.9376249999999997 Q 11.60298046875 1.9451249999999998 11.59848046875 1.9499999999999997 Q 11.593980468749999 1.9548749999999997 11.585730468749999 1.9548749999999997 L 11.545980468749999 1.9548749999999997 M 11.866613159179687 1.9548749999999997 Q 11.859113159179687 1.9548749999999997 11.854238159179687 1.9499999999999997 Q 11.849363159179687 1.9451249999999998 11.849363159179687 1.9376249999999997 L 11.849363159179687 1.4966249999999997 L 11.705363159179687 1.4966249999999997 Q 11.697863159179686 1.4966249999999997 11.692988159179686 1.4917499999999997 Q 11.688113159179688 1.4868749999999997 11.688113159179688 1.4793749999999997 L 11.688113159179688 1.4478749999999998 Q 11.688113159179688 1.4396249999999997 11.692988159179686 1.4347499999999997 Q 11.697863159179686 1.4298749999999996 11.705363159179687 1.4298749999999996 L 12.066863159179688 1.4298749999999996 Q 12.075113159179686 1.4298749999999996 12.079988159179686 1.4347499999999997 Q 12.084863159179687 1.4396249999999997 12.084863159179687 1.4478749999999998 L 12.084863159179687 1.4793749999999997 Q 12.084863159179687 1.4868749999999997 12.079988159179686 1.4917499999999997 Q 12.075113159179686 1.4966249999999997 12.066863159179688 1.4966249999999997 L 11.923613159179688 1.4966249999999997 L 11.923613159179688 1.9376249999999997 Q 11.923613159179688 1.9451249999999998 11.918738159179687 1.9499999999999997 Q 11.913863159179687 1.9548749999999997 11.905613159179687 1.9548749999999997 L 11.866613159179687 1.9548749999999997 M 12.187222778320312 1.9548749999999997 Q 12.178972778320311 1.9548749999999997 12.174472778320313 1.9499999999999997 Q 12.169972778320313 1.9451249999999998 12.169972778320313 1.9376249999999997 L 12.169972778320313 1.4478749999999998 Q 12.169972778320313 1.4396249999999997 12.174472778320313 1.4347499999999997 Q 12.178972778320311 1.4298749999999996 12.187222778320312 1.4298749999999996 L 12.225472778320311 1.4298749999999996 Q 12.233722778320312 1.4298749999999996 12.238597778320312 1.4347499999999997 Q 12.243472778320312 1.4396249999999997 12.243472778320312 1.4478749999999998 L 12.243472778320312 1.6548749999999997 L 12.501472778320313 1.6548749999999997 L 12.501472778320313 1.4478749999999998 Q 12.501472778320313 1.4396249999999997 12.506347778320311 1.4347499999999997 Q 12.511222778320311 1.4298749999999996 12.518722778320312 1.4298749999999996 L 12.556972778320311 1.4298749999999996 Q 12.565222778320312 1.4298749999999996 12.570097778320312 1.4347499999999997 Q 12.574972778320312 1.4396249999999997 12.574972778320312 1.4478749999999998 L 12.574972778320312 1.9376249999999997 Q 12.574972778320312 1.9451249999999998 12.570097778320312 1.9499999999999997 Q 12.565222778320312 1.9548749999999997 12.556972778320311 1.9548749999999997 L 12.518722778320312 1.9548749999999997 Q 12.511222778320311 1.9548749999999997 12.506347778320311 1.9499999999999997 Q 12.501472778320313 1.9451249999999998 12.501472778320313 1.9376249999999997 L 12.501472778320313 1.7223749999999998 L 12.243472778320312 1.7223749999999998 L 12.243472778320312 1.9376249999999997 Q 12.243472778320312 1.9451249999999998 12.238597778320312 1.9499999999999997 Q 12.233722778320312 1.9548749999999997 12.225472778320311 1.9548749999999997 L 12.187222778320312 1.9548749999999997 M 12.895589721679688 1.9623749999999998 Q 12.831089721679687 1.9623749999999998 12.785339721679687 1.9402499999999996 Q 12.739589721679687 1.9181249999999996 12.714839721679686 1.8719999999999997 Q 12.690089721679687 1.8258749999999997 12.687089721679687 1.7561249999999997 Q 12.686339721679687 1.7231249999999996 12.686339721679687 1.6927499999999998 Q 12.686339721679687 1.6623749999999997 12.687089721679687 1.6293749999999996 Q 12.690089721679687 1.5603749999999996 12.715964721679686 1.5142499999999997 Q 12.741839721679687 1.4681249999999997 12.787964721679687 1.4452499999999997 Q 12.834089721679687 1.4223749999999997 12.895589721679688 1.4223749999999997 Q 12.956339721679687 1.4223749999999997 13.002464721679686 1.4452499999999997 Q 13.048589721679686 1.4681249999999997 13.074839721679687 1.5142499999999997 Q 13.101089721679687 1.5603749999999996 13.103339721679687 1.6293749999999996 Q 13.104839721679687 1.6623749999999997 13.104839721679687 1.6927499999999998 Q 13.104839721679687 1.7231249999999996 13.103339721679687 1.7561249999999997 Q 13.101089721679687 1.8258749999999997 13.075964721679687 1.8719999999999997 Q 13.050839721679687 1.9181249999999996 13.005089721679687 1.9402499999999996 Q 12.959339721679687 1.9623749999999998 12.895589721679688 1.9623749999999998 M 12.895589721679688 1.8986249999999998 Q 12.952589721679686 1.8986249999999998 12.988964721679688 1.8641249999999996 Q 13.025339721679687 1.8296249999999996 13.028339721679687 1.7523749999999998 Q 13.029839721679688 1.7186249999999996 13.029839721679688 1.6919999999999997 Q 13.029839721679688 1.6653749999999996 13.028339721679687 1.6323749999999997 Q 13.026839721679687 1.5806249999999997 13.009214721679687 1.5483749999999996 Q 12.991589721679688 1.5161249999999997 12.962339721679687 1.5011249999999996 Q 12.933089721679687 1.4861249999999997 12.895589721679688 1.4861249999999997 Q 12.858089721679686 1.4861249999999997 12.828839721679687 1.5011249999999996 Q 12.799589721679688 1.5161249999999997 12.781964721679687 1.5483749999999996 Q 12.764339721679686 1.5806249999999997 12.762089721679686 1.6323749999999997 Q 12.761339721679686 1.6653749999999996 12.761339721679686 1.6919999999999997 Q 12.761339721679686 1.7186249999999996 12.762089721679686 1.7523749999999998 Q 12.765089721679686 1.8296249999999996 12.801839721679688 1.8641249999999996 Q 12.838589721679687 1.8986249999999998 12.895589721679688 1.8986249999999998 M 13.413466186523436 1.9623749999999998 Q 13.350466186523438 1.9623749999999998 13.305091186523438 1.9398749999999998 Q 13.259716186523438 1.9173749999999996 13.235341186523437 1.8712499999999996 Q 13.210966186523438 1.8251249999999997 13.210966186523438 1.7523749999999998 L 13.210966186523438 1.4478749999999998 Q 13.210966186523438 1.4396249999999997 13.215466186523438 1.4347499999999997 Q 13.219966186523438 1.4298749999999996 13.228216186523436 1.4298749999999996 L 13.266466186523438 1.4298749999999996 Q 13.274716186523436 1.4298749999999996 13.279591186523437 1.4347499999999997 Q 13.284466186523437 1.4396249999999997 13.284466186523437 1.4478749999999998 L 13.284466186523437 1.7538749999999996 Q 13.284466186523437 1.8273749999999997 13.318966186523436 1.8626249999999998 Q 13.353466186523438 1.8978749999999998 13.413466186523436 1.8978749999999998 Q 13.472716186523437 1.8978749999999998 13.507591186523436 1.8626249999999998 Q 13.542466186523438 1.8273749999999997 13.542466186523438 1.7538749999999996 L 13.542466186523438 1.4478749999999998 Q 13.542466186523438 1.4396249999999997 13.547341186523438 1.4347499999999997 Q 13.552216186523436 1.4298749999999996 13.559716186523437 1.4298749999999996 L 13.598716186523436 1.4298749999999996 Q 13.606216186523437 1.4298749999999996 13.611091186523437 1.4347499999999997 Q 13.615966186523437 1.4396249999999997 13.615966186523437 1.4478749999999998 L 13.615966186523437 1.7523749999999998 Q 13.615966186523437 1.8251249999999997 13.591591186523438 1.8712499999999996 Q 13.567216186523437 1.9173749999999996 13.522216186523437 1.9398749999999998 Q 13.477216186523437 1.9623749999999998 13.413466186523436 1.9623749999999998 M 13.874332763671875 1.9548749999999997 Q 13.866832763671875 1.9548749999999997 13.861957763671874 1.9499999999999997 Q 13.857082763671874 1.9451249999999998 13.857082763671874 1.9376249999999997 L 13.857082763671874 1.4966249999999997 L 13.713082763671874 1.4966249999999997 Q 13.705582763671874 1.4966249999999997 13.700707763671874 1.4917499999999997 Q 13.695832763671875 1.4868749999999997 13.695832763671875 1.4793749999999997 L 13.695832763671875 1.4478749999999998 Q 13.695832763671875 1.4396249999999997 13.700707763671874 1.4347499999999997 Q 13.705582763671874 1.4298749999999996 13.713082763671874 1.4298749999999996 L 14.074582763671875 1.4298749999999996 Q 14.082832763671874 1.4298749999999996 14.087707763671874 1.4347499999999997 Q 14.092582763671874 1.4396249999999997 14.092582763671874 1.4478749999999998 L 14.092582763671874 1.4793749999999997 Q 14.092582763671874 1.4868749999999997 14.087707763671874 1.4917499999999997 Q 14.082832763671874 1.4966249999999997 14.074582763671875 1.4966249999999997 L 13.931332763671875 1.4966249999999997 L 13.931332763671875 1.9376249999999997 Q 13.931332763671875 1.9451249999999998 13.926457763671875 1.9499999999999997 Q 13.921582763671875 1.9548749999999997 13.913332763671875 1.9548749999999997 L 13.874332763671875 1.9548749999999997 M 14.36104541015625 1.9548749999999997 Q 14.352795410156249 1.9548749999999997 14.34829541015625 1.9499999999999997 Q 14.34379541015625 1.9451249999999998 14.34379541015625 1.9376249999999997 L 14.34379541015625 1.4471249999999998 Q 14.34379541015625 1.4396249999999997 14.34829541015625 1.4347499999999997 Q 14.352795410156249 1.4298749999999996 14.36104541015625 1.4298749999999996 L 14.400795410156249 1.4298749999999996 Q 14.40829541015625 1.4298749999999996 14.41317041015625 1.4347499999999997 Q 14.41804541015625 1.4396249999999997 14.41804541015625 1.4471249999999998 L 14.41804541015625 1.8896249999999997 L 14.66704541015625 1.8896249999999997 Q 14.67529541015625 1.8896249999999997 14.680170410156249 1.8944999999999996 Q 14.685045410156249 1.8993749999999996 14.685045410156249 1.9076249999999997 L 14.685045410156249 1.9376249999999997 Q 14.685045410156249 1.9451249999999998 14.680170410156249 1.9499999999999997 Q 14.67529541015625 1.9548749999999997 14.66704541015625 1.9548749999999997 L 14.36104541015625 1.9548749999999997 M 14.78441162109375 1.9548749999999997 Q 14.776161621093749 1.9548749999999997 14.77166162109375 1.9499999999999997 Q 14.76716162109375 1.9451249999999998 14.76716162109375 1.9376249999999997 L 14.76716162109375 1.4471249999999998 Q 14.76716162109375 1.4396249999999997 14.77166162109375 1.4347499999999997 Q 14.776161621093749 1.4298749999999996 14.78441162109375 1.4298749999999996 L 14.824161621093749 1.4298749999999996 Q 14.83241162109375 1.4298749999999996 14.83691162109375 1.4347499999999997 Q 14.84141162109375 1.4396249999999997 14.84141162109375 1.4471249999999998 L 14.84141162109375 1.9376249999999997 Q 14.84141162109375 1.9451249999999998 14.83691162109375 1.9499999999999997 Q 14.83241162109375 1.9548749999999997 14.824161621093749 1.9548749999999997 L 14.78441162109375 1.9548749999999997 M 14.990294311523437 1.9548749999999997 Q 14.982794311523437 1.9548749999999997 14.977919311523438 1.9499999999999997 Q 14.973044311523438 1.9451249999999998 14.973044311523438 1.9376249999999997 L 14.973044311523438 1.4478749999999998 Q 14.973044311523438 1.4396249999999997 14.977919311523438 1.4347499999999997 Q 14.982794311523437 1.4298749999999996 14.990294311523437 1.4298749999999996 L 15.027794311523436 1.4298749999999996 Q 15.036794311523437 1.4298749999999996 15.041294311523437 1.4343749999999997 Q 15.045794311523437 1.4388749999999997 15.047294311523437 1.4418749999999996 L 15.205544311523438 1.7448749999999997 L 15.365294311523437 1.4418749999999996 Q 15.366794311523437 1.4388749999999997 15.370919311523437 1.4343749999999997 Q 15.375044311523437 1.4298749999999996 15.384044311523438 1.4298749999999996 L 15.420794311523437 1.4298749999999996 Q 15.429044311523437 1.4298749999999996 15.433919311523438 1.4347499999999997 Q 15.438794311523438 1.4396249999999997 15.438794311523438 1.4478749999999998 L 15.438794311523438 1.9376249999999997 Q 15.438794311523438 1.9451249999999998 15.433919311523438 1.9499999999999997 Q 15.429044311523437 1.9548749999999997 15.420794311523437 1.9548749999999997 L 15.384044311523438 1.9548749999999997 Q 15.376544311523437 1.9548749999999997 15.371669311523437 1.9499999999999997 Q 15.366794311523437 1.9451249999999998 15.366794311523437 1.9376249999999997 L 15.366794311523437 1.5686249999999997 L 15.241544311523437 1.8131249999999997 Q 15.238544311523437 1.8206249999999997 15.232544311523437 1.8247499999999997 Q 15.226544311523437 1.8288749999999996 15.217544311523437 1.8288749999999996 L 15.194294311523437 1.8288749999999996 Q 15.184544311523437 1.8288749999999996 15.179294311523437 1.8247499999999997 Q 15.174044311523437 1.8206249999999997 15.170294311523437 1.8131249999999997 L 15.044294311523437 1.5686249999999997 L 15.044294311523437 1.9376249999999997 Q 15.044294311523437 1.9451249999999998 15.039419311523437 1.9499999999999997 Q 15.034544311523437 1.9548749999999997 15.027044311523436 1.9548749999999997 L 14.990294311523437 1.9548749999999997 M 15.586924072265624 1.9548749999999997 Q 15.578674072265624 1.9548749999999997 15.574174072265626 1.9499999999999997 Q 15.569674072265625 1.9451249999999998 15.569674072265625 1.9376249999999997 L 15.569674072265625 1.4471249999999998 Q 15.569674072265625 1.4396249999999997 15.574174072265626 1.4347499999999997 Q 15.578674072265624 1.4298749999999996 15.586924072265624 1.4298749999999996 L 15.626674072265624 1.4298749999999996 Q 15.634924072265624 1.4298749999999996 15.639424072265625 1.4347499999999997 Q 15.643924072265625 1.4396249999999997 15.643924072265625 1.4471249999999998 L 15.643924072265625 1.9376249999999997 Q 15.643924072265625 1.9451249999999998 15.639424072265625 1.9499999999999997 Q 15.634924072265624 1.9548749999999997 15.626674072265624 1.9548749999999997 L 15.586924072265624 1.9548749999999997 M 15.907556762695313 1.9548749999999997 Q 15.900056762695312 1.9548749999999997 15.895181762695312 1.9499999999999997 Q 15.890306762695312 1.9451249999999998 15.890306762695312 1.9376249999999997 L 15.890306762695312 1.4966249999999997 L 15.746306762695312 1.4966249999999997 Q 15.738806762695312 1.4966249999999997 15.733931762695311 1.4917499999999997 Q 15.729056762695313 1.4868749999999997 15.729056762695313 1.4793749999999997 L 15.729056762695313 1.4478749999999998 Q 15.729056762695313 1.4396249999999997 15.733931762695311 1.4347499999999997 Q 15.738806762695312 1.4298749999999996 15.746306762695312 1.4298749999999996 L 16.10780676269531 1.4298749999999996 Q 16.11605676269531 1.4298749999999996 16.120931762695314 1.4347499999999997 Q 16.125806762695312 1.4396249999999997 16.125806762695312 1.4478749999999998 L 16.125806762695312 1.4793749999999997 Q 16.125806762695312 1.4868749999999997 16.120931762695314 1.4917499999999997 Q 16.11605676269531 1.4966249999999997 16.10780676269531 1.4966249999999997 L 15.964556762695313 1.4966249999999997 L 15.964556762695313 1.9376249999999997 Q 15.964556762695313 1.9451249999999998 15.959681762695313 1.9499999999999997 Q 15.954806762695313 1.9548749999999997 15.946556762695312 1.9548749999999997 L 15.907556762695313 1.9548749999999997 M 16.376645141601564 1.9623749999999998 Q 16.31139514160156 1.9623749999999998 16.267145141601564 1.9421249999999997 Q 16.222895141601562 1.9218749999999998 16.199270141601563 1.8899999999999997 Q 16.175645141601564 1.8581249999999998 16.174145141601564 1.8228749999999998 Q 16.174145141601564 1.8168749999999996 16.179020141601562 1.8119999999999996 Q 16.183895141601564 1.8071249999999996 16.19064514160156 1.8071249999999996 L 16.228895141601562 1.8071249999999996 Q 16.237895141601562 1.8071249999999996 16.242395141601563 1.8116249999999996 Q 16.246895141601563 1.8161249999999998 16.248395141601563 1.8221249999999998 Q 16.252895141601563 1.8401249999999998 16.267145141601564 1.8577499999999998 Q 16.281395141601564 1.8753749999999998 16.308020141601563 1.8869999999999998 Q 16.334645141601563 1.8986249999999998 16.376645141601564 1.8986249999999998 Q 16.441145141601563 1.8986249999999998 16.471520141601562 1.8757499999999996 Q 16.501895141601562 1.8528749999999996 16.501895141601562 1.8146249999999997 Q 16.501895141601562 1.7883749999999996 16.485770141601563 1.7722499999999997 Q 16.469645141601564 1.7561249999999997 16.436645141601563 1.7433749999999997 Q 16.40364514160156 1.7306249999999996 16.351145141601563 1.7156249999999997 Q 16.29639514160156 1.6998749999999996 16.260395141601563 1.6811249999999998 Q 16.224395141601562 1.6623749999999997 16.206770141601563 1.6346249999999998 Q 16.189145141601564 1.6068749999999996 16.189145141601564 1.5641249999999998 Q 16.189145141601564 1.5236249999999996 16.21089514160156 1.4917499999999997 Q 16.232645141601562 1.4598749999999998 16.273895141601564 1.4411249999999995 Q 16.315145141601562 1.4223749999999997 16.372895141601564 1.4223749999999997 Q 16.419395141601562 1.4223749999999997 16.45427014160156 1.4347499999999997 Q 16.48914514160156 1.4471249999999998 16.512395141601562 1.4677499999999997 Q 16.535645141601563 1.4883749999999996 16.547645141601564 1.5119999999999996 Q 16.559645141601564 1.5356249999999996 16.560395141601564 1.5581249999999998 Q 16.560395141601564 1.5633749999999997 16.556645141601564 1.5682499999999997 Q 16.552895141601564 1.5731249999999997 16.544645141601563 1.5731249999999997 L 16.504895141601562 1.5731249999999997 Q 16.49964514160156 1.5731249999999997 16.494020141601563 1.5701249999999998 Q 16.48839514160156 1.5671249999999997 16.48539514160156 1.5588749999999996 Q 16.48089514160156 1.5281249999999997 16.450895141601563 1.5071249999999996 Q 16.420895141601562 1.4861249999999997 16.372895141601564 1.4861249999999997 Q 16.324145141601562 1.4861249999999997 16.293770141601563 1.5048749999999997 Q 16.263395141601563 1.5236249999999996 16.263395141601563 1.5633749999999997 Q 16.263395141601563 1.5888749999999998 16.277645141601564 1.6057499999999996 Q 16.29189514160156 1.6226249999999998 16.322645141601562 1.6353749999999998 Q 16.353395141601563 1.6481249999999996 16.40289514160156 1.6623749999999997 Q 16.462895141601564 1.6788749999999997 16.50114514160156 1.6972499999999997 Q 16.539395141601563 1.7156249999999997 16.557770141601562 1.7429999999999997 Q 16.57614514160156 1.7703749999999996 16.57614514160156 1.8131249999999997 Q 16.57614514160156 1.8603749999999997 16.551395141601564 1.8937499999999996 Q 16.526645141601563 1.9271249999999998 16.482020141601563 1.9447499999999998 Q 16.437395141601563 1.9623749999999998 16.376645141601564 1.9623749999999998 M 16.677777099609372 1.9548749999999997 Q 16.670277099609372 1.9548749999999997 16.665402099609373 1.9499999999999997 Q 16.66052709960937 1.9451249999999998 16.66052709960937 1.9376249999999997 L 16.66052709960937 1.8836249999999997 Q 16.66052709960937 1.8761249999999996 16.665402099609373 1.8712499999999996 Q 16.670277099609372 1.8663749999999997 16.677777099609372 1.8663749999999997 L 16.731777099609374 1.8663749999999997 Q 16.739277099609374 1.8663749999999997 16.744527099609375 1.8712499999999996 Q 16.749777099609375 1.8761249999999996 16.749777099609375 1.8836249999999997 L 16.749777099609375 1.9376249999999997 Q 16.749777099609375 1.9451249999999998 16.744527099609375 1.9499999999999997 Q 16.739277099609374 1.9548749999999997 16.731777099609374 1.9548749999999997 L 16.677777099609372 1.9548749999999997" fill="#3361e1" fill-rule="nonzero"></path></g></g><defs><clipPath id="SvgjsClipPath57140"><path d=" M 4.786376980475056 -6.546749651661362 h 7.226533758776448 v 6.296749651661362 h -7.226533758776448 Z"></path></clipPath><clipPath id="SvgjsClipPath57138186ad9b3-fc5e-4d04-90de-49041a4c96ec"><path d=" M 4.786376980475056 -6.546749651661362 L 12.012910739251504 -6.546749651661362 L 12.012910739251504 -0.25 L 4.786376980475056 -0.25 Z"></path></clipPath></defs></svg>